SplineFontDB: 3.0
FontName: CrimsonText-SemiboldItalic
FullName: Crimson Text Semibold Italic
FamilyName: Crimson Text
Weight: Semibold
Copyright: Copyright (c) 2010, Sebastian Kosch (sebastian@aldusleaf.org),\nwith Reserved Font Name "Crimson Text".\nThis Font Software is licensed under the SIL Open Font License, Version 1.1.\nThis license is available with a FAQ at: http://scripts.sil.org/OFL
UComments: "2010-6-2: Created." 
Version: 0.12
ItalicAngle: -11
UnderlinePosition: -100
UnderlineWidth: 50
Ascent: 717
Descent: 307
LayerCount: 2
Layer: 0 0 "Back"  1
Layer: 1 0 "Fore"  0
XUID: [1021 85 519305545 4560309]
FSType: 0
OS2Version: 0
OS2_WeightWidthSlopeOnly: 0
OS2_UseTypoMetrics: 1
CreationTime: 1275520707
ModificationTime: 1290561967
PfmFamily: 17
TTFWeight: 600
TTFWidth: 5
LineGap: 92
VLineGap: 0
OS2TypoAscent: 0
OS2TypoAOffset: 1
OS2TypoDescent: 0
OS2TypoDOffset: 1
OS2TypoLinegap: 92
OS2WinAscent: 0
OS2WinAOffset: 1
OS2WinDescent: 0
OS2WinDOffset: 1
HheadAscent: 0
HheadAOffset: 1
HheadDescent: 0
HheadDOffset: 1
OS2Vendor: 'aldu'
Lookup: 4 0 1 "'liga' Standard Ligatures in Latin lookup 0"  {"'liga' Standard Ligatures in Latin lookup 0-1"  } ['liga' ('DFLT' <'dflt' > 'latn' <'dflt' > ) ]
MarkAttachClasses: 1
DEI: 91125
LangName: 1033 "" "" "Semibold Italic" 
Encoding: UnicodeBmp
UnicodeInterp: none
NameList: Adobe Glyph List
DisplaySize: -24
AntiAlias: 1
FitToEm: 1
WidthSeparation: 120
WinInfo: 144 12 9
BeginPrivate: 6
BlueValues 39 [-12 0 442 442 633 640 662 667 680 697]
OtherBlues 11 [-226 -226]
StdHW 4 [30]
StemSnapH 25 [30 44 50 54 58 64 68 74]
StdVW 4 [94]
StemSnapV 28 [76 84 88 94 98 106 110 118]
EndPrivate
Grid
-1024 694 m 0
 2048 694 l 0
  Named: "Ascenders" 
-45 -228 m 25
 441 -228 l 29
-1024 636 m 0
 2048 636 l 0
  Named: "numerals" 
16 442 m 25
 530 442 l 25
EndSplineSet
BeginChars: 66098 997

StartChar: exclam
Encoding: 33 33 1
Width: 220
VWidth: 512
Flags: W
HStem: -12 133<24.4363 100.225> 616 20G<163 191.5>
VStem: 2 122<12.0422 98.5983> 71 38<173.399 257.333>
LayerCount: 2
Fore
SplineSet
2 51 m 1xe0
 6 91 39 121 75 121 c 1
 107 121 128 93 124 61 c 1
 120 21 89 -12 51 -12 c 1
 21 -12 -2 15 2 51 c 1xe0
179 636 m 1
 204 636 221 613 217 581 c 1
 215 553 147 331 109 196 c 0
 104 179 86 169 77 169 c 1
 72 169 71 179 71 189 c 1xd0
 73 225 97 476 113 576 c 0
 119 606 147 636 179 636 c 1
EndSplineSet
Validated: 33
EndChar

StartChar: quotedbl
Encoding: 34 34 2
Width: 178
VWidth: 512
Flags: W
HStem: 434 264
VStem: 60 2<441.895 467.431 587.398 639.663>
LayerCount: 2
Fore
SplineSet
132 698 m 27
 96 698 65 654 62 636 c 1
 62 590 71 537 62 447 c 0
 61 439 71 434 78 434 c 0
 85 434 95 439 98 449 c 0
 117 516 149 577 160 633 c 0
 171 692 160 698 132 698 c 27
130 698 m 27
 158 698 169 692 158 633 c 0
 147 577 115 516 96 449 c 0
 93 439 83 434 76 434 c 0
 69 434 59 439 60 447 c 0
 69 537 60 590 60 636 c 1
 63 654 94 698 130 698 c 27
EndSplineSet
Validated: 37
EndChar

StartChar: numbersign
Encoding: 35 35 3
Width: 443
VWidth: 0
Flags: W
HStem: 172 62<16.375 89 165 229 305 377.625> 314 62<64.375 137 213 277 353 425.625>
LayerCount: 2
Fore
SplineSet
353 376 m 1
 353 376 398 376 427 376 c 0
 432 376 434 374 434 370 c 3
 434 354 420 314 409 314 c 2
 335 314 l 1
 305 234 l 1
 379 234 l 2
 384 234 386 232 386 228 c 3
 386 212 372 172 361 172 c 2
 287 172 l 1
 235 24 l 2
 234 21 228 16 200 16 c 0
 189 16 175 18 175 21 c 0
 175 21 177 23 177 24 c 0
 178 28 229 172 229 172 c 1
 147 172 l 1
 95 24 l 2
 94 21 88 16 60 16 c 0
 49 16 35 18 35 21 c 0
 35 21 37 23 37 24 c 0
 38 28 89 172 89 172 c 1
 15 172 l 2
 10 172 8 174 8 178 c 3
 8 194 22 234 33 234 c 2
 107 234 l 1
 137 314 l 1
 63 314 l 2
 58 314 56 316 56 320 c 3
 56 336 70 376 81 376 c 2
 155 376 l 1
 207 524 l 2
 208 527 217 532 245 532 c 0
 256 532 267 529 267 526 c 0
 267 526 265 525 265 524 c 0
 264 520 213 376 213 376 c 1
 295 376 l 1
 347 524 l 2
 348 527 357 532 385 532 c 0
 396 532 407 529 407 526 c 0
 407 526 405 525 405 524 c 0
 404 520 353 376 353 376 c 1
277 314 m 1
 195 314 l 1
 165 234 l 1
 247 234 l 1
 277 314 l 1
EndSplineSet
Validated: 1
EndChar

StartChar: dollar
Encoding: 36 36 4
Width: 439
VWidth: 512
Flags: W
HStem: -8 47<159 234.098> 589 47<218.171 307>
VStem: 14 41<90.5684 177.997> 77 102<424.746 520.367> 286 107<116.25 216.309> 377 50<461.049 548.805>
LayerCount: 2
Fore
SplineSet
233 245 m 1xf8
 159 39 l 1
 162 39 167 39 171 39 c 1
 232 39 286 95 286 161 c 0
 286 186 275 208 250 230 c 0
 248 232 235 243 233 245 c 1xf8
142 -8 m 1
 122 -62 l 2
 121 -65 116 -66 110 -66 c 0
 94 -66 83 -56 79 -51 c 1
 79 -50 96 -2 96 -2 c 1
 65 3 38 9 9 16 c 1
 8 29 8 30 8 50 c 1
 8 86 13 158 14 170 c 0
 15 177 26 178 35 178 c 0
 43 178 50 177 55 173 c 1
 55 135 67 76 115 51 c 1
 195 274 l 1
 187 281 154 306 146 313 c 0
 117 337 77 378 77 433 c 0
 77 554 192 636 297 636 c 0
 307 636 316 636 325 635 c 1
 343 685 l 2
 344 690 350 690 354 690 c 1
 365 690 381 681 387 673 c 1
 387 672 370 626 370 626 c 1
 388 621 406 616 427 613 c 1
 416 511 413 456 407 456 c 0
 401 456 388 457 382 461 c 0
 379 462 377 466 377 472 c 0xf4
 377 498 368 535 347 560 c 1
 275 359 l 1
 285 351 326 321 335 314 c 0
 378 281 393 243 393 203 c 0
 393 144 364 95 329 59 c 0
 290 19 227 -8 166 -8 c 1
 162 -8 146 -8 142 -8 c 1
237 389 m 1
 307 586 l 1
 299 588 291 589 283 589 c 0
 210 589 179 527 179 483 c 0
 179 456 190 434 210 415 c 0
 214 408 233 393 237 389 c 1
EndSplineSet
Validated: 1
EndChar

StartChar: percent
Encoding: 37 37 5
Width: 644
VWidth: 512
Flags: W
HStem: -2 33<402.129 473.359> 286 32<436.039 505.46> 338 33<161.445 230.894> 626 32<193.671 262.958> 640 14<599 636>
LayerCount: 2
Fore
SplineSet
473 286 m 4xe0
 422 286 393 216 385 154 c 28
 377 102 385 31 437 31 c 4
 487 31 513 103 522 164 c 28
 529 215 524 286 473 286 c 4xe0
487 318 m 4
 567 318 609 252 601 176 c 4
 593 86 514 -2 424 -2 c 4
 345 -2 299 64 307 140 c 4
 315 231 395 318 487 318 c 4
636 640 m 5xe8
 636 640 60 10 54 4 c 5
 49 -1 33 -8 21 -8 c 5
 5 -8 -3 -2 -4 4 c 5
 579 642 l 6
 584 647 591 654 599 654 c 5
 615 654 630 649 636 640 c 5xe8
231 626 m 4xf0
 180 626 152 555 143 494 c 28
 136 442 143 371 195 371 c 4
 245 371 271 444 279 504 c 28
 287 554 282 626 231 626 c 4xf0
244 658 m 4
 324 658 367 591 359 515 c 4
 351 425 271 338 181 338 c 4
 102 338 57 403 65 479 c 4
 73 570 152 658 244 658 c 4
EndSplineSet
Validated: 33
EndChar

StartChar: ampersand
Encoding: 38 38 6
Width: 649
VWidth: 0
Flags: W
HStem: -14 48<199.78 365.977> 164 90<344.764 406.751> 320 84<194.653 296.866> 332 54<361.933 485.963> 344 40<475.931 583.018> 457 85<489.394 569.98> 587 48<207.628 323.836>
VStem: 18 103<115.366 280.301> 104 60<408.393 541.517> 298 46<228.414 318.686> 344 62<486.779 566.321> 479 85<145.709 303.268> 604 40<404.314 474.009>
LayerCount: 2
Fore
SplineSet
292 635 m 3xce98
 350 635 406 601 406 543 c 3
 406 502 366 461 346 461 c 3
 341 461 335 463 335 469 c 3
 335 477 344 485 344 514 c 3
 344 557 311 587 270 587 c 27
 208 587 164 532 164 470 c 27
 164 440 178 412 194 398 c 1
 208 402 218 404 234 404 c 27
 267 404 306 389 306 360 c 3
 306 333 272 320 242 320 c 27xe6b8
 216 320 194 329 180 341 c 1
 142 309 121 262 121 204 c 27
 121 112 182 34 282 34 c 0
 389 34 479 127 479 237 c 27
 479 283 455 332 409 332 c 27
 376 332 344 313 344 280 c 27
 344 264 356 258 373 254 c 0
 390 250 414 238 414 217 c 3
 414 195 406 172 376 164 c 1
 350 164 298 201 298 257 c 3
 298 332 366 386 442 386 c 27xd758
 472 386 488 384 518 384 c 27
 559 384 604 403 604 444 c 27
 604 462 589 477 571 477 c 27
 549 477 542 457 520 457 c 27
 499 457 484 476 484 497 c 27
 484 517 494 531 508 542 c 1
 594 542 644 507 644 444 c 3
 644 386 602 344 534 344 c 3
 524 344 518 345 508 346 c 17
 536 321 564 277 564 224 c 3
 564 88 418 -14 270 -14 c 27
 142 -14 18 68 18 196 c 27xcf58
 18 284 91 359 148 381 c 1
 132 399 104 431 104 479 c 3
 104 579 210 635 292 635 c 3xce98
EndSplineSet
Validated: 1
EndChar

StartChar: quotesingle
Encoding: 39 39 7
Width: 176
VWidth: 512
Flags: W
HStem: 434 264<94 97.8183>
VStem: 60 98<562.207 672.501>
LayerCount: 2
Fore
SplineSet
130 698 m 27
 158 698 169 692 158 633 c 0
 147 577 115 516 96 449 c 0
 93 439 81 434 74 434 c 0
 67 434 59 439 60 447 c 0
 69 537 60 590 60 636 c 1
 63 654 94 698 130 698 c 27
EndSplineSet
Validated: 33
EndChar

StartChar: parenleft
Encoding: 40 40 8
Width: 331
Flags: W
HStem: 720 28<318.073 338.784>
VStem: 31 84<36.4551 330.792>
LayerCount: 2
Fore
SplineSet
337 720 m 0
 261 678 115 415 115 153 c 0
 115 12 155 -86 178 -100 c 0
 180 -101 178 -104 178 -106 c 0
 177 -113 169 -129 162 -129 c 0
 125 -129 31 -1 31 190 c 0
 31 491 268 748 332 748 c 0
 338 748 339 736 339 728 c 0
 339 726 339 723 339 722 c 0
 339 720 338 720 337 720 c 0
EndSplineSet
Validated: 1
EndChar

StartChar: parenright
Encoding: 41 41 9
Width: 322
Flags: W
HStem: -129 29<-10.9115 8.1145> 720 28<154.509 163.426>
VStem: 213 84<282.233 586.191>
LayerCount: 2
Fore
SplineSet
297 428 m 0
 297 108 49 -129 -4 -129 c 0
 -10 -129 -11 -119 -11 -111 c 0
 -11 -109 -11 -107 -11 -106 c 0
 -11 -104 -10 -101 -8 -100 c 0
 37 -79 213 159 213 474 c 0
 213 600 185 696 151 720 c 0
 150 720 150 720 150 722 c 0
 151 729 160 748 167 748 c 0
 212 748 297 616 297 428 c 0
EndSplineSet
Validated: 1
EndChar

StartChar: asterisk
Encoding: 42 42 10
Width: 377
Flags: W
HStem: 430 74<33.0956 125.013> 464 51<209.534 233.45> 473 24<143.45 185.828> 614 20G<314 348> 644 20G<165.5 192.5>
VStem: 119 70<306.58 383.121> 186 48<465 469 497.004 514.719>
LayerCount: 2
Fore
SplineSet
219 515 m 0x5c
 244 515 287 634 341 634 c 0
 355 634 366 624 366 605 c 0
 366 545 234 524 234 492 c 0x5a
 234 465 357 478 357 421 c 0
 357 400 335 381 315 381 c 0
 272 381 243 464 218 464 c 0
 195 464 207 397 189 340 c 0
 180 310 161 300 147 300 c 0
 132 300 119 313 119 330 c 0x5c
 119 370 186 438 186 464 c 0x5a
 186 469 184 473 177 473 c 0x3a
 156 473 94 430 56 430 c 0
 39 430 25 441 25 457 c 0
 25 470 33 504 87 504 c 0x9a
 116 504 145 497 165 497 c 0x3a
 187 497 189 503 189 510 c 0
 189 534 137 577 137 620 c 0
 137 645 155 664 176 664 c 0
 209 664 209 622 209 582 c 0
 209 576 205 515 219 515 c 0x5c
EndSplineSet
Validated: 33
EndChar

StartChar: plus
Encoding: 43 43 11
Width: 482
Flags: W
HStem: 218 64<16.8039 191.001 281.998 455.173>
LayerCount: 2
Fore
SplineSet
240 470 m 0
 243 484 300 488 304 488 c 0
 313 488 315 483 314 479 c 2
 314 479 291 349 279 287 c 0
 278 284 279 282 282 282 c 8
 351 282 459 282 459 282 c 2
 462 282 463 274 463 268 c 3
 463 254 453 232 440 218 c 1
 440 218 334 218 267 218 c 16
 264 218 263 216 263 214 c 0
 250 142 228 30 228 30 c 2
 226 19 188 12 170 12 c 0
 159 12 154 17 155 21 c 2
 155 21 180 157 191 213 c 0
 191 215 192 218 187 218 c 8
 119 218 12 218 12 218 c 2
 9 218 8 226 8 232 c 3
 8 246 20 268 32 282 c 1
 85 282 136 282 203 282 c 16
 206 282 207 284 207 286 c 0
 219 346 226 400 240 470 c 0
EndSplineSet
Validated: 1
EndChar

StartChar: comma
Encoding: 44 44 12
Width: 245
VWidth: 512
Flags: W
HStem: -166 297
VStem: 79 116<8.0084 109.065> 93 102<-45 108.328>
LayerCount: 2
Fore
SplineSet
5 -138 m 0xc0
 5 -129 93 -83 93 -7 c 0xa0
 93 17 79 43 79 64 c 0
 79 104 121 131 164 131 c 0
 172 131 184 131 192 126 c 1
 193 120 195 109 195 98 c 0
 195 70 188 36 174 8 c 0
 140 -86 60 -142 22 -166 c 1
 15 -163 5 -148 5 -138 c 0xc0
EndSplineSet
Validated: 1
EndChar

StartChar: hyphen
Encoding: 45 45 13
Width: 327
VWidth: 512
Flags: W
HStem: 196 80
VStem: 31 256<208.329 263.924>
LayerCount: 2
Fore
SplineSet
54 264 m 2
 280 276 l 2
 285 276 287 269 287 264 c 0
 287 251 272 208 262 207 c 10
 36 196 l 2
 33 196 31 203 31 211 c 0
 31 222 43 263 54 264 c 2
EndSplineSet
Validated: 1
EndChar

StartChar: period
Encoding: 46 46 14
Width: 196
VWidth: 512
Flags: W
HStem: -12 133<45.5627 118.723>
VStem: 21 124<14.2141 96.335>
LayerCount: 2
Fore
SplineSet
145 62 m 4
 141 24 107 -12 71 -12 c 5
 39 -12 17 16 21 50 c 4
 25 88 59 121 95 121 c 5
 127 121 149 95 145 62 c 4
EndSplineSet
Validated: 33
EndChar

StartChar: slash
Encoding: 47 47 15
Width: 485
VWidth: 512
Flags: W
LayerCount: 2
Fore
SplineSet
493 755 m 1
 69 -12 l 2
 66 -18 44 -34 10 -34 c 0
 -3 -34 -5 -30 -7 -28 c 1
 418 739 l 2
 426 754 442 761 465 761 c 0
 476 761 491 757 493 755 c 1
EndSplineSet
Validated: 1
EndChar

StartChar: zero
Encoding: 48 48 16
Width: 488
VWidth: 512
Flags: W
HStem: -3 44<162.165 241.425> 582 43<256.181 338.177>
LayerCount: 2
Fore
SplineSet
302 582 m 0
 230 582 155 426 139 252 c 0
 123 126 149 41 197 41 c 0
 275 41 341 218 357 376 c 0
 373 501 352 582 302 582 c 0
310 625 m 0
 412 625 478 509 461 357 c 0
 444 173 313 -3 187 -3 c 0
 85 -3 17 114 34 266 c 0
 51 454 186 625 310 625 c 0
EndSplineSet
Validated: 33
EndChar

StartChar: one
Encoding: 49 49 17
Width: 286
VWidth: 512
Flags: W
HStem: -3 30<-5.13977 48.2027 177.868 216.945> 617 20G<269 276>
VStem: -4 286
LayerCount: 2
Fore
SplineSet
273 637 m 3
 279 637 282 623 282 618 c 1
 282 618 266 587 254 524 c 2
 178 130 l 2
 173 101 170 82 170 60 c 0
 170 33 210 27 217 27 c 4
 219 27 218 24 218 22 c 0
 218 14 215 1 213 -3 c 1
 176 -1 143 3 106 3 c 0
 69 3 34 -1 -4 -3 c 1
 -5 -2 -6 1 -6 4 c 0
 -6 13 -2 27 2 27 c 0
 13 27 53 39 59 51 c 0
 73 75 74 97 80 124 c 2
 144 447 l 2
 146 457 150 480 150 493 c 0
 150 507 146 510 140 510 c 0
 128 510 91 492 68 480 c 1
 63 482 58 493 58 500 c 0
 58 502 60 508 62 510 c 0
 178 581 265 637 273 637 c 3
EndSplineSet
Validated: 1
EndChar

StartChar: two
Encoding: 50 50 18
Width: 444
VWidth: 512
Flags: W
HStem: 0 84<110.001 342.927> 563 75<230.508 350>
VStem: 318 2<465.52 477.742>
LayerCount: 2
Fore
SplineSet
248 563 m 1
 172 563 130 490 120 490 c 0
 112 490 108 501 108 509 c 0
 108 516 111 525 112 526 c 0
 150 572 239 638 312 638 c 1
 388 638 430 588 430 516 c 0
 430 368 268 225 112 95 c 0
 110 93 110 90 110 88 c 1
 110 86 112 84 114 84 c 2
 286 84 l 2
 342 84 352 119 367 147 c 0
 371 155 382 156 392 156 c 0
 396 156 403 153 405 149 c 1
 385 98 363 52 345 0 c 1
 210 1 l 1
 210 1 8 0 1 0 c 1
 -3 6 -6 11 -6 21 c 0
 -6 25 -5 28 -4 33 c 1
 194 225 308 368 318 464 c 0
 319 498 320 430 320 480 c 0
 320 529 294 563 248 563 c 1
EndSplineSet
Validated: 1
EndChar

StartChar: three
Encoding: 51 51 19
Width: 426
VWidth: 512
Flags: W
HStem: -4 46<94.6936 210.27> 309 40<132.072 196.065> 572 66<203.505 333>
LayerCount: 2
Fore
SplineSet
313 638 m 1
 353 638 404 607 396 535 c 0
 389 451 331 410 288 374 c 1
 322 374 401 323 391 228 c 0
 377 97 241 -4 100 -4 c 1
 43 -4 9 14 -1 30 c 1
 -3 35 -3 45 -3 51 c 1
 -3 81 20 100 42 100 c 1
 82 100 93 42 139 42 c 1
 223 42 277 114 285 200 c 0
 293 269 256 316 203 316 c 0
 181 316 178 316 135 309 c 1
 133 313 131 323 132 330 c 0
 132 334 134 343 138 349 c 1
 235 369 294 436 302 506 c 0
 307 547 277 572 247 572 c 1
 187 572 137 520 125 520 c 0
 119 520 117 529 117 536 c 1
 117 543 119 552 121 554 c 0
 165 603 223 638 313 638 c 1
EndSplineSet
Validated: 33
EndChar

StartChar: four
Encoding: 52 52 20
Width: 444
VWidth: 512
Flags: W
HStem: -4 21G<243 268> 178 64<93.0007 244 354.957 406.262>
LayerCount: 2
Fore
SplineSet
419 644 m 1
 425 644 432 637 430 630 c 2
 355 250 l 2
 354 245 358 242 362 242 c 2
 403 242 l 2
 409 242 411 236 411 228 c 1
 411 211 401 182 399 178 c 1
 347 178 l 2
 343 178 342 176 341 172 c 2
 308 2 l 1
 308 2 282 -4 254 -4 c 1
 232 -4 213 -2 215 6 c 2
 247 173 l 2
 247 178 244 178 241 178 c 2
 13 178 l 1
 9 182 5 191 5 201 c 1
 5 207 6 217 7 222 c 1
 391 627 l 2
 399 635 409 644 419 644 c 1
303 464 m 2
 304 468 303 472 301 472 c 1
 299 472 300 471 299 470 c 2
 95 254 l 2
 94 253 93 251 93 249 c 0
 93 246 94 242 97 242 c 2
 253 242 l 1
 256 243 261 244 263 250 c 2
 303 464 l 2
EndSplineSet
Validated: 33
EndChar

StartChar: five
Encoding: 53 53 21
Width: 436
VWidth: 512
Flags: W
HStem: -4 46<95.3855 216.401> 325 83<148.379 242.683> 546 86<189.406 412.705>
LayerCount: 2
Fore
SplineSet
402 546 m 1
 238 546 197 548 193 536 c 2
 147 401 l 1
 175 405 195 408 229 408 c 1
 319 408 401 326 391 232 c 0
 377 110 267 -4 101 -4 c 1
 44 -4 10 14 0 30 c 1
 -2 35 -2 45 -2 51 c 1
 -2 81 21 100 43 100 c 1
 83 100 93 42 139 42 c 1
 233 42 276 114 282 184 c 0
 291 266 247 325 187 325 c 1
 138 325 99 315 89 315 c 0
 85 315 81 319 77 329 c 1
 97 388 175 632 181 632 c 0
 229 632 388 630 423 638 c 1
 425 634 427 626 425 614 c 0
 423 593 412 561 402 546 c 1
EndSplineSet
Validated: 33
EndChar

StartChar: six
Encoding: 54 54 22
Width: 443
VWidth: 0
Flags: W
HStem: -6 46<137.587 231.586> 316 51<196.047 269.06> 619 20G<269.5 431>
VStem: 20 98<69.7965 276.304> 292 100<133.157 293.489>
LayerCount: 2
Fore
SplineSet
188 332 m 3
 188 350 237 367 262 367 c 0
 338 367 392 304 392 223 c 0
 392 107 279 -6 170 -6 c 0
 80 -6 20 67 20 161 c 0
 20 280 113 513 426 639 c 1
 436 636 440 622 440 612 c 1
 325 563 220 483 160 342 c 0
 126 262 118 191 118 136 c 0
 118 82 137 40 183 40 c 0
 237 40 292 118 292 220 c 0
 292 274 273 307 234 311 c 0
 212 316 202 317 194 316 c 1
 190 318 188 325 188 332 c 3
EndSplineSet
Validated: 33
EndChar

StartChar: seven
Encoding: 55 55 23
Width: 469
VWidth: 512
Flags: W
HStem: -11 21G<25 34> 527 88<89.147 373>
LayerCount: 2
Fore
SplineSet
33 -11 m 0
 17 -11 6 1 6 15 c 0
 6 20 8 25 10 28 c 2
 373 528 l 1
 333 528 167 527 131 527 c 1
 91 527 71 476 61 456 c 1
 58 456 55 456 51 456 c 0
 44 456 37 457 33 462 c 1
 47 508 72 565 84 603 c 0
 86 611 96 615 104 615 c 2
 407 615 l 2
 431 615 462 618 468 618 c 0
 472 618 474 616 474 613 c 0
 474 599 451 566 434 542 c 2
 40 -10 l 1
 37 -11 35 -11 33 -11 c 0
EndSplineSet
Validated: 1
EndChar

StartChar: eight
Encoding: 56 56 24
Width: 438
VWidth: 512
Flags: W
HStem: -6 43<129.487 231.224> 588 45<233.419 322.585>
VStem: 12 99<53.5514 211.331> 93 98<408.099 531.139> 276 105<113.112 227.787> 334 95<435.216 578.094>
LayerCount: 2
Fore
SplineSet
172 37 m 0xe8
 259 37 276 134 276 164 c 0
 276 223 230 255 198 283 c 0
 196 285 191 289 189 289 c 1
 187 289 185 288 183 286 c 0
 137 262 111 175 111 121 c 0
 111 71 133 37 172 37 c 0xe8
282 588 m 3
 219 588 191 504 191 466 c 0
 191 420 228 390 250 373 c 0
 254 370 258 368 260 368 c 0
 263 368 265 370 267 372 c 0
 325 427 334 472 334 520 c 0xd4
 334 560 317 588 282 588 c 3
285 633 m 1
 369 633 429 592 429 518 c 0xd4
 429 404 317 349 297 338 c 0
 295 338 294 335 296 334 c 0
 309 320 381 266 381 191 c 0
 381 99 280 -6 160 -6 c 19
 78 -6 12 40 12 126 c 0xe8
 12 236 103 295 153 318 c 0
 155 319 156 322 154 324 c 0
 142 340 93 373 93 446 c 0
 93 558 195 633 285 633 c 1
EndSplineSet
Validated: 1
EndChar

StartChar: nine
Encoding: 57 57 25
Width: 435
VWidth: 0
Flags: W
HStem: -6 21G<14 175.5> 266 51<175.94 250.726> 594 46<213.798 307.71>
VStem: 53 100<340.098 500.046> 327 98<356.696 563.589>
LayerCount: 2
Fore
SplineSet
258 300 m 3
 258 282 208 266 183 266 c 0
 107 266 53 329 53 410 c 0
 53 526 166 640 275 640 c 0
 365 640 425 566 425 472 c 0
 425 353 332 120 19 -6 c 1
 9 -3 5 12 5 22 c 1
 120 71 225 150 285 291 c 0
 319 371 327 442 327 497 c 0
 327 551 309 594 263 594 c 0
 209 594 153 515 153 413 c 0
 153 359 173 326 212 322 c 0
 234 317 243 316 251 317 c 1
 255 315 258 307 258 300 c 3
EndSplineSet
Validated: 33
EndChar

StartChar: colon
Encoding: 58 58 26
Width: 218
VWidth: 512
Flags: W
HStem: -12 136<37.0232 108.691> 296 136<96.57 168.428>
VStem: 10 126<15.0813 96.3771> 69 127<324.094 404.586>
LayerCount: 2
Fore
SplineSet
69 352 m 0xd0
 69 394 109 432 147 432 c 1
 177 432 196 409 196 379 c 0
 196 338 159 296 121 296 c 1
 90 296 69 321 69 352 c 0xd0
10 43 m 0xe0
 10 85 49 124 87 124 c 1
 117 124 136 100 136 70 c 0
 136 29 99 -12 61 -12 c 1
 31 -12 10 13 10 43 c 0xe0
EndSplineSet
Validated: 1
EndChar

StartChar: semicolon
Encoding: 59 59 27
Width: 174
VWidth: 512
Flags: W
HStem: 71 17<29.125 30.7637>
LayerCount: 2
Fore
SplineSet
108 185 m 0
 112 200 144 252 126 261 c 1
 107 271 85 262 73 242 c 0
 51 222 42 185 62 172 c 1
 81 166 104 182 108 185 c 0
44 170 m 0
 47 208 52 222 72 246 c 0
 87 254 109 272 138 258 c 0
 142 239 134 222 122 218 c 1
 110 210 142 193 122 181 c 0
 106 170 126 149 108 145 c 0
 77 113 88 95 34 71 c 1
 20 71 50 71 33 71 c 1
 16 71 42 84 26 88 c 0
 13 92 36 118 44 170 c 0
EndSplineSet
Validated: 37
EndChar

StartChar: less
Encoding: 60 60 28
Width: 433
VWidth: 512
Flags: W
HStem: -14 21G<334.5 338>
LayerCount: 2
Fore
SplineSet
89 209 m 1
 359 46 l 1
 359 46 361 44 361 40 c 0
 361 30 341 -14 335 -14 c 0
 334 -14 333 -14 331 -13 c 2
 19 177 l 2
 10 183 8 196 10 210 c 0
 11 222 18 234 32 241 c 2
 415 428 l 2
 417 429 418 430 419 430 c 0
 422 430 425 416 425 390 c 0
 425 382 422 370 420 369 c 1
 399 359 89 209 89 209 c 1
EndSplineSet
Validated: 33
EndChar

StartChar: equal
Encoding: 61 61 29
Width: 521
VWidth: 512
Flags: W
HStem: 114 64<33.8084 452.192> 255 64<60.8084 479.192>
LayerCount: 2
Fore
SplineSet
50 178 m 5
 453 178 l 6
 458 178 460 173 460 165 c 7
 460 148 446 118 436 114 c 5
 33 114 l 6
 28 114 26 119 26 127 c 7
 26 144 40 174 50 178 c 5
77 319 m 5
 480 319 l 6
 485 319 487 314 487 306 c 7
 487 289 473 259 463 255 c 5
 60 255 l 6
 55 255 53 260 53 268 c 7
 53 285 67 315 77 319 c 5
EndSplineSet
Validated: 1
EndChar

StartChar: greater
Encoding: 62 62 30
Width: 438
VWidth: 512
Flags: W
LayerCount: 2
Fore
SplineSet
339 209 m 1
 70 369 l 1
 70 369 68 372 69 376 c 0
 76 398 91 430 95 430 c 0
 96 430 97 429 99 428 c 2
 408 241 l 2
 416 237 421 229 420 219 c 0
 418 209 414 187 395 177 c 2
 11 -13 l 2
 9 -14 7 -15 5 -15 c 0
 -1 -15 0 21 0 39 c 0
 0 44 5 46 5 46 c 1
 339 209 l 1
EndSplineSet
Validated: 33
EndChar

StartChar: question
Encoding: 63 63 31
Width: 327
VWidth: 512
Flags: W
HStem: -12 133<35.1931 109.127> 572 66<148.22 253.712>
VStem: 11 125<15.0761 95.7383> 46 74<239.412 306.671> 263 62<468.827 563.113>
LayerCount: 2
Fore
SplineSet
11 41 m 0xe8
 11 84 47 121 84 121 c 0
 114 121 136 98 136 68 c 0
 136 26 97 -12 60 -12 c 0
 32 -12 11 10 11 41 c 0xe8
164 205 m 3
 164 199 158 191 153 188 c 1
 129 188 46 234 46 290 c 3xd8
 46 342 79 370 101 383 c 0
 159 417 167 422 211 448 c 0
 237 462 263 482 263 515 c 3
 263 547 246 572 208 572 c 0
 174 572 166 526 136 526 c 0xe8
 103 526 88 560 94 593 c 1
 102 608 125 638 172 638 c 0
 255 638 325 576 325 501 c 0
 325 446 301 404 266 382 c 0
 226 355 192 336 156 316 c 0
 134 304 120 290 120 266 c 3xd8
 120 236 164 215 164 205 c 3
EndSplineSet
Validated: 33
EndChar

StartChar: at
Encoding: 64 64 32
Width: 748
VWidth: 512
Flags: W
HStem: -170 44<222.776 396.317> -13 44<483.652 571.561> -7 60<215 321.301> 524 54<342.549 551.511>
LayerCount: 2
Fore
SplineSet
313 -170 m 1xd0
 96 -174 -8 17 24 185 c 0
 72 432 269 578 477 578 c 1
 663 578 741 391 710 233 c 0
 672 40 566 -13 493 -13 c 1xd0
 428 -13 395 39 403 80 c 0
 403 82 399 79 398 78 c 0
 378 48 306 -7 250 -7 c 1xb0
 180 -7 161 73 174 141 c 0
 200 274 320 410 486 410 c 0
 504 410 572 401 572 401 c 1
 563 375 561 369 555 348 c 8
 531 265 493 134 493 134 c 2
 469 51 486 31 511 31 c 1
 604 31 644 160 654 214 c 0
 686 381 616 524 457 524 c 1
 289 524 128 399 94 223 c 0
 56 26 119 -126 352 -126 c 0
 383 -126 411 -116 419 -113 c 1
 419 -122 l 1
 415 -143 379 -166 313 -170 c 1xd0
421 176 m 2
 464 322 l 2
 468 336 475 354 452 356 c 0
 386 372 291 297 261 143 c 0
 247 73 265 53 288 53 c 1xb0
 338 53 415 153 421 176 c 2
EndSplineSet
Validated: 33
EndChar

StartChar: A
Encoding: 65 65 33
Width: 648
VWidth: 512
Flags: W
HStem: -3 30<-11.5254 42.2078 146.981 195.629 375.529 426.443 579.385 618.372> 231 54<262.999 410.999> 644 20G<437 447>
VStem: -12 147<2 66>
LayerCount: 2
Fore
SplineSet
323 231 m 0
 285 231 267 230 229 228 c 0
 227 228 224 226 223 224 c 0
 211 203 178 153 166 131 c 0
 142 91 135 72 135 60 c 0
 135 34 191 27 195 27 c 0
 197 27 197 25 197 22 c 1
 197 14 193 1 191 -3 c 1
 154 -1 140 3 99 3 c 0
 56 3 33 -1 -10 -3 c 1
 -11 -1 -12 0 -12 4 c 0
 -12 13 -10 27 -6 27 c 0
 5 27 54 42 66 58 c 0
 88 86 98 106 116 136 c 2
 393 610 l 2
 405 631 429 664 445 664 c 0
 449 664 453 662 455 660 c 1
 549 136 l 2
 555 99 559 83 563 63 c 0
 568 39 610 27 617 27 c 0
 619 27 619 24 619 21 c 0
 619 13 617 1 615 -3 c 1
 578 -1 542 3 501 3 c 0
 458 3 414 -1 376 -3 c 1
 375 -2 375 0 375 3 c 1
 375 13 377 27 381 27 c 0
 392 27 428 38 436 50 c 0
 440 58 442 68 442 80 c 0
 442 97 432 156 422 223 c 0
 422 226 420 228 417 228 c 0
 405 230 365 231 323 231 c 0
335 285 m 0
 364 285 378 286 407 288 c 0
 409 288 411 290 411 292 c 0
 405 332 382 464 378 492 c 1
 316 380 283 326 263 290 c 0
 263 289 261 288 263 288 c 0
 283 286 314 285 335 285 c 0
EndSplineSet
EndChar

StartChar: B
Encoding: 66 66 34
Width: 560
VWidth: 512
Flags: W
HStem: 0 48<180.013 334.928> 1 26<-7.42122 44.3791> 323 49<241.723 370.259> 611 46<280.873 413.98> 632 30<115.269 153.015>
VStem: 407 115<132.652 287.395> 437 113<443.559 589.798>
LayerCount: 2
Fore
SplineSet
407 217 m 0xa4
 407 275 378 323 291 323 c 1
 251 323 226 319 224 308 c 2
 183 96 l 2
 181 86 180 80 180 70 c 3
 180 51 197 48 246 48 c 0
 270 48 301 51 318 59 c 0
 358 77 407 129 407 217 c 0xa4
522 221 m 0
 522 104 414 0 248 0 c 1xb4
 247 0 110 1 108 1 c 1
 48 1 17 -2 -6 -3 c 1
 -7 -2 -8 1 -8 6 c 1
 -8 17 -5 27 -2 27 c 0
 9 27 54 39 61 52 c 0
 73 75 80 105 87 142 c 2
 160 518 l 2
 165 545 170 574 170 603 c 1
 169 615 126 627 116 632 c 0
 114 633 114 634 114 638 c 0
 114 646 118 658 122 662 c 1x6c
 122 662 178 657 240 657 c 0
 334 657 336 659 378 659 c 0
 452 659 550 624 550 523 c 0x32
 550 406 430 354 431 354 c 1
 459 349 522 302 522 221 c 0
437 523 m 0x32
 437 583 408 611 349 611 c 1
 300 611 285 607 282 596 c 1
 280 582 240 386 240 386 c 2
 238 376 260 372 292 372 c 0
 362 372 437 400 437 523 c 0x32
EndSplineSet
Validated: 33
EndChar

StartChar: C
Encoding: 67 67 35
Width: 610
VWidth: 512
Flags: W
HStem: -6 48<231.192 429.67> 618 49<316.846 495.266>
VStem: 25 118<153.231 384.88> 560 38<479.619 548.997>
LayerCount: 2
Fore
SplineSet
404 667 m 5
 465 667 550 649 614 630 c 5
 614 622 600 504 598 494 c 4
 596 484 583 479 573 479 c 7
 567 479 563 480 560 482 c 5
 559 517 544 618 398 618 c 5
 266 618 143 451 143 253 c 4
 143 135 199 42 317 42 c 5
 373 42 422 56 453 76 c 4
 500 107 521 160 525 160 c 5
 528 160 548 151 549 142 c 5
 543 128 518 53 505 40 c 4
 475 11 383 -6 299 -6 c 5
 126 -6 25 120 25 263 c 4
 25 465 209 667 404 667 c 5
EndSplineSet
Validated: 1
EndChar

StartChar: D
Encoding: 68 68 36
Width: 686
VWidth: 512
Flags: W
HStem: -3 51<153.258 385.794> 2 25<-6.98071 43.5142> 608 50<286.132 474.576> 632 30<115.866 154.936>
VStem: 170 498<404 603>
LayerCount: 2
Fore
SplineSet
403 658 m 1x28
 587 658 668 540 668 404 c 1
 668 228 529 -3 273 -3 c 1xa8
 232 -3 177 2 115 2 c 4x48
 53 2 -6 -3 -6 -3 c 5x88
 -7 -2 -8 2 -8 6 c 5
 -8 15 -4 27 -1 27 c 4
 10 27 56 40 62 52 c 4
 72 74 81 111 86 138 c 6
 160 518 l 6
 165 543 172 581 170 603 c 4
 168 615 127 632 116 632 c 4
 115 632 115 632 115 636 c 5
 115 645 117 658 121 662 c 5x58
 121 662 178 658 240 658 c 4
 272 658 383 658 403 658 c 1x28
399 608 m 3
 381 608 303 607 291 592 c 0
 275 574 270 548 266 522 c 2
 192 138 l 2
 187 114 182 70 188 64 c 0
 200 49 283 48 298 48 c 1
 436 48 529 187 548 377 c 0
 562 501 519 608 399 608 c 3
EndSplineSet
Validated: 33
EndChar

StartChar: E
Encoding: 69 69 37
Width: 544
VWidth: 512
Flags: W
HStem: 2 47<184.006 395.921> 2 25<-6.98071 43.5142> 306 50<236.466 375.512> 613 45<283.008 472.404> 632 30<115.866 154.936>
VStem: 390 31<230.113 271.831> 505 32<517.218 569.928>
LayerCount: 2
Fore
SplineSet
240 658 m 4x36
 325 656 437 664 538 664 c 1
 536 642 536 621 536 599 c 0
 536 573 537 548 537 522 c 1
 534 519 524 517 517 517 c 0
 511 517 505 519 505 524 c 0
 496 590 453 613 400 613 c 2
 355 613 l 2
 318 613 290 612 286 600 c 0
 278 577 270 553 266 528 c 2
 236 363 l 2
 235 357 254 356 274 356 c 2
 336 356 l 2
 396 356 397 358 425 422 c 0
 427 427 434 430 440 430 c 0
 446 430 455 427 457 424 c 1
 421 234 l 1
 419 232 409 230 403 230 c 0
 396 230 391 232 390 238 c 0
 388 281 384 289 376 297 c 0
 366 306 330 306 290 306 c 0
 264 306 224 307 222 298 c 2
 193 146 l 6
 188 122 184 99 184 74 c 0
 184 53 184 49 244 49 c 2
 279 49 l 2xb6
 314 49 364 55 394 70 c 0
 414 80 450 117 476 166 c 0
 478 170 483 172 490 172 c 0
 499 172 512 169 514 166 c 1
 486 112 446 41 431 -3 c 1
 330 -3 198 2 115 2 c 4
 53 2 -6 -3 -6 -3 c 5
 -7 -2 -8 2 -8 6 c 5
 -8 15 -4 27 -1 27 c 4
 10 27 56 40 62 52 c 4
 72 74 81 111 86 138 c 6
 160 518 l 6
 165 543 172 581 170 603 c 4
 168 615 127 632 116 632 c 4
 115 632 115 632 115 636 c 5
 115 645 117 658 121 662 c 5x6e
 121 662 178 658 240 658 c 4x36
EndSplineSet
Validated: 33
EndChar

StartChar: F
Encoding: 70 70 38
Width: 532
VWidth: 512
Flags: W
HStem: 3 24<-6.88465 42.3301 198.553 255.997> 306 50<234.761 374.512> 613 45<281.051 470.95> 632 30<115.866 154.936>
VStem: 388 31<230.054 270.809> 504 32<517.218 569.928>
LayerCount: 2
Fore
SplineSet
115 3 m 0xec
 53 3 -6 -3 -6 -3 c 1
 -7 -2 -8 2 -8 6 c 1
 -8 15 -4 27 -1 27 c 0
 10 27 56 40 62 52 c 0
 72 74 81 111 86 138 c 2
 160 518 l 2
 165 543 172 581 170 603 c 0
 168 615 127 632 116 632 c 0
 115 632 115 632 115 636 c 1
 115 645 117 658 121 662 c 1xdc
 121 662 178 658 240 658 c 0
 323 656 435 664 536 664 c 1
 534 642 534 621 534 599 c 0
 534 573 536 548 536 522 c 1
 533 519 523 517 516 517 c 0
 510 517 504 519 504 524 c 0
 495 590 451 613 398 613 c 2
 354 613 l 2
 317 613 288 612 284 600 c 0
 276 577 269 553 265 528 c 2
 234 363 l 2
 233 357 252 356 272 356 c 2
 334 356 l 2
 394 356 396 358 424 422 c 0
 426 427 432 430 438 430 c 0
 444 430 454 427 456 424 c 1
 419 234 l 1
 417 232 408 230 402 230 c 0
 395 230 389 232 388 238 c 0
 386 281 383 289 375 297 c 0
 365 306 329 306 289 306 c 0
 263 306 222 307 220 298 c 2
 189 134 l 2
 183 101 181 82 181 61 c 0
 181 30 250 27 254 27 c 0
 256 27 256 19 256 15 c 0
 256 9 252 -2 250 -4 c 1
 213 -2 155 3 115 3 c 0xec
EndSplineSet
Validated: 33
EndChar

StartChar: G
Encoding: 71 71 39
Width: 645
VWidth: 512
Flags: W
HStem: -8 50<233.563 412.183> 271 30<379.982 439.225 573.63 630.76> 618 49<314.724 495.197>
VStem: 26 117<149.888 378.105> 450 84<102.645 239.43> 560 40<474.002 550.665>
LayerCount: 2
Fore
SplineSet
406 667 m 0
 467 667 552 649 616 630 c 1
 609 576 603 495 600 483 c 0
 598 474 589 474 580 474 c 1
 571 474 563 477 560 480 c 1
 559 515 546 618 400 618 c 0
 217 618 143 356 143 260 c 0
 143 147 198 42 315 42 c 0
 352 42 388 46 414 65 c 0
 419 69 422.449 75.9009 424 84 c 0
 433 131 438 156 446 203 c 16
 448 215 450 233 450 244 c 0
 450 262 389 271 381 271 c 0
 379 271 379 273 379 277 c 0
 379 285 382 297 386 301 c 1
 432 299 472 296 518 296 c 1
 558 296 595 299 633 301 c 1
 633 282 630 271 626 271 c 0
 604 271 582 261 570 254 c 0
 562 249 554.824 240.034 553 230 c 0
 547 197 544 178 539 146 c 0
 537.426 135.924 534 109 534 102 c 0
 534 92 534 82 534 75 c 3
 534 65 527 53 506 44 c 0
 454 21 396 -8 265 -8 c 1
 122 -8 26 120 26 266 c 0
 26 468 206 667 406 667 c 0
EndSplineSet
EndChar

StartChar: H
Encoding: 72 72 40
Width: 709
VWidth: 512
Flags: W
HStem: -3 30<-7.35483 51.7412 188.436 232.465 350.645 408.827 546.436 590.465> 314 54<239.531 476.565> 632 30<117.254 160.645 302.183 356.018 475.477 521.422 662.183 715.484>
LayerCount: 2
Fore
SplineSet
368 368 m 0
 450 368 489 368 490 374 c 2
 518 520 l 2
 523 546 528 573 528 604 c 1
 528 626 487 632 476 632 c 0
 475 632 474 633 474 637 c 0
 474 645 478 658 482 662 c 1
 524 660 559 657 602 657 c 0
 643 657 678 660 716 662 c 1
 716 660 716 659 716 657 c 1
 716 642 713 632 710 632 c 0
 703 632 655 619 649 608 c 0
 637 582 631 555 624 519 c 2
 550 139 l 2
 543 106 538 70 538 54 c 0
 538 36 586 27 590 27 c 1
 591 27 592 24 592 22 c 0
 592 15 588 2 585 -3 c 1
 548 -1 511 3 470 3 c 0
 427 3 395 -1 352 -3 c 1
 351 -2 350 1 350 4 c 0
 350 13 353 27 356 27 c 0
 367 27 411 37 418 50 c 0
 429 72 439 110 444 138 c 2
 476 306 l 2
 477 307 l 3
 477 314 434 314 353 314 c 0
 257 314 225 314 223 304 c 2
 191 139 l 2
 185 106 180 85 180 54 c 1
 180 36 228 27 232 27 c 1
 233 27 234 24 234 22 c 0
 234 15 230 2 227 -3 c 1
 190 -1 153 3 112 3 c 0
 69 3 37 -1 -6 -3 c 1
 -7 -2 -8 1 -8 4 c 0
 -8 13 -5 27 -2 27 c 0
 9 27 53 36 60 49 c 0
 71 71 81 110 86 138 c 2
 160 520 l 2
 165 546 170 576 170 602 c 1
 170 622 127 632 118 632 c 0
 117 632 116 633 116 636 c 0
 116 644 119 658 123 662 c 1
 165 660 195 657 238 657 c 0
 279 657 319 660 357 662 c 1
 357 661 357 660 357 658 c 1
 357 649 354 632 350 632 c 0
 343 632 295 619 289 608 c 0
 279 586 267 537 264 519 c 2
 237 376 l 2
 237 375 237 376 237 375 c 3
 237 369 253 368 368 368 c 0
EndSplineSet
Validated: 1
EndChar

StartChar: I
Encoding: 73 73 41
Width: 350
VWidth: 512
Flags: W
HStem: -3 30<-7.35483 51.7412 188.436 232.465> 632 30<117.254 160.645 302.183 356.018>
LayerCount: 2
Fore
SplineSet
264 519 m 2
 191 139 l 2
 185 106 180 85 180 54 c 1
 180 36 228 27 232 27 c 1
 233 27 234 24 234 22 c 0
 234 15 230 2 227 -3 c 1
 190 -1 153 3 112 3 c 0
 69 3 37 -1 -6 -3 c 1
 -7 -2 -8 1 -8 4 c 0
 -8 13 -5 27 -2 27 c 0
 9 27 53 36 60 49 c 0
 71 71 81 110 86 138 c 2
 160 520 l 2
 165 546 170 576 170 602 c 1
 170 622 127 632 118 632 c 0
 117 632 116 633 116 636 c 0
 116 644 119 658 123 662 c 1
 165 660 195 657 238 657 c 0
 279 657 319 660 357 662 c 1
 357 661 357 660 357 658 c 1
 357 649 354 632 350 632 c 0
 343 632 295 619 289 608 c 0
 279 586 268 537 264 519 c 2
EndSplineSet
Validated: 1
EndChar

StartChar: J
Encoding: 74 74 42
Width: 431
VWidth: 512
Flags: W
HStem: -226 21G<-1.5 28.5> 632 30<197.593 240.645 382.99 436.745>
LayerCount: 2
Fore
SplineSet
158 94 m 6
 240 520 l 2
 245 546 250 576 250 602 c 1
 250 622 207 632 198 632 c 0
 197 632 196 633 196 636 c 0
 196 644 200 658 204 662 c 1
 246 660 275 657 318 657 c 0
 359 657 400 660 438 662 c 1
 438 661 438 660 438 658 c 1
 438 649 434 632 430 632 c 0
 423 632 376 619 370 608 c 0
 360 586 348 537 344 519 c 2
 266 112 l 6
 222 -116 56 -204 1 -226 c 5
 -4 -224 -12 -216 -12 -206 c 4
 -12 -200 -11 -192 -10 -190 c 5
 42 -150 126 -72 158 94 c 6
EndSplineSet
Validated: 1
EndChar

StartChar: K
Encoding: 75 75 43
Width: 691
VWidth: 512
Flags: W
HStem: -3 30<-7.35483 51.7412 188.436 232.465 590.894 640.422> 632 30<117.254 160.645 302.183 356.018 469.29 522.882 624.186 694.569>
LayerCount: 2
Fore
SplineSet
264 519 m 6
 191 139 l 6
 185 106 180 85 180 54 c 5
 180 36 228 27 232 27 c 5
 233 27 234 24 234 22 c 4
 234 15 230 2 227 -3 c 5
 190 -1 154 3 113 3 c 4
 70 3 37 -1 -6 -3 c 5
 -7 -2 -8 1 -8 4 c 4
 -8 13 -5 27 -2 27 c 4
 9 27 53 36 60 49 c 4
 71 71 81 110 86 138 c 6
 160 520 l 6
 165 546 170 576 170 602 c 5
 170 622 127 632 118 632 c 4
 117 632 116 633 116 636 c 4
 116 644 119 658 123 662 c 5
 165 660 195 657 238 657 c 4
 279 657 319 660 357 662 c 5
 357 661 357 660 357 658 c 5
 357 649 354 632 350 632 c 4
 343 632 295 619 289 608 c 4
 279 586 268 537 264 519 c 6
228 330 m 5
 290 370 384 461 502 584 c 4
 510 592 523 609 523 616 c 4
 523 630 482 632 474 632 c 4
 472 632 469 638 469 643 c 5
 469 649 471 657 474 662 c 5
 508 660 553 658 587 658 c 4
 628 658 660 660 698 662 c 5
 698 654 695 632 690 632 c 4
 681 631 620 629 582 590 c 6
 352 355 l 6
 347 350 345 344 345 339 c 5
 345 334 348 329 350 326 c 6
 529 92 l 6
 565 43 616 29 640 29 c 4
 642 29 642 25 642 22 c 7
 642 14 638 4 636 0 c 5
 624 -2 590 -3 569 -3 c 5
 495 -3 449 16 420 60 c 6
 420 60 238 316 228 330 c 5
EndSplineSet
Validated: 1
EndChar

StartChar: L
Encoding: 76 76 44
Width: 528
VWidth: 512
Flags: W
HStem: 2 47<183.013 395.921> 2 25<-6.98071 43.5142> 632 30<115.866 154.936 302.99 356.745>
LayerCount: 2
Fore
SplineSet
240 658 m 24x60
 286 658 320 660 358 662 c 1
 358 661 358 660 358 658 c 1
 358 649 354 632 350 632 c 0
 343 632 296 619 290 608 c 0
 280 586 267 537 264 519 c 2
 191 139 l 2
 186 116 183 99 183 74 c 0
 183 53 184 49 244 49 c 2
 279 49 l 2xa0
 314 49 364 55 394 70 c 0
 414 80 450 117 476 166 c 0
 478 170 483 172 490 172 c 0
 499 172 512 169 514 166 c 1
 486 112 446 41 431 -3 c 1
 330 -3 198 2 115 2 c 0
 53 2 -6 -3 -6 -3 c 1
 -7 -2 -8 2 -8 6 c 1
 -8 15 -4 27 -1 27 c 0
 10 27 56 40 62 52 c 0
 72 74 81 111 86 138 c 2
 160 518 l 2
 165 543 172 581 170 603 c 0
 168 615 127 632 116 632 c 0
 115 632 115 632 115 636 c 1
 115 645 117 658 121 662 c 1
 121 662 194 658 240 658 c 24x60
EndSplineSet
Validated: 33
EndChar

StartChar: M
Encoding: 77 77 45
Width: 856
VWidth: 512
Flags: W
HStem: -3 30<-8.54115 54.5063 175.399 230.629 550.734 611.936 744.367 791.188> 632 26<166.497 221.836 815.234 858.884> 641 21G<351 373 670.04 683>
VStem: 550 187<2 74.5>
LayerCount: 2
Fore
SplineSet
623 536 m 1xb0
 635 561 679 661 679 661 c 1
 687 660 714 658 748 658 c 1xd0
 785 658 824 660 862 662 c 1xb0
 862 651 859 632 854 632 c 0
 841 632 818 626 806 610 c 0
 794 595 788 563 783 522 c 2
 783 522 745 174 741 125 c 2
 739 106 737 87 737 62 c 3
 737 28 778 28 790 27 c 1
 791 27 792 22 792 18 c 1
 792 10 787 0 785 -3 c 1
 748 -1 713 3 672 3 c 1
 629 3 595 -1 552 -3 c 1
 550 0 550 0 550 4 c 1
 550 14 554 27 556 27 c 0
 567 27 614 37 622 50 c 0
 634 70 636 86 642 138 c 2
 676 464 l 2
 677 474 678 498 678 508 c 0
 678 513 677 516 674 516 c 0
 672 516 671 515 669 511 c 2
 422 31 l 2
 417 22 396 -2 378 -2 c 0
 375 -2 372 -1 370 0 c 1
 282 525 l 26
 282 525 281 529 280 529 c 3
 279 529 278 527 277 525 c 2
 277 525 172 146 166 114 c 2
 161 93 154 74 154 62 c 0
 154 40 226 27 230 27 c 0
 232 27 232 26 232 22 c 1
 232 14 228 1 226 -3 c 1
 189 -1 152 2 111 2 c 1
 68 2 36 -1 -7 -3 c 1
 -8 -1 -9 3 -9 6 c 0
 -9 16 -5 27 -2 27 c 0
 9 27 74 41 88 64 c 0
 96 77 101 95 108 119 c 2
 119 160 224 549 224 549 c 2
 225 553 234 587 234 605 c 3
 234 624 178 632 167 632 c 0xd0
 165 632 166 634 166 638 c 1
 166 646 168 658 173 662 c 1xb0
 215 660 234 658 277 658 c 1xd0
 309 658 332 660 370 662 c 1
 376 598 416 373 446 196 c 0
 446 195 446 196 447 196 c 1
 448 196 450 197 450 198 c 0
 511 316 589 465 623 536 c 1xb0
EndSplineSet
Validated: 1
EndChar

StartChar: N
Encoding: 78 78 46
Width: 763
VWidth: 512
Flags: W
HStem: -6 21G<533 538.5> -3 30<-6.27902 61.0712 181.359 233.629> 632 30<124.982 182.98 529.982 583.09 706.676 768.466>
VStem: -7 166<3.5 79.5>
LayerCount: 2
Fore
SplineSet
243 658 m 5x70
 278 658 306 659 336 662 c 5
 356 584 456 391 539 227 c 5
 543 239 546 253 549 268 c 6
 597 518 l 6
 601 541 607 565 607 592 c 7
 607 617 543 632 531 632 c 4
 529 632 529 634 529 638 c 5
 529 646 532 659 536 662 c 5
 578 660 611 658 653 658 c 5
 695 658 732 660 770 662 c 5
 770 656 771 632 763 632 c 4
 756 632 697 621 679 600 c 4
 667 581 660 554 653 518 c 6
 578 138 l 6
 567 82 562 40 555 -2 c 5
 552 -5 540 -6 537 -6 c 4xb0
 529 -6 520 3 512 16 c 5
 510 20 299 442 251 552 c 5
 169 141 l 6
 163 111 159 90 159 69 c 4
 159 37 229 27 233 27 c 5
 235 27 235 25 235 22 c 5
 235 14 231 1 229 -3 c 5
 192 -1 154 2 113 2 c 5
 70 2 38 -1 -5 -3 c 5
 -6 -1 -7 2 -7 5 c 4
 -7 15 -2 27 0 27 c 4
 11 27 72 37 88 60 c 4
 101 82 105 106 113 144 c 6
 189 526 l 6
 194 551 197 585 197 601 c 7
 197 622 138 632 127 632 c 4
 125 632 124 633 124 638 c 5
 124 646 127 659 131 662 c 5
 171 660 202 658 243 658 c 5x70
EndSplineSet
Validated: 1
EndChar

StartChar: O
Encoding: 79 79 47
Width: 656
VWidth: 512
Flags: HW
HStem: -10 50<217.996 363.518> 618 49<301.994 447.633>
VStem: 26 118<139.586 383.921> 520 118<276.931 514.26>
LayerCount: 2
Fore
SplineSet
374 618 m 4
 247 618 144 447 144 252 c 4
 144 138 188 40 290 40 c 4
 436 40 520 266 520 415 c 4
 520 525 477 618 374 618 c 4
398 667 m 4
 537 667 638 552 638 404 c 4
 638 188 457 -10 264 -10 c 4
 120 -10 26 106 26 258 c 4
 26 472 214 667 398 667 c 4
EndSplineSet
EndChar

StartChar: P
Encoding: 80 80 48
Width: 537
VWidth: 512
Flags: W
HStem: -3 30<-11.6111 50.1134 190.586 252.726> 288 40<252.425 350.292> 616 46<276.001 403.508> 632 30<115.255 154.925>
VStem: 431 113<417.232 586.183>
LayerCount: 2
Fore
SplineSet
369 662 m 1xe8
 438 662 544 620 544 507 c 0
 544 395 443 288 316 288 c 0
 279 288 257 297 249 303 c 1
 247 307 247 309 247 312 c 1
 247 318 251 328 255 330 c 1
 265 329 269 328 283 328 c 1
 363 328 431 402 431 518 c 0
 431 578 398 616 345 616 c 1xe8
 297 616 278 608 276 594 c 2
 186 134 l 6
 180 102 177 84 177 62 c 4
 177 31 247 27 251 27 c 5
 253 27 253 19 253 15 c 4
 253 9 249 -1 247 -3 c 5
 210 -1 162 3 122 3 c 5
 77 3 36 -1 -10 -3 c 5
 -11 -1 -12 4 -12 8 c 4
 -12 15 -8 27 -5 27 c 4
 6 27 49 32 57 50 c 4
 69 74 75 110 81 138 c 6
 160 538 l 2
 164 558 167 582 167 600 c 1
 167 620 124 632 116 632 c 0
 114 632 114 634 114 638 c 1
 114 646 118 659 122 662 c 1xd8
 143 661 182 657 237 657 c 0
 292 657 314 662 369 662 c 1xe8
EndSplineSet
Validated: 1
EndChar

StartChar: Q
Encoding: 81 81 49
Width: 624
VWidth: 0
Flags: W
HStem: -193 69.5<479.175 644.408> -54 27<89.3426 125.758> 618 49<311.615 458.894>
VStem: 35.9399 118<139.767 383.913> 529.44 117.5<275.44 517.366>
LayerCount: 2
Fore
SplineSet
383.94 618 m 0
 256.94 618 153.94 447.5 153.94 252.5 c 0
 153.94 138 197.44 39.5 299.94 39.5 c 0
 445.44 39.5 529.44 266 529.44 415 c 0
 529.44 525.5 486.94 618 383.94 618 c 0
407.44 667 m 0
 546.44 667 646.94 552 646.94 404.5 c 0
 646.94 260.427 565 123.5 456.082 49.4576 c 0
 417.072 22.9563 338.016 -17.227 269 -31 c 1
 352 -43 481.5 -123.5 599.5 -123.5 c 0
 655.5 -123.5 718 -85 738 -68 c 1
 742.5 -69.5 762 -78.5 762 -90 c 1
 747 -110 649 -193 550 -193 c 0
 400 -193 293 -109 77.5 -54 c 1
 77.5 -49 90.5 -30 97.5 -27 c 1
 118.267 -23.6886 181.589 -12.9001 230.539 -6.19433 c 1
 111.797 14.7376 35.9399 121.855 35.9399 257.5 c 0
 35.9399 471.5 222.94 667 407.44 667 c 0
EndSplineSet
EndChar

StartChar: R
Encoding: 82 82 50
Width: 621
VWidth: 512
Flags: W
HStem: -3 30<-11.6111 50.1134 185.262 228.465 570.319 608.687> 302 48<233.537 300.047> 613 49<274.6 405.799> 632 30<115.255 154.925>
VStem: 432 114<435.241 589.199>
LayerCount: 2
Fore
SplineSet
237 657 m 0xd8
 293 657 312 662 367 662 c 0xe8
 437 662 546 625 546 519 c 0
 546 423 463 345 403 323 c 0
 398 321 397 315 399 310 c 0
 427 222 478 134 521 82 c 0
 549 48 589 29 615 28 c 1
 615 16 611 7 606 -2 c 1
 597 -2 575 -4 561 -4 c 0
 458 -4 416 46 362 150 c 0
 334 206 316 247 297 286 c 0
 289 300 273 302 249 302 c 0
 227 302 219 303 215 286 c 2
 187 139 l 2
 181 106 177 85 177 54 c 1
 177 36 224 27 228 27 c 1
 229 27 230 24 230 22 c 0
 230 15 226 2 223 -3 c 1
 186 -1 166 3 122 3 c 1
 77 3 36 -1 -10 -3 c 1
 -11 -1 -12 4 -12 8 c 0
 -12 15 -8 27 -5 27 c 0
 6 27 49 32 57 50 c 0
 69 74 75 110 81 138 c 2
 160 538 l 2
 164 558 167 582 167 600 c 1
 167 620 124 632 116 632 c 0
 114 632 114 634 114 638 c 1
 114 646 118 659 122 662 c 1
 143 661 182 657 237 657 c 0xd8
345 613 m 0
 287 613 278 607 274 588 c 2
 234 378 l 2
 234 376 233 376 233 374 c 3
 233 352 277 350 307 350 c 3
 369 350 432 424 432 522 c 0
 432 583 399 613 345 613 c 0
EndSplineSet
Validated: 33
EndChar

StartChar: S
Encoding: 83 83 51
Width: 455
VWidth: 512
Flags: W
HStem: -8 49<110.307 245.548> 618 50<235.323 354.382>
VStem: 19 41<100.224 186.986> 84 106<447.493 542.594> 304 112<123.843 225.292> 398 56<482.994 569.181>
LayerCount: 2
Fore
SplineSet
314 668 m 1xf8
 366 668 400 650 454 642 c 1
 444 567 435 478 429 478 c 1
 425 478 417 479 411 481 c 0
 404 482 398 486 398 496 c 1xf4
 398 547 362 618 300 618 c 1
 224 618 190 553 190 507 c 1
 190 462 227 426 268 394 c 0
 335 341 416 306 416 213 c 1
 416 93 303 -8 176 -8 c 1
 118 -8 64 5 14 17 c 1
 15 33 19 64 19 102 c 3
 19 131 18 171 18 179 c 0
 18 186 33 187 39 187 c 1
 45 187 56 182 60 178 c 1
 60 128 88 41 178 41 c 1
 259 41 304 117 304 170 c 1
 304 227 240 265 192 301 c 0
 138 343 84 385 84 454 c 1
 84 582 204 668 314 668 c 1xf8
EndSplineSet
Validated: 1
EndChar

StartChar: T
Encoding: 84 84 52
Width: 576
VWidth: 512
Flags: W
HStem: -3 30<62.838 121.848 259.088 301.806> 611 44<76.5244 237.891 355.223 514.699>
VStem: -2 32<512.927 543.182> 535 34<513.115 584.8>
LayerCount: 2
Fore
SplineSet
155 138 m 2
 225 497 l 2
 232 531 238 560 238 585 c 0
 238 603 234 611 151 611 c 0
 91 611 62 592 30 518 c 0
 28 514 26 512 21 512 c 0
 13 512 0 517 -2 520 c 1
 45 672 l 1
 59 668 94 662 107 662 c 0
 190 661 235 655 309 655 c 0
 383 655 432 661 515 662 c 0
 528 662 565 668 581 672 c 1
 569 519 l 1
 565 516 551 512 543 512 c 0
 538 512 535 513 535 517 c 0
 533 592 504 611 451 611 c 0
 385 611 361 603 357 594 c 0
 344 566 339 539 331 500 c 2
 261 139 l 2
 255 106 251 85 251 54 c 1
 251 36 297 27 301 27 c 1
 302 27 303 24 303 22 c 0
 303 15 300 2 297 -3 c 1
 260 -1 222 3 181 3 c 0
 138 3 106 -1 63 -3 c 1
 62 -2 62 1 62 4 c 0
 62 13 66 27 69 27 c 0
 80 27 123 36 130 49 c 0
 141 71 150 110 155 138 c 2
EndSplineSet
Validated: 1
EndChar

StartChar: U
Encoding: 85 85 53
Width: 667
VWidth: 512
Flags: W
HStem: -2 64<188.202 355.943> 632 30<48.9155 90.8574 233.183 287.018 447.821 513.673 596.807 672.675>
VStem: 36 106<109.79 356.984>
LayerCount: 2
Fore
SplineSet
90 520 m 2
 95 546 100 576 100 602 c 1
 100 622 58 632 49 632 c 0
 48 632 48 633 48 636 c 0
 48 644 50 658 54 662 c 1
 96 660 127 657 170 657 c 0
 211 657 250 660 288 662 c 1
 288 661 288 660 288 658 c 1
 288 649 285 632 281 632 c 0
 274 632 226 619 220 608 c 0
 210 586 200 536 196 519 c 2
 152 297 l 2
 146 266 142 230 142 202 c 0
 142 113 179 62 264 62 c 0
 354 62 431 100 464 272 c 2
 510 514 l 2
 517 550 524 581 523 606 c 0
 522 624 460 632 448 632 c 0
 447 632 447 634 447 638 c 1
 447 646 449 657 454 662 c 1
 496 660 519 658 561 658 c 1
 603 658 637 660 675 662 c 1
 675 649 673 632 668 632 c 0
 661 632 595 622 589 612 c 0
 583 600 573 558 564 514 c 2
 518 276 l 2
 475 55 374 -2 230 -2 c 1
 114 -2 36 62 36 203 c 0
 36 228 40 262 48 304 c 2
 90 520 l 2
EndSplineSet
Validated: 33
EndChar

StartChar: V
Encoding: 86 86 54
Width: 599
VWidth: 512
Flags: W
HStem: -12 21G<244.5 254> 628 32<65.6353 113.195 255.859 315.485 502.193 552.75 653.444 711.078>
LayerCount: 2
Fore
SplineSet
190.5 655 m 1
 233.5 655 280 658 316 660 c 1
 316.411 658.986 316.647 657.4 316.647 655.5 c 1
 316.647 646.094 312.986 628 309 628 c 0
 279.5 628 247.5 618.5 245 591.5 c 0
 244 584.161 246.906 563.073 250.759 542.5 c 0
 271 434.5 309.793 224.139 320 168 c 1
 320 168 529 524 537.5 538 c 1
 547.468 554.727 558 578 559.5 596 c 0
 561.5 615 533.5 628 503 628 c 0
 501.241 628 501.048 630.427 501.048 634 c 1
 501.048 642.257 504.455 656.41 507.5 660 c 1
 544 658 568.5 655.5 607 655.5 c 1
 648 655.5 671 658 711.5 660 c 1
 712 658 712.5 653.5 712 649.5 c 0
 711 641.5 708 628.5 705 628.5 c 0
 689.5 628.5 643 620 615.5 573.5 c 2
 290 23 l 2
 276.5 0.5 260.5 -12 247.5 -12 c 0
 241.5 -12 236 -7.5 233.5 -2.5 c 1
 138 530.5 l 2
 133 558 126.5 583.5 123 599 c 0
 117.5 620 76 628 67 628 c 0
 64.5 628 64.5 631.5 64.5 635 c 1
 64.5 644 69 657 72 660 c 1
 111 658 149.5 655 190.5 655 c 1
EndSplineSet
EndChar

StartChar: W
Encoding: 87 87 55
Width: 994
VWidth: 512
Flags: HW
LayerCount: 2
Fore
SplineSet
183.176 654 m 0
 224.176 654 263.077 658 301.077 660 c 1
 301.163 658.986 301.163 657.606 301.163 656 c 1
 301.163 646.646 298.149 628 294.077 628 c 0
 273.577 628 246.077 618 243.077 592.5 c 0
 242.577 585 246.5 568.5 249.077 558.5 c 2
 249.077 558.5 363.854 151.941 364.5 151.828 c 1
 370.789 158.017 453.939 278.028 469.883 302.686 c 1
 403.077 543.5 l 2
 397.428 563.46 390.577 589 381.077 603 c 0
 371.572 617.208 347.577 628 332.077 628 c 0
 330.077 628 330.577 635.5 331.077 640 c 0
 331.577 646.5 334.577 657.5 337.577 660 c 1
 379.577 658 411.577 654 454.577 654 c 0
 495.577 654 528.577 658 566.577 660 c 1
 566.675 658.911 566.648 657.34 566.648 655.5 c 1
 566.648 646.012 563.086 628 559.077 628 c 0
 534.577 628 511.577 615 509.077 593.5 c 0
 508.577 586 512 569.5 514.577 559.5 c 2
 552.889 421.3 l 1
 626.577 538 l 2
 640.953 561.077 652.077 579.5 653.577 593.5 c 0
 656.077 622.5 607.077 628.5 599.577 628.5 c 0
 597.589 628.5 597.678 631.919 597.678 636.5 c 1
 597.678 644.718 601.262 656.988 605.077 660 c 1
 634.077 658 677.077 654 707.077 654 c 0
 754.077 654 778.077 658 816.077 660 c 1
 816.577 650 813.577 628.5 809.077 628.5 c 0
 787.577 628.5 747.577 609 735.577 597 c 0
 715.577 576.5 689.079 538.999 666.077 504 c 2
 570.075 357.932 l 1
 586.415 299.199 628.153 155.071 630 151.708 c 1
 631.452 151.943 850.077 511 868.577 539 c 1
 883.038 563.022 893.077 581.5 894.077 593.5 c 0
 896.577 622 848.577 628.5 841.077 628.5 c 0
 838.985 628.5 839.288 632.459 839.288 637.5 c 1
 839.288 645.563 842.888 657.092 846.577 660 c 1
 875.577 658 919.077 654 949.077 654 c 0
 996.077 654 1019.58 658 1057.57 660 c 1
 1057.57 651 1055.5 628.5 1050.57 628.5 c 0
 1029.07 628.5 990.577 610 978.577 598 c 0
 959.077 578.5 931.186 540.937 908.077 504 c 1
 887.577 473.5 605.077 19 605.077 19 c 2
 590.483 -4.44522 572.077 -13 564.577 -13 c 0
 560.577 -13 557.077 -11 556.077 -8 c 2
 486.895 238.978 l 1
 337.577 19 l 2
 324.577 0 309.577 -13 297.577 -13 c 0
 294.577 -13 291.577 -11 290.077 -8 c 1
 145.077 518.5 l 2
 135.011 554.982 129.077 576 113.577 605 c 0
 105.577 620 74.5771 628 63.5771 628 c 0
 61.5771 628 62.0771 635.5 62.5771 640 c 0
 63.0771 646.5 65.5771 657.5 68.5771 660 c 1
 110.577 658 140.176 654 183.176 654 c 0
EndSplineSet
EndChar

StartChar: X
Encoding: 88 88 56
Width: 709
VWidth: 512
Flags: HW
LayerCount: 2
Fore
SplineSet
286.64 654 m 0
 332.64 654 377.64 658 415.64 660 c 1
 415.762 659.271 415.516 655.804 415.516 654 c 1
 415.516 644.382 412.032 628 408.14 628 c 0
 397.14 628 351.64 621 349.64 597.5 c 0
 349.14 591 350.14 582.5 353.64 574.5 c 2
 353.64 574.5 426.14 406.5 426.64 406.5 c 1
 457.14 438.5 589.14 573.5 591.14 597 c 0
 592.64 614.5 559.14 628 530.64 628 c 0
 528.67 628 528.892 631.407 528.892 636 c 1
 528.892 644.381 532.804 656.97 536.64 660 c 1
 570.64 658 615.14 654 649.14 654 c 0
 697.14 654 729.14 658 767.14 660 c 1
 767.36 658.84 767.329 657.073 767.329 655 c 1
 767.329 645.427 763.59 628 759.64 628 c 0
 752.64 628 690.64 619 666.14 593 c 2
 666.14 593 447.64 356.5 447.64 355.5 c 1
 474.64 291.5 556.14 96.5 570.64 72.5 c 0
 591.64 36.5 644.14 28.5 651.14 28.5 c 0
 653.64 28.5 651.64 20 651.14 15 c 0
 650.64 9 648.14 -0.5 646.64 -3.5 c 1
 609.64 -1.5 562.14 2 524.14 2 c 0
 472.14 2 435.64 -1.5 383.14 -3.5 c 1
 382.091 -2.31378 381.694 1.38958 381.694 5 c 1
 381.694 14.5781 386.326 28.5 390.14 28.5 c 0
 400.14 28.5 444.64 39 446.14 58.5 c 0
 446.64 61 447.023 68.2383 445.14 73 c 1
 445.14 73 358.14 280 357.64 280 c 1
 346.64 268 175.14 77 173.64 60 c 0
 171.64 34 213.14 28.5 232.64 28.5 c 0
 235.14 28.5 235.14 20 234.64 13.5 c 0
 234.14 6.5 231.64 -1 229.64 -3.5 c 1
 197.64 -1.5 151.64 0 117.64 0 c 0
 69.6402 0 37.6402 -1.5 -0.35985 -3.5 c 1
 -0.85985 -1.5 -1.85985 2.5 -1.35985 5.5 c 0
 -0.85985 12.5 1.64014 28.5 5.14013 28.5 c 0
 12.1401 28.5 72.1402 35.5 94.1402 60.5 c 2
 94.1402 60.5 335.14 332.5 335.14 334 c 1
 335.14 335 253.64 528.5 253.64 528.5 c 2
 236.14 570 226.14 593.5 208.14 609.5 c 0
 196.14 620 168.14 628 157.14 628 c 0
 155.119 628 155.455 631.671 155.455 636.5 c 1
 155.455 644.82 159.366 657.021 163.14 660 c 1
 208.14 658 240.64 654 286.64 654 c 0
EndSplineSet
EndChar

StartChar: Y
Encoding: 89 89 57
Width: 592
VWidth: 512
Flags: HW
LayerCount: 2
Fore
SplineSet
196.853 654 m 0
 242.853 654 287.5 658 325.5 660 c 1
 326 659 326 654.106 326 653 c 1
 326 643.646 322.425 628 318.353 628 c 0
 307.353 628 261.853 620.5 259.853 596.5 c 0
 259.353 590.5 260.5 582.5 263.353 574.5 c 2
 329.5 379 l 1
 382.5 448 488.353 581.5 490.353 601.5 c 0
 491.292 616.982 463.853 628 431.853 628 c 0
 429.991 628 429.866 630.904 429.866 635.5 c 3
 429.866 643.931 433.388 656.862 437.353 660 c 1
 468.353 658 505.353 654 539.353 654 c 0
 587.353 654 619.353 658 651.853 660 c 1
 652.353 657.5 652.281 651.887 651.781 648.5 c 1
 651.281 640.596 648.47 628.5 644.853 628.5 c 0
 632.353 628.5 585.853 617.5 564.353 595 c 0
 543.353 572 343.311 311.604 339.853 294.5 c 2
 310.353 142 l 2
 303.353 107 299.853 81.5 300.353 53.5 c 0
 300.853 38.5 349.853 28.5 353.353 28.5 c 1
 355.353 28.5 354.853 21.5 354.353 17 c 1
 353.853 11 350.853 0 348.853 -3.5 c 1
 311.853 -1.5 273.853 3 232.853 3 c 1
 189.853 3 152.353 -1.5 109.353 -3.5 c 1
 108.353 -2 107.853 3.5 108.353 8 c 1
 108.853 15 112.353 28.5 115.353 28.5 c 0
 126.353 28.5 173.353 40 180.353 52 c 1
 190.853 73 198.853 109 204.353 137.5 c 2
 234.005 293.5 l 0
 236.353 305 155.853 541 155.853 541 c 0
 145.353 574 132.353 599 118.353 609.5 c 0
 105.353 619 77.8531 628 66.8531 628 c 0
 64.9907 628 65.1409 630.904 65.1409 635 c 1
 65.1409 643.431 69.3878 656.862 73.3531 660 c 1
 118.353 658 150.853 654 196.853 654 c 0
EndSplineSet
EndChar

StartChar: Z
Encoding: 90 90 58
Width: 581
VWidth: 512
Flags: HW
LayerCount: 2
Fore
SplineSet
313.5 656 m 1
 336.5 655.5 405 655.5 418.5 655.5 c 1
 505 655.5 536.5 659.5 622.5 666 c 1
 626 665 627 639.5 625.5 633 c 1
 622.5 625 174.5 79 174.5 79 c 2
 169 72.5 166 67 165.5 63 c 0
 165 56.5 169.5 54 176 54 c 2
 355 54 l 2
 451.5 54 494.5 118 516.5 163 c 0
 518 167 527.5 170 536.5 170 c 0
 544.5 170 554 168.5 557.5 164 c 1
 525 92 502.5 47 487 0 c 1
 16 0 l 1
 12.5 6 11.5 14.5 12.5 21.5 c 0
 13 30 15.5 38 20 43 c 2
 478.5 603.5 l 1
 377.5 603.5 l 1
 300 603 240 576.5 222 545.5 c 0
 175 543.5 163 522.5 139.5 481 c 0
 133.5 479.5 123 479.5 119.5 481 c 1
 125.5 510 129.5 542.5 137.5 575.5 c 1
 153.5 598.5 146 599.5 165.5 663.5 c 1
 179.5 659.5 300.5 656 313.5 656 c 1
EndSplineSet
EndChar

StartChar: bracketleft
Encoding: 91 91 59
Width: 351
Flags: W
HStem: -106 48<89.2656 180.66> 708 47<232.002 344.27>
LayerCount: 2
Fore
SplineSet
176 755 m 0
 262 755 335 767 360 771 c 0
 362 771 364 769 364 764 c 0
 364 753 357 735 345 729 c 0
 330 721 278 708 241 708 c 0
 235 708 232 701 232 699 c 2
 87 -50 l 2
 87 -52 86 -58 92 -58 c 0
 112 -58 155 -67 187 -83 c 0
 201 -90 189 -124 184 -124 c 0
 149 -118 94 -106 9 -106 c 0
 -3 -106 -4 -96 -4 -89 c 0
 -4 -86 -4 -83 -4 -83 c 2
 154 732 l 2
 154 733 159 755 176 755 c 0
EndSplineSet
Validated: 33
EndChar

StartChar: backslash
Encoding: 92 92 60
Width: 226
VWidth: 512
Flags: W
VStem: 152 56<-35.625 4.43836>
LayerCount: 2
Fore
SplineSet
35 761 m 0
 66 761 79 751 81 739 c 1
 207 13 l 2
 207 11 208 9 208 6 c 0
 208 -23 188 -38 175 -39 c 0
 169 -39 152 -37 152 -37 c 1
 15 755 l 1
 17 756 21 761 35 761 c 0
EndSplineSet
Validated: 1
EndChar

StartChar: bracketright
Encoding: 93 93 61
Width: 351
Flags: W
HStem: -106 48<10.2217 118.281> 708 47<163.157 259.719>
LayerCount: 2
Fore
SplineSet
340 755 m 0
 352 755 353 745 353 738 c 0
 353 735 353 732 353 732 c 2
 195 -83 l 2
 195 -84 190 -106 173 -106 c 0
 88 -106 28 -118 -9 -124 c 0
 -10 -124 -13 -120 -13 -112 c 0
 -13 -109 -11 -88 3 -83 c 0
 41 -67 88 -58 108 -58 c 0
 114 -58 116 -52 116 -50 c 2
 262 699 l 2
 262 701 262 708 256 708 c 0
 219 708 173 721 161 729 c 1
 148 735 153 771 162 771 c 1
 186 767 254 755 340 755 c 0
EndSplineSet
Validated: 33
EndChar

StartChar: asciicircum
Encoding: 94 94 62
Width: 341
VWidth: 512
Flags: W
HStem: 472 218
VStem: 35 283
LayerCount: 2
Fore
SplineSet
35 499 m 1
 43 513 127 566 197 677 c 0
 203 687 202 690 209 690 c 0
 231 690 219 669 259 588 c 0
 275 558 317 505 318 500 c 1
 316 494 308 472 301 472 c 0
 283 472 219 545 193 590 c 1
 143 533 55 472 42 472 c 0
 35 472 35 488 35 499 c 1
EndSplineSet
Validated: 1
EndChar

StartChar: underscore
Encoding: 95 95 63
Width: 531
VWidth: 512
Flags: W
HStem: -44 59<42.7578 461.858>
LayerCount: 2
Fore
SplineSet
34 -36 m 1
 34 -34 47 15 58 15 c 1
 127 15 405 15 474 15 c 1
 477 15 478 13 478 9 c 0
 478 4 473 -14 462 -38 c 0
 459 -44 454 -44 454 -44 c 1
 40 -44 l 1
 40 -44 33 -44 34 -36 c 1
EndSplineSet
Validated: 1
EndChar

StartChar: grave
Encoding: 96 96 64
Width: 200
VWidth: 512
Flags: W
HStem: 524 162
VStem: 38 135
LayerCount: 2
Fore
SplineSet
38 656 m 0
 38 666 49 686 83 686 c 0
 97 686 109 683 113 678 c 0
 139 636 173 545 173 541 c 1
 173 535 164 524 157 524 c 0
 148 524 38 615 38 656 c 0
EndSplineSet
Validated: 1
EndChar

StartChar: a
Encoding: 97 97 65
Width: 450
VWidth: 0
Flags: W
HStem: -7 67.5<109.167 197.089> 387 55<236.396 357.75>
VStem: 36.4995 98.5005<66.5891 236.189> 260.5 98<23.2741 154.27>
LayerCount: 2
Fore
SplineSet
337 442 m 0
 378.5 442 405.5 432 420.5 424.5 c 9
 361 117 l 2
 360 113.5 358.5 98 358.5 93 c 0
 358.5 84 358 68.5 368.5 68.5 c 0
 390 68.5 433.5 117 438 122.5 c 1
 441 122.5 454 105 454 99 c 1
 442.333 74.2636 358.354 -6.98047 304 -7 c 1
 279.5 -7 260.5 13.5 260.5 46 c 0
 260.5 52.0165 262.02 66.3023 264.192 79 c 0
 266.245 91.9249 266.754 95.1751 268.043 100.5 c 1
 248 66 199 -6.5 142.5 -6.5 c 3
 74.5 -6.5 36.4995 56.5 36.4995 135 c 3
 36.4995 276 179 442 337 442 c 0
287 387 m 1
 206.017 387 135 230.5 135 137.5 c 0
 135 89.5 146.5 60.5 176 60.5 c 3
 224.5 60.5 283.524 186.523 302.012 281 c 2
 320.792 377 l 17
 314 384.5 298.5 387 287 387 c 1
EndSplineSet
EndChar

StartChar: b
Encoding: 98 98 66
Width: 401
VWidth: 512
Flags: W
HStem: -8 49<146.538 226.632> 371.5 70.5<257.061 344.5> 628 28.5<78.5419 131.744>
VStem: 135.5 103.833<551.011 674> 311 98<185.131 367.695>
LayerCount: 2
Fore
SplineSet
313.5 442 m 0
 375.5 442 409 389.5 409 303.5 c 1
 409 121 260 -8 149.5 -8 c 1
 95.9763 -8 43.3396 33.029 43.3396 105.5 c 3
 43.3396 117.067 45.5695 136.41 48.0967 149.5 c 2
 126.5 551.5 l 2
 131.5 576 135.5 599 135.5 607.5 c 0
 135.5 627.5 98.5 628 80.5 628 c 0
 78.5 628 77.5 632 77.5 635 c 0
 77.5 644 82.5 653 86 656.5 c 1
 131 659 205 679.5 231.5 690 c 1
 237 687 239.333 678.5 239.333 669.5 c 0
 239.333 658.5 229 609 224.5 587.5 c 10
 172 324.5 l 17
 216.529 397 272.5 442 313.5 442 c 0
274 371.5 m 3
 229.5 371.5 158.612 249.5 141.559 161.5 c 0
 129.061 97.5 138 41 180 41 c 3
 251.5 41 311 185.5 311 288 c 3
 311 325.5 307.5 371.5 274 371.5 c 3
EndSplineSet
EndChar

StartChar: c
Encoding: 99 99 67
Width: 348
VWidth: 512
Flags: W
HStem: -6 68<149.609 226.404> 394 48<209.591 282.13>
VStem: 31.5 100<79.5804 257.737>
LayerCount: 2
Fore
SplineSet
264 442 m 1
 306.5 442 340 425.5 363.5 402.5 c 1
 365.688 395.312 368.5 385.329 368.5 376 c 1
 368.5 348.625 353.841 324 327.5 324 c 1
 286 324 292.5 394 252.5 394 c 0
 199.5 394 131.5 281.577 131.5 165.5 c 1
 131.5 119.682 139.5 62 196.5 62 c 1
 244 62 289 113 293.5 118.5 c 1
 296.5 118.5 309.5 101 309.5 95 c 1
 298 70.5 224 -6 157.5 -6 c 0
 71 -6 31.5 56.5 31.5 151 c 0
 31.5 290.5 149.5 442 264 442 c 1
EndSplineSet
EndChar

StartChar: d
Encoding: 100 100 68
Width: 464
VWidth: 0
Flags: W
HStem: -7 67.5<111.534 199.236> 387 54.355<238.497 318.006> 628 28.5<308.545 362.065>
VStem: 39.0029 98.5001<67.3969 233.994> 263.003 98<23.2741 153.083> 365.503 105.5<557.93 674>
LayerCount: 2
Fore
SplineSet
327 441.355 m 1
 340.332 441.411 332.167 441.459 335.794 441.5 c 1
 359.503 562.5 l 2
 363.003 582 365.503 603.5 365.503 607.5 c 0
 365.503 627.5 328.503 628 310.503 628 c 0
 308.503 628 307.503 632 307.503 635 c 0
 307.503 644 312.503 653 316.003 656.5 c 1
 361.003 659 436.503 679.5 463.003 690 c 1
 468.503 687 471.003 678.5 471.003 669.5 c 0
 471.003 658.5 459.003 610 454.956 588.5 c 2
 363.503 117 l 2
 362.503 113.5 361.003 98 361.003 93 c 0
 361.003 84 360.503 68.5 371.003 68.5 c 0
 392.503 68.5 436.003 117 440.503 122.5 c 1
 443.503 122.5 456.503 105 456.503 99 c 1
 445.003 74.5 361.019 -7 306.503 -7 c 1
 282.003 -7 263.003 13.5 263.003 46 c 0
 263.003 52.3232 264.582 66.9934 266.761 80 c 0
 268.978 92.5479 269.843 95.8538 270.892 101 c 1
 253.503 70.5 203.003 -6.5 145.503 -6.5 c 3
 76.503 -6.5 39.0029 56.5 39.0029 135 c 1
 38.5078 273.567 175.762 435.685 327 441.355 c 1
317.975 350.5 m 2
 322.057 371.5 309.003 387 290.503 387 c 0
 207.503 387 137.503 230 137.503 137 c 1
 137.503 92.5 148.003 60.5 178.503 60.5 c 3
 227.503 60.5 285 183.5 304.626 282 c 2
 317.975 350.5 l 2
EndSplineSet
EndChar

StartChar: e
Encoding: 101 101 69
Width: 356
VWidth: 512
Flags: W
HStem: -6 68<153.801 230.404> 181 42.5<145.001 205.645> 394.5 47.5<215.135 280.316>
VStem: 35.5 100.5<78.6469 218.523> 282 93<299.115 393.991>
LayerCount: 2
Fore
SplineSet
267.5 442 m 0
 335 442 375 402.5 375 358 c 1
 375 256.5 197.5 181 140 181 c 0
 136 181 136 162.5 136 158.5 c 0
 136 84.8047 165 62 200.5 62 c 0
 248 62 293 113 297.5 118.5 c 1
 300.5 118.5 313.5 101 313.5 95 c 1
 302 70.5 228 -6 161.5 -6 c 0
 77.5 -6 35.5 54 35.5 151.5 c 0
 35.5 288.5 153 442 267.5 442 c 0
257.5 394.5 m 1
 207 394.5 145 283.5 145 227.5 c 1
 145 225.5 146.5 223.5 149 223.5 c 0
 202.5 223.5 282 299 282 360 c 1
 282 377.5 275 394.5 257.5 394.5 c 1
EndSplineSet
EndChar

StartChar: f
Encoding: 102 102 70
Width: 473
VWidth: 512
Flags: HW
LayerCount: 2
Fore
SplineSet
481.02 697 m 0
 534.02 697 558.02 678.5 568.52 663.5 c 1
 568.52 629 560.52 581 521.02 581 c 0
 483.02 581 480.52 650.5 442.52 650.5 c 0
 401.52 650.5 352.02 567 326.02 423.5 c 0
 326.02 423 326.02 422 326.02 422 c 1
 326.02 420 326.52 418 329.02 418 c 2
 444.02 418 l 2
 450.02 418 451.52 410 451.52 404.5 c 1
 451.52 392.5 445.02 375.5 439.02 365.5 c 1
 320.52 365.5 l 2
 317.52 365.5 315.02 364 314.02 358.5 c 2
 257.02 57 l 2
 218.52 -151 104.02 -224.5 18.02 -224.5 c 0
 -33.48 -224.5 -61.98 -201.5 -67.48 -184.5 c 1
 -67.98 -144.5 -52.48 -111.5 -18.98 -111.5 c 0
 15.02 -111.5 15.02 -177.5 55.52 -177.5 c 0
 110.02 -177.5 142.52 -58.5 155.02 8.5 c 2
 221.02 358.5 l 1
 221.02 359 221.02 360 221.02 360.5 c 1
 221.02 363.5 219.52 365.5 217.52 365.5 c 2
 155.52 365.5 l 2
 152.52 365.5 152.02 370.5 152.02 372 c 0
 152.02 382.5 178.02 418.5 204.52 418.5 c 2
 227.52 418.5 l 2
 231.52 418.5 233.52 423.5 235.02 431 c 0
 263.52 590.5 365.52 697 481.02 697 c 0
EndSplineSet
EndChar

StartChar: g
Encoding: 103 103 71
Width: 449
VWidth: 0
Flags: W
HStem: -225.5 46<106.893 279.381> 370.5 45<405.231 470.88> 393 49.5<221.289 298.107>
VStem: -5.3335 87<-154.523 -73.1405> 83.6509 94.5<171.123 327.942> 308.5 86.6721<-135.194 -9.87403> 312.651 95<220.823 369.698>
LayerCount: 2
Fore
SplineSet
308.5 -107.5 m 0x9c
 308.5 -63 215.5 -37.5 167.028 -26.5 c 1
 135 -38.5 81.6665 -59.5 81.6665 -104.5 c 0
 81.6665 -152.395 119.5 -179.5 196.5 -179.5 c 1
 269 -179.5 308.5 -145.5 308.5 -107.5 c 0x9c
263.651 393 m 1xba
 208.151 393 178.151 301 178.151 232 c 0
 178.151 190 195.151 161 227.651 161 c 0
 285.651 161 312.651 254.5 312.651 312.5 c 0
 312.651 354 295.651 393 263.651 393 c 1xba
282.651 442.5 m 1
 340.151 442.5 350.151 415.5 417.151 415.5 c 2
 465.151 415.5 l 2
 471.151 415.5 472.4 411.5 472.4 405 c 0
 472.5 393.5 466.9 377 461.9 370.5 c 1
 408.651 370.5 l 2
 405 370.5 402.651 367.5 402.651 364.5 c 0
 403.151 358 407.651 339 407.651 312 c 0xda
 407.651 213.5 345 163.5 314.9 144.5 c 0
 272.009 117.583 190 97 190 71.5 c 0
 190 45.5 395.172 43.5 395.172 -63.2481 c 0xdc
 395.172 -141.617 320.4 -225.5 155.9 -225.5 c 1
 64.3999 -225.5 -5.3335 -184.92 -5.3335 -125.133 c 0
 -5.3335 -63.7612 74.5 -28.5 124.528 -10.5 c 1
 120.717 -9.31738 103 1 99.5 3.5 c 1
 85.1123 13.4912 74.5283 25.3901 74.5283 43 c 0
 74.5283 68.5 140.4 104 182.9 119 c 1
 130.9 128.5 83.6509 176.5 83.6509 239 c 0
 83.6509 350 179.651 442.5 282.651 442.5 c 1
EndSplineSet
EndChar

StartChar: h
Encoding: 104 104 72
Width: 465
VWidth: 0
Flags: W
HStem: -7 75.5<306.25 393.75> 351 91<279 374.5>
VStem: 275 98<23.9969 177.633> 321 96<210.461 378.25>
LayerCount: 2
Fore
SplineSet
349 442 m 1xd0
 400 442 417 402 417 354.5 c 0xd0
 417 320 409 280 402 246.5 c 2
 375.5 117 l 2
 374.5 113.5 373 98 373 93 c 0
 373 84 372.5 68.5 383 68.5 c 0
 404.5 68.5 448 117 452.5 122.5 c 1
 455.5 122.5 468.5 105 468.5 99 c 1
 456.833 74.2636 372.838 -6.98047 318.5 -7 c 1
 294 -7 275 13 275 47.5 c 1xe0
 275 59.5 280.5 96 283.5 111 c 2
 312.5 253 l 2
 314.435 263.408 321 297.5 321 309 c 0
 321 334 316.5 351 297 351 c 0
 261 351 164 206 141.5 91.5 c 9
 122.5 0 l 17
 112.5 -3 89.5 -5 79 -5 c 0
 68.5 -5 44 -3 31.5 0 c 1
 34.5 15.5 143.139 578 143.139 581 c 1
 145 600.5 133.139 613 123.14 618.5 c 0
 122.14 628 99.1395 630 91.1395 632 c 0
 90.1395 637 92.6395 644 94.1395 646.5 c 1
 111.639 650.5 163.139 667.5 180.639 676 c 1
 211.139 677 237.639 681 248.639 679 c 1
 251.139 670.5 244.473 637 242.973 625 c 1
 242.973 621 212 461.5 209.639 447.5 c 1
 224.639 478.5 186 328.5 184.076 317 c 1
 199.076 348 175.134 272.5 175.134 271 c 1
 196.634 314.5 292 442 349 442 c 1xd0
EndSplineSet
EndChar

StartChar: i
Encoding: 105 105 73
Width: 280
VWidth: 0
Flags: W
HStem: -7 75.5<117.25 204.75> 366.5 75.5<117.5 203.75> 543 123.5<185.063 249.688>
VStem: 86 98<23.9969 182.191> 137 98<252.059 410.676> 157 112<562.724 647.872>
LayerCount: 2
Fore
SplineSet
191.5 442 m 1xe8
 216 442 235 422 235 387.5 c 1xe8
 235 375.5 230 338.5 227 324 c 2
 186.5 117 l 2
 185.5 113.5 184 98 184 93 c 0
 184 84 183.5 68.5 194 68.5 c 0
 215.5 68.5 259 117 263.5 122.5 c 1
 266.5 122.5 279.5 105 279.5 99 c 1
 267.833 74.2636 183.854 -6.98047 129.5 -7 c 1
 105 -7 86 13 86 47.5 c 1xf0
 86 59.5 91.5 96.5 94.5 111 c 2
 133.424 310.5 l 2
 134.488 316.503 137 337 137 342 c 0
 137 351 137.5 366.5 127 366.5 c 0
 108 366.5 67.5 322 63 316.5 c 1
 60 316.5 47 334 47 340 c 1
 58.6675 364.737 140.984 442 191.5 442 c 1xe8
222 666.5 m 1
 249.5 666.5 269 643.5 269 615.5 c 1
 269 578 239.5 543 203 543 c 1
 175 543 157 567.5 157 596 c 1xe4
 157 633 186 666.5 222 666.5 c 1
EndSplineSet
EndChar

StartChar: j
Encoding: 106 106 74
Width: 317
VWidth: 0
Flags: HW
LayerCount: 2
Fore
SplineSet
239.576 442 m 1
 264.076 442 283.076 422 283.076 387.5 c 1
 283.076 375.5 278 338.5 275.076 324 c 2
 275.076 324 236 120 228.5 82.5 c 1
 217 22.5 194 -57 152.5 -113 c 0
 110.5 -169.5 32.5 -215.5 1 -226.5 c 1
 -3.5 -225 -10 -206 -10 -198 c 1
 69 -139 107 -69 132.5 61 c 1
 181.5 310.5 l 2
 182.5 316.5 185.076 337 185.076 342 c 0
 185.076 351 185.576 366.5 175.076 366.5 c 0
 156.076 366.5 115.576 322 111.076 316.5 c 1
 108.076 316.5 95.0755 334 95.0755 340 c 1
 106.743 364.737 189.06 442 239.576 442 c 1
276.5 667.5 m 1
 304 667.5 323.5 644 323.5 616 c 1
 323.5 578.5 294 543.5 257.5 543.5 c 1
 229.5 543.5 211.5 568 211.5 596.5 c 1
 211.5 633.5 240.5 667.5 276.5 667.5 c 1
EndSplineSet
EndChar

StartChar: k
Encoding: 107 107 75
Width: 475
VWidth: 0
Flags: HW
LayerCount: 2
Fore
SplineSet
351.5 442 m 3
 400 442 449 411 449 362 c 3
 449 272 350 214.5 264.5 201.5 c 1
 317.5 112.5 357 61 385 61 c 0
 412 61 445 97 452.5 109 c 1
 456 109 473 92.5 473 87.5 c 1
 466 66.5 409 -4 349.5 -4 c 0
 271.5 -4 206 129 170 193.5 c 1
 162.5 156 132.5 0 132.5 0 c 17
 120.5 -4.5 99.5 -6.5 88.5 -6.5 c 0
 77.5 -6.5 53.5 -3 41.5 0 c 1
 148.5 551.5 l 18
 153.5 576 157.5 599 157.5 607.5 c 0
 157.5 627.5 120.5 628 102.5 628 c 0
 100.5 628 99.5 632 99.5 635 c 0
 99.5 644 104.5 653 108 656.5 c 1
 153 659 227 679.5 253.5 690 c 1
 259 687 261.333 678.5 261.333 669.5 c 0
 261.333 658.5 250.5 609 246.5 587.5 c 2
 198 334 l 1
 206.5 349 266.5 442 351.5 442 c 3
312.5 382 m 3
 259.5 382 184.5 266.5 184.5 242.5 c 3
 184.5 238 191.5 235.5 202 235.5 c 0
 206 235.5 317.498 244.5 332.498 303.5 c 1
 344.498 326 338 382 312.5 382 c 3
EndSplineSet
EndChar

StartChar: l
Encoding: 108 108 76
Width: 238
VWidth: 0
Flags: W
HStem: -7 75.5<76.75 164.25> 628 28.5<91.0419 144.456>
VStem: 45.5 98<23.9969 182.473> 148 104.833<550.293 674>
LayerCount: 2
Fore
SplineSet
54 111 m 2
 142.004 564 l 2
 145.879 584 148 603.625 148 607.5 c 0
 148 627.5 111 628 93 628 c 0
 91 628 90 632 90 635 c 0
 90 644 95 653 98.5 656.5 c 1
 143.5 659 218.5 679.5 245 690 c 1
 250.5 687 252.833 678.5 252.833 669.5 c 0
 252.833 658.5 242.284 609.14 238 587.5 c 2
 146 117 l 2
 145.218 113.555 143.5 98 143.5 93 c 0
 143.5 84 143 68.5 153.5 68.5 c 0
 175 68.5 218.5 117 223 122.5 c 1
 226 122.5 239 105 239 99 c 1
 227.332 74.2636 143.354 -6.98047 89 -7 c 1
 64.5 -7 45.5 13 45.5 47.5 c 1
 45.5 59.5 50.9604 96.5078 54 111 c 2
EndSplineSet
EndChar

StartChar: m
Encoding: 109 109 77
Width: 725
VWidth: 0
Flags: W
HStem: -7 21G<111 123 334.5 352.75 570.75 610.177> 351 91<331.407 396.683 542.935 624.501>
VStem: 134.576 98<241.949 410.676> 357 94.5<279.993 350.155> 539.5 98<23.9969 177.633> 585.5 96<210.844 350.955>
LayerCount: 2
Fore
SplineSet
377.5 442 m 0xf4
 438 442 451.5 390.5 451.5 340 c 1
 451.5 319.726 445.562 293.196 443.249 279.44 c 1
 477.396 341.529 561.125 442 610 442 c 1
 664.5 442 681.5 403.5 681.5 354.5 c 1xf4
 681.5 320 673.5 280 666.5 246.5 c 2
 640 117 l 2
 639 113.5 637.5 98 637.5 93 c 0
 637.5 84 637 68.5 647.5 68.5 c 0
 669 68.5 712.5 117 717 122.5 c 1
 720 122.5 733 105 733 99 c 1
 721.333 74.2636 637.354 -6.98047 583 -7 c 1
 558.5 -7 539.5 13 539.5 47.5 c 1xf8
 539.5 59.5 545 96 548 111 c 2
 577.154 253 l 2
 579.263 263.406 585.5 298.5 585.5 309 c 1
 586 335.5 581.5 351 561.5 351 c 0
 523.5 351 430.5 206 410 100 c 2
 390.5 0 l 1
 378.5 -2 362 -4.5 343.5 -4.5 c 1
 325.5 -4.5 314.5 -3.5 298.001 0 c 1
 350.154 263 l 2
 353 277 357 300.5 357 311 c 1
 357 337.5 349.5 351 332 351 c 1
 291.5 351 201 193 181.5 96.5 c 2
 162 0 l 1
 150.5 -2.5 129 -5 117 -5 c 1
 105 -5 83.5 -2.5 71 0 c 1
 131 310.5 l 2
 131.98 316.504 134.576 337 134.576 342 c 0
 134.576 351 135.076 366.5 124.576 366.5 c 0
 105.576 366.5 65.0755 322 60.5755 316.5 c 1
 57.5757 316.5 44.5757 334 44.5757 340 c 1
 56.2431 364.737 138.56 442 189.076 442 c 0
 213.576 442 232.576 422 232.576 387.5 c 0
 232.576 375.5 228.91 348.167 225.576 329 c 2
 214.5 269.5 l 1
 247.5 332 327.5 442 377.5 442 c 0xf4
EndSplineSet
EndChar

StartChar: n
Encoding: 110 110 78
Width: 502
VWidth: 0
Flags: W
HStem: -7 75.5<344.25 431.75> 351 91<318.944 397.768> 366.5 75.5<114.076 200.326>
VStem: 133.576 98<241.744 410.676> 313 98<23.9969 177.633> 359 96<210.461 378.25>
LayerCount: 2
Fore
SplineSet
188.076 442 m 1xb4
 212.576 442 231.576 422 231.576 387.5 c 1
 231.576 375.5 227.91 348.167 224.576 329 c 2
 224.576 329 213.634 269.5 213.634 270 c 1
 235.134 313.5 330 442 387 442 c 1
 438 442 455 402 455 354.5 c 0xd4
 455 320 447 280 440 246.5 c 2
 413.5 117 l 2
 412.5 113.5 411 98 411 93 c 0
 411 84 410.5 68.5 421 68.5 c 0
 442.5 68.5 486 117 490.5 122.5 c 1
 493.5 122.5 506.5 105 506.5 99 c 1
 494.833 74.2636 410.854 -6.98047 356.5 -7 c 1
 332 -7 313 13 313 47.5 c 1xd8
 313 59.5 318.5 96 321.5 111 c 2
 350.654 253 l 2
 352.763 263.406 359 298.5 359 309 c 0
 359 334 354.5 351 335 351 c 0xd4
 299 351 202 206 179.5 91.5 c 9
 160.5 0 l 17
 150.5 -3 127.5 -5 117 -5 c 0
 106.5 -5 82.5 -3 70.5 0 c 1
 130 310.5 l 2
 131 316.5 133.576 337 133.576 342 c 0
 133.576 351 134.076 366.5 123.576 366.5 c 0
 104.576 366.5 64.0755 322 59.5757 316.5 c 1
 56.5757 316.5 43.5757 334 43.5757 340 c 1
 55.2431 364.737 137.56 442 188.076 442 c 1xb4
EndSplineSet
EndChar

StartChar: o
Encoding: 111 111 79
Width: 402
VWidth: 512
Flags: W
HStem: -5.5 47<158.945 232.648> 395 47<218.65 294.639>
VStem: 42.5 100<54.652 259.886> 308.5 100<175.226 380.57>
LayerCount: 2
Fore
SplineSet
262 395 m 0
 197 394.5 141.5 245 142.5 134 c 0
 143 77.5 161.5 41.5 191.5 41.5 c 0
 260.5 42 309.5 200.5 308.5 302.5 c 0
 308 358.5 292.5 395 262 395 c 0
273 442 m 1
 368 442 408.5 376 408.5 284 c 1
 408.5 139 294.5 -5.5 177.5 -5.5 c 1
 82.5 -5.5 42.5 58.5 42.5 150.5 c 1
 42.5 288 156 442 273 442 c 1
EndSplineSet
EndChar

StartChar: p
Encoding: 112 112 80
Width: 468
VWidth: 512
Flags: W
HStem: -228 31.5<-7.10339 39.2683> -219 31<163.277 207.527> -5 53<192.398 274.644> 374.5 67.5<293.485 399.5>
VStem: 369.5 98.5<198.994 364.53>
LayerCount: 2
Fore
SplineSet
321 374.5 m 3x38
 287.5 374.5 253.5 343 233.356 311.5 c 9
 192.734 102.5 l 2
 187.16 74.0572 191.5 48 225.5 48 c 1
 292 48 369.5 178.5 369.5 298 c 3
 369.5 338 357 374.5 321 374.5 c 3x38
364.5 442 m 1
 434.5 442 468 369 468 299.5 c 3
 468 145 314 -5 211.5 -5 c 1
 196 -5 182 -1 173.346 5 c 9
 147 -130.5 l 2
 145.5 -138.5 144.5 -146.5 144.5 -155 c 0
 144.5 -163 148.169 -180.668 162.5 -184.5 c 0
 179 -188.5 200 -188 203.5 -188 c 1
 206.5 -188 208 -193 208 -197 c 3
 208 -205 205.5 -216 203.5 -219 c 1
 190 -219 143.01 -218.724 129.5 -219 c 0x78
 89.5 -219.5 57.5 -221 -4.5 -228 c 1
 -6.5 -227 -7.5 -222 -7.5 -219.5 c 1
 -7.5 -212.5 -6 -199.5 -3 -196.5 c 1xb8
 14.5 -196 32.5 -190.5 41.5 -179.5 c 0
 47.5 -171.5 51.5 -156 55.5 -134.5 c 2
 127.266 232.5 l 1
 125.266 231.5 84.0581 193 84.0581 193 c 1
 80.0005 198 75.5005 209 75.5005 217.5 c 3
 75.5005 221.5 77.164 225.827 80.5005 229 c 2
 80.5005 229 127.209 277 137.266 286 c 1
 167 438 l 1
 182.5 441.5 197.5 443 212.5 443 c 0
 227.5 443 243 441 257.5 436.5 c 1
 255.499 427 245.628 380.205 245.128 376.705 c 1
 265.528 396.5 300.5 442 364.5 442 c 1
EndSplineSet
EndChar

StartChar: q
Encoding: 113 113 81
Width: 415
VWidth: 0
Flags: HW
LayerCount: 2
Fore
SplineSet
292 387 m 3
 213 387 141.5 242.5 141.5 143.5 c 0
 141.5 88.5 155 61 181.5 61 c 1
 229.5 61 292.503 182.566 307.888 260 c 2
 331.29 376.5 l 17
 325 385 302.5 387 292 387 c 3
342.5 442 m 1
 376 442 403.5 437.5 430 424.5 c 1
 429.5 422.5 348 -2.5 348 -2.5 c 2
 346.5 -9 324 -137.5 324 -140.5 c 1
 323.5 -160 327 -169 349 -172 c 0
 351 -179 353 -194 375 -196 c 1
 375.5 -200 375 -204 374 -207.5 c 1
 367 -211.5 354.5 -217.5 347 -219 c 1
 311 -219 254.5 -222 229.5 -224 c 1
 199.5 -222.5 173.5 -220.5 155 -221 c 1
 155 -216.5 155 -206.5 157 -205 c 1
 165 -201.5 188 -193.5 196.5 -160.5 c 1
 198.5 -160.5 245 -69.5 250.5 -40.5 c 1
 243 -55.5 245.654 58.5 224.654 58.5 c 1
 176.5 40.5 120 23 91 64.5 c 1
 60 139.5 42.9995 55.5 42.9995 132 c 1
 42.9995 280 189 442 342.5 442 c 1
EndSplineSet
EndChar

StartChar: r
Encoding: 114 114 82
Width: 405
VWidth: 0
Flags: W
HStem: -4.5 21G<112.75 128.5> 357.5 84.5<323.797 384.739> 366.5 75.5<117.576 203.826>
VStem: 137.076 98<241.798 410.676>
LayerCount: 2
Fore
SplineSet
191.576 442 m 1xb0
 216.076 442 235.076 422 235.076 387.5 c 1
 235.076 377.335 233.5 353.5 229.743 334 c 2
 229.743 334 217.676 271.758 217.237 270 c 1
 248.5 343.5 316 442 376.5 442 c 1
 404.5 442 424 425 437 406.5 c 1
 437 369.5 428 323 388 323 c 1
 363 323 359 357.5 332 357.5 c 1xd0
 297 357.5 206.5 211 184.5 97 c 2
 166 0 l 1
 151 -3 136 -4.5 121 -4.5 c 0
 104.5 -4.5 89 -3 73.5 0 c 1
 133.5 310.5 l 2
 134.5 316.5 137.076 337 137.076 342 c 0
 137.076 351 137.576 366.5 127.076 366.5 c 0
 108.076 366.5 67.5755 322 63.0755 316.5 c 1
 60.0755 316.5 47.0757 334 47.0757 340 c 1
 58.743 364.737 141.06 442 191.576 442 c 1xb0
EndSplineSet
EndChar

StartChar: s
Encoding: 115 115 83
Width: 322
VWidth: 512
Flags: W
HStem: -7 46.5<124.492 203.582> 397 46.5<172.607 249.944>
VStem: 84 83.5<297.167 381.199> 208 83.5<50.5883 139.333>
LayerCount: 2
Fore
SplineSet
237.5 443.5 m 1
 281.5 443.5 311 430.5 331.5 410 c 1
 337 401.5 339.5 388.5 339.5 381 c 3
 339.5 351 324.5 329 302.5 329 c 1
 259.5 329 262.5 397 207.5 397 c 1
 180 397 167.5 378.5 167.5 352.5 c 0
 167.5 284 291.5 206 291.5 117.5 c 0
 291.5 43.5 222.5 -7 136 -7 c 1
 94.5 -7 61.5 7.5 41 28 c 1
 37 33.5 34 47.5 34 54.5 c 3
 34 84.5 49 107.5 71 107.5 c 1
 114 107.5 114 39.5 166 39.5 c 1
 194 39.5 208 58 208 84 c 0
 208 152.5 84 230.5 84 319 c 0
 84 382 151 443.5 237.5 443.5 c 1
EndSplineSet
EndChar

StartChar: t
Encoding: 116 116 84
Width: 277
VWidth: 0
Flags: W
HStem: -7 75.5<93.75 181.25> 374 50.5<57.6218 121.888 222.5 317.352>
VStem: 62.5 98<23.9969 181.055>
LayerCount: 2
Fore
SplineSet
153.57 534.5 m 2
 155.57 543 199.07 546 222.07 546 c 0
 233.57 546 240.57 545 246.57 543.5 c 1
 222.5 424.5 l 1
 239 424.5 311.5 424.5 311.5 424.5 c 2
 316.5 424.5 319 415.5 319 409.5 c 0
 319 397 313.888 383 308.388 374 c 1
 212.888 374 l 1
 163 117 l 2
 162 113.5 160.5 98 160.5 93 c 0
 160.5 84 160 68.5 170.5 68.5 c 0
 192 68.5 235.5 117 240 122.5 c 1
 243 122.5 256 105 256 99 c 1
 244.332 74.2636 160.354 -6.98047 106 -7 c 1
 81.5 -7 62.5 13 62.5 47.5 c 1
 62.5 59.5 68 96.5 71.001 111 c 2
 121.888 374 l 1
 58.3891 374 l 2
 55.8886 374 54.8891 382 54.8891 385.5 c 0
 54.8891 401 64.0005 420 68.0005 424.5 c 1
 132 424.5 l 1
 153.57 534.5 l 2
EndSplineSet
EndChar

StartChar: u
Encoding: 117 117 85
Width: 492
VWidth: 0
Flags: W
HStem: -7 91<141.808 220.319> -7 75.5<334.75 422.25> 366.5 75.5<108.576 194.826>
VStem: 84.5755 96.0005<56.75 224.438> 128.076 98<253.156 410.676> 303.5 98<23.9969 190.677>
LayerCount: 2
Fore
SplineSet
182.576 442 m 1xac
 207.076 442 226.076 422 226.076 387.5 c 1xac
 226.076 375.5 221.5 339 218.076 324 c 2
 189.076 182 l 2
 187 171.5 180.576 137.5 180.576 126 c 0
 180.576 101 185.076 84 204.576 84 c 0xb4
 240.576 84 333.576 229 356.076 343.5 c 9
 375.076 435 l 17
 385.076 438 408.076 440 418.576 440 c 0
 429.076 440 453.076 438 465.076 435 c 1
 404 117 l 2
 403 112.5 401.5 98 401.5 93 c 0
 401.5 84 401 68.5 411.5 68.5 c 0
 433 68.5 476.5 117 481 122.5 c 1
 484 122.5 497 105 497 99 c 1
 485.333 74.2636 401.338 -6.98047 347 -7 c 1x74
 322.5 -7 303.5 13 303.5 47.5 c 1
 303.5 59.5 307.5 86.5 311 106 c 2
 311 106 321.941 165.5 321.941 165 c 1
 300.441 121.5 209.576 -7 152.576 -7 c 1
 101.576 -7 84.5755 33 84.5755 80.5 c 0xb4
 84.5755 115 92.5 155 99.5755 188.5 c 2
 124.5 310.5 l 2
 125.5 315.5 128.076 337 128.076 342 c 0
 128.076 351 128.576 366.5 118.076 366.5 c 0
 99.0755 366.5 58.5757 322 54.0757 316.5 c 1
 51.0757 316.5 38.0757 334 38.0757 340 c 1
 49.7431 364.737 132.076 442 182.576 442 c 1xac
EndSplineSet
EndChar

StartChar: v
Encoding: 118 118 86
Width: 429
VWidth: 0
Flags: HW
LayerCount: 2
Fore
SplineSet
184.5 442 m 0
 209 442 228 422 228 387.5 c 0
 228 375.5 225 348.5 221 329 c 2
 221 329 196.123 202.5 190 171 c 1
 188.529 163 184.5 131.584 184.5 121 c 3
 184.5 96.3875 190.5 75 218 75 c 1
 277 75 374.5 214 374.5 298.5 c 1
 374.5 344 342 351.5 342 390 c 1
 342 421 367.5 442 398 442 c 1
 414.5 442 424.5 438.5 433 432.5 c 1
 439 422 445 394.15 445 374.5 c 1
 445 194 267 -2 174 -2 c 1
 124 -2 87.5 32.5 87.5 88.5 c 3
 87.5 99.5 89.2588 123.544 92 136.5 c 1
 98.5117 170 126 310.5 126 310.5 c 2
 127.5 316.5 130 337 130 342 c 0
 130 351 130.5 366.5 120 366.5 c 0
 101 366.5 60.5 322 56 316.5 c 1
 53 316.5 40 334 40 340 c 1
 51.5 364.5 133.984 442 184.5 442 c 0
EndSplineSet
EndChar

StartChar: w
Encoding: 119 119 87
Width: 659
VWidth: 0
Flags: W
HStem: -2 77<149 238.288 376.686 465.82> 422 20G<159.242 196.75 382.25 424 604.25 626.75>
VStem: 87.5 97<77.3762 227> 130 98<250.344 410.676> 595.5 70.5<255.836 384.325>
LayerCount: 2
Fore
SplineSet
184.5 442 m 0xe8
 209 442 228 422 228 387.5 c 0xd8
 228 375.5 225 348.5 221 329 c 2
 221 329 196.123 202.5 190 171 c 1
 188.529 163 184.5 131.584 184.5 121 c 1
 184.5 96.3875 190.5 75 218 75 c 1
 249.859 75 289.887 106.495 322.5 159.5 c 1
 343 340 356 442 408.5 442 c 0
 439.5 442 455 423.5 455 383.5 c 0
 455 336 434 255 415.5 196.5 c 1
 412.5 175 411 155.5 411 147.5 c 0
 411 92 418 75 445.5 75 c 0
 504.5 75 595.5 214 595.5 298.5 c 0
 595.5 341.5 562.5 354 562.5 392.5 c 0
 562.5 423.5 591 442 617.5 442 c 0
 636 442 645.5 439 654 432.5 c 1
 660 422 666 394.15 666 374.5 c 0
 666 194 494.5 -2 401.5 -2 c 0
 351.873 -2 315.08 28.8667 314.5 87 c 1
 265.226 32.0615 213.362 -2 174 -2 c 1
 124 -2 87.5 32.5 87.5 88.5 c 1xe8
 87.5 99.5 89.2588 123.544 92 136.5 c 1
 98.5117 170 126 310.5 126 310.5 c 2
 127.5 316.5 130 337 130 342 c 0xd8
 130 351 130.5 366.5 120 366.5 c 0
 101 366.5 60.5 322 56 316.5 c 1
 53 316.5 40 334 40 340 c 1
 51.5 364.5 133.984 442 184.5 442 c 0xe8
EndSplineSet
EndChar

StartChar: x
Encoding: 120 120 88
Width: 489
VWidth: 0
Flags: HW
LayerCount: 2
Fore
SplineSet
215 442 m 0
 244.5 442 264.5 402.5 277 359.5 c 2
 295.193 297.583 l 1
 345.5 381.5 l 2
 368.5 419.5 398 442 435 442 c 0
 467 442 486 432.5 499.5 423 c 1
 503.5 415.5 507 404.5 507 395.5 c 0
 507 371.5 490 349 464.5 349 c 0
 435 349 429.5 373.5 405 373.5 c 0
 395.5 373.5 383.5 365 376 352 c 2
 311.867 240.56 l 1
 353 100.5 l 2
 357.5 85.5 368 69.5 378.5 69.5 c 0
 401 69.5 436.5 107 443 118 c 1
 447 118 460.5 101.5 460.5 96 c 1
 453.042 73.5 377.016 -5 322.5 -5 c 0
 293 -5 272.5 36 260.5 78 c 2
 239.415 150.841 l 1
 181 54.5 l 2
 158 17 128.5 -6 91.5 -6 c 0
 59.5 -6 40.5 3.5 27 13 c 1
 22.5 21 19.5 31.5 19.5 40.5 c 0
 19.5 64.5 36.5 87 62 87 c 0
 91.5 87 97 62.5 121.5 62.5 c 0
 131 62.5 143 71 150.5 84 c 2
 223.24 206.864 l 1
 184.5 336.5 l 2
 179.5 352.5 169.5 367.5 159 367.5 c 0
 136.5 367.5 101 330 94.5 319 c 1
 90.5 319 77 335.5 77 341 c 1
 84.458 363.5 160.484 442 215 442 c 0
EndSplineSet
EndChar

StartChar: y
Encoding: 121 121 89
Width: 484
VWidth: 0
Flags: HW
LayerCount: 2
Fore
SplineSet
213 442 m 0
 297.5 442 311.5 86.5 312.5 47 c 1
 335 74.5 413.5 197.5 413.5 279 c 1
 413.5 329.5 395.5 369 383 390.5 c 1
 387 418.5 411.5 442 440.5 442 c 1
 477 442 490.5 401.5 490.5 375 c 1
 490.5 109 182.5 -225.5 34 -225.5 c 1
 1 -225.5 -26 -209.5 -26 -178.5 c 1
 -26 -162.5 -18.5 -144 -5.5 -134 c 1
 15 -142 43 -146.5 66 -146.5 c 1
 132 -146.5 170 -112 195.5 -76.5 c 0
 214.722 -49.6328 217.5 -6 217.5 35 c 0
 217.5 128 203 290.5 161 352.5 c 0
 152.5 357.815 133 349 121.5 343 c 1
 109 343 81.5 329 78.5 328 c 1
 80 335.5 163.484 442 213 442 c 0
EndSplineSet
EndChar

StartChar: z
Encoding: 122 122 90
Width: 419
VWidth: 0
Flags: W
HStem: -2 81<224.223 326.112> 23 85<92.6038 246.336> 333 85.5<206.989 369.633> 362 80<143.319 242.024>
LayerCount: 2
Fore
SplineSet
188 442 m 3x10
 237 442 288 418.5 352.5 418.5 c 27x20
 381 418.5 394.5 442 423 442 c 27
 435.5 442 438.5 427 438.5 412.5 c 1
 438.5 405.5 137 94.5 137 93.5 c 1
 146 94.5 164 108 181 108 c 11x50
 231 108 264.5 79 305.5 79 c 3
 336.5 79 364 133.5 372.5 138 c 1
 380.5 141.5 387.5 124.5 390 114.5 c 1
 379 88 333.5 -2 276 -2 c 3x80
 227.5 -2 176.5 23 112.5 23 c 27x40
 81 23 60.5 -2 35.5 -2 c 3
 23.5 -2 19 16 18.5 24.5 c 1
 18.5 32 320 346 320 347 c 1
 313.5 344.5 296.5 333 281.5 333 c 11xa0
 234.5 333 206 362 165 362 c 3
 134 362 107.5 307 97.5 302.5 c 1
 90 298.5 81 315.5 78 325 c 1
 90 357 140.5 442 188 442 c 3x10
EndSplineSet
EndChar

StartChar: braceleft
Encoding: 123 123 91
Width: 312
Flags: W
HStem: -125 31<122.825 157.62> 719 31<273.397 322.864>
VStem: 15 74<-57.7415 75.6393> 81 78<160.744 272.17> 118 89<381.442 638.995>
LayerCount: 2
Fore
SplineSet
15 22 m 0xe0
 15 105 81 176 81 234 c 0xd0
 81 273 44 280 11 292 c 1
 10 295 11 318 19 328 c 1
 84 345 118 364 118 438 c 0
 118 468 112 499 112 532 c 0
 112 670 231 750 322 750 c 0
 324 750 325 748 325 745 c 0
 325 738 319 720 312 719 c 0
 298 718 202 691 202 569 c 0
 202 539 207 515 207 483 c 0xc8
 207 362 131 308 102 308 c 1
 130 308 159 271 159 220 c 0xd0
 159 130 89 72 89 -4 c 0
 89 -57 129 -92 154 -94 c 0
 162 -96 160 -125 152 -125 c 0
 82 -125 15 -65 15 22 c 0xe0
EndSplineSet
Validated: 33
EndChar

StartChar: bar
Encoding: 124 124 92
Width: 229
VWidth: 512
Flags: W
VStem: -7 240
LayerCount: 2
Fore
SplineSet
163 757 m 1
 177 770 199 775 215 775 c 1
 222 775 234 772 233 766 c 2
 65 -106 l 1
 56 -114 27 -124 6 -124 c 1
 -1 -124 -8 -120 -7 -115 c 2
 -7 -115 128 587 163 757 c 1
EndSplineSet
Validated: 1
EndChar

StartChar: braceright
Encoding: 125 125 93
Width: 317
Flags: W
HStem: -125 31<-10.5361 34.3351> 719 31<155.498 189.444>
VStem: 111 88<3.67188 249.412> 153 78<347.125 462.983> 225 77<552.78 688.698>
LayerCount: 2
Fore
SplineSet
-10 -125 m 0xe0
 -12 -125 -13 -122 -13 -120 c 0
 -13 -115 -7 -95 0 -94 c 0
 20 -93 111 -54 111 59 c 0xe0
 111 88 105 110 105 141 c 0
 105 253 175 308 209 308 c 1
 181 308 153 347 153 399 c 0xd0
 153 487 225 560 225 634 c 0
 225 686 184 717 159 719 c 0
 151 721 154 750 160 750 c 0
 230 750 302 702 302 611 c 0xc8
 302 523 231 451 231 390 c 0xd0
 231 350 264 338 299 328 c 1
 300 326 300 324 300 321 c 0
 300 315 298 298 293 292 c 1
 239 275 194 270 194 184 c 0
 194 156 199 127 199 97 c 0
 199 -42 69 -125 -10 -125 c 0xe0
EndSplineSet
Validated: 1
EndChar

StartChar: asciitilde
Encoding: 126 126 94
Width: 534
VWidth: 512
Flags: W
HStem: 248 56<299.287 437.954> 300 56<108.886 243.26>
LayerCount: 2
Fore
SplineSet
186 356 m 1x40
 274 356 306 304 394 304 c 1
 430 304 457 325 488 348 c 1
 490 346 493 342 493 335 c 0
 493 297 423 248 358 248 c 1x80
 270 248 234 300 146 300 c 1
 110 300 85 279 54 256 c 1
 52 258 48 262 48 269 c 0
 48 313 138 356 186 356 c 1x40
EndSplineSet
Validated: 1
EndChar

StartChar: exclamdown
Encoding: 161 161 96
Width: 224
VWidth: 512
Flags: W
HStem: 308 133<110.775 186.564>
VStem: 87 122<330.402 416.958> 103 38<172.663 255.94>
LayerCount: 2
Fore
SplineSet
209 378 m 1xc0
 205 338 172 308 136 308 c 1
 104 308 83 336 87 368 c 1
 91 408 122 441 160 441 c 1
 190 441 213 414 209 378 c 1xc0
32 -208 m 1
 7 -208 -10 -184 -6 -152 c 1
 -4 -124 65 99 103 234 c 0
 108 251 126 260 135 260 c 1
 140 260 141 250 141 240 c 1xa0
 139 204 115 -47 99 -147 c 0
 93 -177 65 -208 32 -208 c 1
EndSplineSet
Validated: 33
EndChar

StartChar: cent
Encoding: 162 162 97
Width: 415
VWidth: 512
Flags: W
HStem: -7 55<193.517 267.077> 321 119<331.416 383.161> 398 48<198.472 265>
VStem: 14 108<90.9499 269.146>
LayerCount: 2
Fore
SplineSet
14 165 m 0xd0
 14 311 141 446 270 446 c 1
 272 446 281 446 283 446 c 1xb0
 283 446 297 486 300 496 c 1
 310 501 330 502 337 502 c 3
 346 502 352 496 350 491 c 2
 331 440 l 1
 360 434 408 412 410 382 c 1
 410 374 401 321 352 321 c 0
 330 321 320 348 305 366 c 1
 193 53 l 1
 204 49 217 48 229 48 c 0
 291 48 337 103 337 103 c 1
 343 103 346 101 346 96 c 0
 346 92 347 81 343 72 c 1
 333 55 260 -7 180 -7 c 0
 177 -7 175 -7 172 -7 c 1
 172 -7 158 -47 155 -58 c 1
 147 -62 125 -63 116 -63 c 1
 112 -63 103 -58 105 -54 c 2
 125 0 l 1
 55 20 14 84 14 165 c 0xd0
122 173 m 0
 122 134 132 101 152 81 c 1
 265 396 l 1
 260 397 253 398 247 398 c 0
 165 398 122 248 122 173 c 0
EndSplineSet
Validated: 1
EndChar

StartChar: sterling
Encoding: 163 163 98
Width: 457
Flags: W
HStem: -5 78<245.758 339.949> 26 80<85.8439 218.856> 304 55<44.907 120.997 210.002 367.839> 586 50<272.294 383>
VStem: 121 89<201.525 303.999 359.001 489.711>
LayerCount: 2
Fore
SplineSet
363 636 m 27x78
 403 636 448 624 458 600 c 1
 452 566 435 529 405 529 c 3
 365 529 366 586 329 586 c 27
 251 586 218 496 211 423 c 0
 209 406 209 379 210 362 c 0
 210 361 210 359 213 359 c 1
 243 359 364 359 364 359 c 2
 369 359 371 353 371 345 c 1
 371 326 362 312 354 304 c 1
 329 304 241 304 215 304 c 1
 213 304 210 303 210 301 c 16
 210 289 208 270 205 256 c 8
 190 184 161 141 117 89 c 1
 137 100 163 106 195 106 c 3x78
 245 106 277 73 309 73 c 0
 353 73 376 105 407 138 c 1
 411 138 420 131 420 123 c 1
 420 122 420 119 419 118 c 0
 407 92 353 -5 281 -5 c 3xb8
 221 -5 166 26 120 26 c 3
 71 26 41 3 21 -7 c 1
 2 -2 -8 10 -8 17 c 1
 -8 20 -5 20 -3 22 c 0
 44 59 100 138 115 238 c 0
 118 260 121 289 121 300 c 0
 121 302 119 304 117 304 c 1
 103 304 60 304 45 304 c 1
 43 308 42 314 42 320 c 1
 42 335 52 359 62 359 c 2
 62 359 109 359 119 359 c 1
 121 359 122 361 122 363 c 0
 122 376 124 399 126 412 c 0
 138 555 235 636 363 636 c 27x78
EndSplineSet
Validated: 33
EndChar

StartChar: currency
Encoding: 164 164 99
Width: 475
Flags: W
HStem: 120 38<173.487 261.389> 458 39<212.353 300.47>
VStem: 58 90<192.823 360.732> 327 89<252.534 423.247>
LayerCount: 2
Fore
SplineSet
257 458 m 1
 187 458 148 336 148 260 c 0
 148 202 171 158 217 158 c 1
 287 158 327 277 327 354 c 0
 327 412 303 458 257 458 c 1
275 497 m 0
 315 497 348 482 372 458 c 1
 433 510 l 2
 434 511 436 511 437 511 c 1
 447 511 463 485 464 464 c 1
 403 413 l 1
 411 393 416 370 416 346 c 0
 416 279 382 223 356 194 c 1
 392 142 l 2
 393 141 393 140 393 139 c 1
 393 129 363 105 341 99 c 1
 306 152 l 1
 274 132 237 120 201 120 c 0
 160 120 126 134 101 158 c 1
 43 109 l 2
 42 108 40 108 39 108 c 1
 29 108 12 134 11 155 c 1
 70 204 l 1
 62 223 58 246 58 269 c 0
 58 334 92 392 121 424 c 1
 85 478 l 2
 84 479 84 479 84 480 c 1
 84 490 113 514 135 520 c 1
 171 466 l 1
 203 486 239 497 275 497 c 0
EndSplineSet
Validated: 1
EndChar

StartChar: yen
Encoding: 165 165 100
Width: 593
VWidth: 0
Flags: W
HStem: -4 30<58.0308 112.821 251.088 293.422> 108 50<41.4916 145 259 369.508> 206 50<58.4916 164 277 386.508> 610 30<11.953 60.9677 224.779 275.636 373.982 432.268 540.172 598.98>
LayerCount: 2
Fore
SplineSet
43 108 m 16
 40 108 38 113 38 118 c 0
 38 129 46 153 55 158 c 1
 155 158 l 1
 164 206 l 1
 60 206 l 2
 57 206 55 211 55 216 c 0
 55 227 63 251 72 256 c 1
 173 256 l 1
 173 259 177 270 177 278 c 0
 177 281 176 285 175 289 c 2
 103 528 l 2
 92 564 79 582 63 594 c 0
 49 604 25 610 14 610 c 0
 12 610 11 615 11 618 c 0
 11 625 15 637 19 640 c 1
 63 638 96 635 141 635 c 0
 186 635 240 638 277 640 c 1
 277 639 277 638 277 636 c 0
 277 628 273 610 269 610 c 0
 260 610 215 604 215 576 c 0
 215 572 217 563 220 554 c 2
 276 376 l 2
 277 374 278 373 279 373 c 0
 281 373 285 376 286 378 c 2
 286 378 438 560 438 584 c 0
 438 602 399 610 375 610 c 0
 373 610 373 612 373 616 c 0
 373 624 376 637 380 640 c 1
 414 638 453 635 487 635 c 0
 534 635 564 638 601 640 c 1
 601 630 600 611 595 611 c 0
 588 611 531 597 513 579 c 0
 501 567 288 312 281 276 c 2
 277 256 l 1
 386 256 l 2
 389 256 390 251 390 246 c 0
 390 235 382 211 373 206 c 1
 268 206 l 1
 259 158 l 1
 369 158 l 2
 372 158 373 153 373 148 c 0
 373 137 365 113 356 108 c 1
 249 108 l 1
 245 87 243 76 243 53 c 0
 243 36 289 26 293 26 c 1
 294 26 295 25 295 22 c 0
 295 15 291 0 289 -4 c 1
 253 -2 223 2 183 2 c 0
 141 2 101 -2 59 -4 c 1
 58 -3 57 0 57 3 c 0
 57 12 62 26 65 26 c 0
 76 26 117 38 125 50 c 0
 133 64 140 83 145 108 c 9
 105 108 83 108 43 108 c 16
EndSplineSet
Validated: 1
EndChar

StartChar: brokenbar
Encoding: 166 166 101
Width: 229
VWidth: 512
Flags: W
VStem: -7 240
LayerCount: 2
Fore
SplineSet
162 753 m 1
 176 766 198 770 214 770 c 1
 221 770 234 768 233 762 c 2
 163 399 l 1
 154 391 125 380 104 380 c 1
 97 380 91 385 92 390 c 2
 92 390 127 583 162 753 c 1
64 248 m 1
 78 261 100 266 116 266 c 1
 123 266 136 263 135 257 c 2
 65 -106 l 1
 56 -114 27 -124 6 -124 c 1
 -1 -124 -8 -120 -7 -115 c 2
 -7 -115 29 78 64 248 c 1
EndSplineSet
Validated: 1
EndChar

StartChar: section
Encoding: 167 167 102
Width: 386
VWidth: 512
Flags: W
HStem: -52 47<78 188.948> 604 48<202.851 313.049>
VStem: 37 64<237 389.667> 122 56<476.957 567.469> 212 57<29.6204 123.409> 290 64<215.429 366.5>
LayerCount: 2
Fore
SplineSet
289 652 m 0
 337 652 360 629 366 614 c 1
 364 595 359 549 323 549 c 0
 295 549 294 604 251 604 c 0
 213 604 178 578 178 530 c 0
 178 433 354 429 354 304 c 0
 354 220 296 157 267 136 c 1
 268 131 269 125 269 118 c 0
 269 24 203 -52 102 -52 c 0
 54 -52 30 -31 24 -16 c 1
 26 6 38 50 67 50 c 0
 99 50 98 -5 141 -5 c 0
 174 -5 212 22 212 69 c 0
 212 168 37 174 37 300 c 0
 37 356 64 422 123 464 c 1
 122 469 122 474 122 480 c 0
 122 577 190 652 289 652 c 0
101 357 m 0
 101 266 227 263 259 172 c 1
 277 186 290 203 290 240 c 0
 290 330 165 339 133 426 c 1
 118 414 101 391 101 357 c 0
EndSplineSet
Validated: 1
EndChar

StartChar: dieresis
Encoding: 168 168 103
Width: 367
VWidth: 0
Flags: W
HStem: 468 125<58.75 132.323 248.75 322.323>
VStem: 41 110<486.869 575.989> 231 110<486.869 575.989>
LayerCount: 2
Fore
SplineSet
295 593 m 27
 322 593 341 566 341 539 c 27
 341 501 311 468 273 468 c 27
 247 468 231 495 231 521 c 27
 231 559 257 593 295 593 c 27
105 593 m 27
 132 593 151 566 151 539 c 27
 151 501 121 468 83 468 c 27
 57 468 41 495 41 521 c 27
 41 559 67 593 105 593 c 27
EndSplineSet
Validated: 1
EndChar

StartChar: copyright
Encoding: 169 169 104
Width: 567
Flags: W
HStem: 69 44<155.953 332.148> 199 30<240.031 330.968> 451 30<271.756 378.733> 569 46<236.974 413.169>
VStem: 26 42<205.712 390.095> 154 65<242.526 390.816> 376 20<397.062 426.795> 501 44<289.388 479.584>
LayerCount: 2
Fore
SplineSet
313 481 m 0
 339 481 375 476 400 469 c 0
 401 469 401 466 401 462 c 0
 401 445 397 404 396 401 c 0
 395 397 391 397 388 397 c 27
 383 397 379 398 376 399 c 1
 375 415 364 451 309 451 c 0
 253 451 219 368 219 305 c 0
 219 263 236 229 278 229 c 0
 304 229 319 234 331 244 c 0
 345 256 356 271 357 272 c 0
 358 272 360 273 361 273 c 3
 365 273 371 272 373 268 c 1
 372 263 357 225 346 219 c 0
 320 205 290 199 254 199 c 0
 194 199 154 248 154 309 c 0
 154 388 222 481 313 481 c 0
329 569 m 4
 196 569 68 438 68 295 c 4
 68 191 138 113 240 113 c 4
 373 113 501 244 501 388 c 4
 501 492 431 569 329 569 c 4
338 615 m 4
 460 615 545 522 545 398 c 4
 545 225 390 69 231 69 c 4
 109 69 26 162 26 286 c 4
 26 459 179 615 338 615 c 4
EndSplineSet
Validated: 1
EndChar

StartChar: ordfeminine
Encoding: 170 170 105
Width: 348
VWidth: 0
Flags: W
HStem: 248 46<69.5 145.372 228 287.879> 521 34<185.043 246>
VStem: 27 73<294.673 402.551> 199 61<299.004 326>
LayerCount: 2
Fore
SplineSet
232 555 m 0
 260 555 295 548 301 543 c 9
 263 342 l 2
 261 332 260 323 260 320 c 0
 260 304 267 299 275 299 c 0
 288 299 311 343 314 343 c 0
 317 343 326 334 328 326 c 1
 321 309 286 249 241 249 c 3
 215 249 202 264 198 293 c 0
 197 304 199 320 199 324 c 0
 199 325 199 326 199 326 c 1
 198 326 198 325 197 324 c 0
 181 300 134 248 93 248 c 3
 46 248 27 276 27 320 c 3
 27 418 147 555 232 555 c 0
217 521 m 0
 171 521 100 404 100 338 c 0
 100 321 102 294 124 294 c 3
 153 294 203 369 215 435 c 2
 226 499 l 2
 227 503 228 509 228 511 c 0
 228 515 228 521 217 521 c 0
EndSplineSet
Validated: 1
EndChar

StartChar: guillemotleft
Encoding: 171 171 106
Width: 470
VWidth: 512
Flags: W
LayerCount: 2
Fore
SplineSet
436 423 m 1
 440 422 459 414 459 403 c 0
 459 397 461 395 382 328 c 1
 369 317 302 258 291 248 c 1
 349 167 l 1
 381 125 399 105 399 95 c 0
 399 82 371 74 367 73 c 1
 361 81 301 149 201 227 c 0
 198 228 196 232 196 237 c 0
 196 246 201 260 209 268 c 1
 337 341 428 416 436 423 c 1
261 423 m 1
 271 420 283 410 283 403 c 0
 283 397 285 395 206 328 c 1
 193 317 126 258 115 248 c 1
 173 167 l 1
 205 125 223 106 223 96 c 0
 223 83 194 74 191 73 c 1
 185 81 125 149 25 227 c 0
 22 229 20 232 20 237 c 0
 20 244 24 259 33 268 c 1
 163 342 257 419 261 423 c 1
EndSplineSet
Validated: 33
EndChar

StartChar: logicalnot
Encoding: 172 172 107
Width: 510
VWidth: 512
Flags: W
HStem: 360 64<37.125 404.998>
LayerCount: 2
Fore
SplineSet
52 424 m 2
 52 424 399 424 468 424 c 1
 474 424 479 422 477 412 c 2
 430 166 l 1
 422 161 402 156 383 156 c 27
 376 156 367 159 368 165 c 1
 373 191 404 350 404 350 c 2
 405 351 l 3
 405 355 402 360 396 360 c 2
 32 360 l 1
 32 360 28 366 29 374 c 1
 29 382 43 424 52 424 c 2
EndSplineSet
Validated: 1
EndChar

StartChar: registered
Encoding: 174 174 108
Width: 566
Flags: W
HStem: 136 44<161.953 338.148> 272 14<146.936 168.628 241.334 258.464 391.369 408.816> 403 24<262.182 277.923> 530 24<265.582 329.702> 540 14<198.244 218.101> 636 46<242.974 419.169>
VStem: 32 42<272.712 457.095> 336 56<438.763 528.27> 507 44<356.388 546.584>
LayerCount: 2
Fore
SplineSet
335 636 m 0xe780
 202 636 74 505 74 362 c 0
 74 258 144 180 246 180 c 0
 379 180 507 311 507 455 c 0
 507 559 437 636 335 636 c 0xe780
344 682 m 0
 466 682 551 589 551 465 c 0
 551 292 396 136 237 136 c 0
 115 136 32 229 32 353 c 0
 32 526 185 682 344 682 c 0
303 530 m 3xf780
 296 530 290 530 285 528 c 0
 281 527 279 524 278 519 c 26
 263 442 l 2
 262 440 262 437 262 436 c 3
 262 426 278 427 288 427 c 3
 320 427 336 463 336 493 c 3
 336 521 322 530 303 530 c 3xf780
315 554 m 1
 349 554 392 538 392 495 c 1
 392 457 364 425 332 410 c 0
 331 409 330 408 330 407 c 3
 330 406 330 406 330 405 c 0
 335 387 347 359 359 337 c 0
 377 303 390 287 410 287 c 1
 410 282 408 276 407 274 c 1
 404 272 398 272 392 272 c 1
 334 272 318 298 300 337 c 0
 288 364 283 380 276 396 c 0
 274 402 269 403 263 403 c 0
 257 403 255 401 254 396 c 9
 251 381 238 314 238 314 c 2
 237 311 237 306 237 302 c 3
 237 300 238 295 240 294 c 0
 247 288 256 286 258 286 c 0
 259 286 259 285 259 284 c 3
 259 280 258 276 256 272 c 1
 239 273 223 276 204 276 c 1
 184 276 166 273 146 272 c 1
 145 274 146 277 146 280 c 1
 146 282 147 285 148 286 c 1
 154 287 171 292 175 298 c 0
 179 306 183 321 185 331 c 2
 216 498 l 2
 218 507 221 518 221 528 c 0
 221 535 205 540 199 540 c 1
 198 540 198 543 198 544 c 1
 198 547 199 552 200 554 c 1xef80
 217 553 234 552 252 552 c 1
 277 552 290 554 315 554 c 1
EndSplineSet
Validated: 1
EndChar

StartChar: macron
Encoding: 175 175 109
Width: 321
Flags: W
HStem: 534 63<53.5618 283.279>
VStem: 48 242<534.393 596.613>
LayerCount: 2
Fore
SplineSet
68 597 m 9
 284 597 l 2
 288 597 290 589 290 582 c 0
 290 575 281 542 269 534 c 1
 186 534 55 534 55 534 c 2
 50 534 48 545 48 553 c 0
 48 565 58 589 68 597 c 9
EndSplineSet
Validated: 1
EndChar

StartChar: degree
Encoding: 176 176 110
Width: 249
VWidth: 512
Flags: W
HStem: 437 41<86.3296 165.82> 594 40<101.095 180.145>
VStem: 40 40<484.849 572.719> 187 40<499.408 588.233>
LayerCount: 2
Fore
SplineSet
145 594 m 0
 109 594 80 560 80 524 c 0
 80 499 95 478 123 478 c 0
 159 478 187 513 187 548 c 0
 187 573 173 594 145 594 c 0
153 634 m 0
 197 634 227 600 227 555 c 0
 227 493 170 437 115 437 c 0
 71 437 40 472 40 517 c 0
 40 582 100 634 153 634 c 0
EndSplineSet
Validated: 1
EndChar

StartChar: plusminus
Encoding: 177 177 111
Width: 508
VWidth: 512
Flags: W
LayerCount: 2
Fore
SplineSet
19 102 m 1
 72 102 446 102 446 102 c 2
 449 102 450 94 450 88 c 3
 450 74 440 52 427 38 c 1
 -1 38 l 2
 -4 38 -5 45 -5 51 c 3
 -5 65 7 88 19 102 c 1
77 404 m 1
 130 404 182 404 249 404 c 16
 252 404 253 406 253 408 c 0
 265 468 272 522 286 592 c 0
 289 606 346 610 350 610 c 0
 359 610 361 606 360 602 c 2
 360 602 337 472 325 410 c 0
 324 407 325 404 328 404 c 8
 397 404 505 404 505 404 c 2
 508 404 509 397 509 391 c 3
 509 377 498 354 485 340 c 1
 485 340 380 340 313 340 c 16
 310 340 309 338 309 336 c 0
 296 264 274 152 274 152 c 2
 272 141 234 134 216 134 c 0
 205 134 200 140 201 144 c 2
 201 144 226 280 237 336 c 0
 237 338 238 340 233 340 c 8
 165 340 58 340 58 340 c 2
 55 340 53 348 53 354 c 3
 53 368 65 390 77 404 c 1
19 102 m 1
 7 88 -5 65 -5 51 c 3
 -5 45 -4 38 -1 38 c 2
 427 38 l 1
 440 52 450 74 450 88 c 3
 450 94 449 102 446 102 c 2
 446 102 72 102 19 102 c 1
77 404 m 1
 65 390 53 368 53 354 c 3
 53 348 55 340 58 340 c 2
 58 340 165 340 233 340 c 16
 238 340 237 338 237 336 c 0
 226 280 201 144 201 144 c 2
 200 140 205 134 216 134 c 0
 234 134 272 141 274 152 c 2
 274 152 296 264 309 336 c 0
 309 338 310 340 313 340 c 8
 380 340 485 340 485 340 c 1
 498 354 509 377 509 391 c 3
 509 397 508 404 505 404 c 2
 505 404 397 404 328 404 c 16
 325 404 324 407 325 410 c 0
 337 472 360 602 360 602 c 2
 361 606 359 610 350 610 c 0
 346 610 289 606 286 592 c 0
 272 522 265 468 253 408 c 0
 253 406 252 404 249 404 c 8
 182 404 130 404 77 404 c 1
EndSplineSet
Validated: 5
EndChar

StartChar: uni00B2
Encoding: 178 178 112
Width: 316
VWidth: 512
Flags: W
HStem: 254 60<94 251.75> 590 56<139.954 238.5>
VStem: 216 79<487.776 585.826>
LayerCount: 2
Fore
SplineSet
213 646 m 1
 264 646 295 611 295 562 c 0
 295 445 121 342 95 318 c 0
 94 317 94 316 94 315 c 1
 94 314 94 314 95 314 c 2
 211 314 l 2
 252 314 259 358 270 358 c 0
 274 358 284 355 286 353 c 1
 278 339 249 270 243 254 c 1
 140 254 l 1
 140 254 21 254 19 254 c 1
 16 257 13 265 13 274 c 0
 13 278 15 283 17 288 c 1
 135 397 216 487 216 542 c 0
 216 565 205 590 175 590 c 1
 143 590 98 546 92 546 c 0
 89 546 82 560 82 567 c 0
 82 572 83 576 85 579 c 0
 96 597 155 646 213 646 c 1
EndSplineSet
Validated: 1
EndChar

StartChar: uni00B3
Encoding: 179 179 113
Width: 294
VWidth: 512
Flags: W
HStem: 246 36<75.9838 153.173> 439 30<102.003 140.395> 596 50<136.471 226.5>
VStem: 196 75<332.294 434.576> 205 73<528.45 593.952>
LayerCount: 2
Fore
SplineSet
106 282 m 1xf0
 163 282 196 345 196 391 c 0xf0
 196 427 175 442 141 442 c 1
 128 442 121 441 106 439 c 1
 104 443 102 450 102 454 c 0
 102 458 106 467 110 469 c 1
 194 487 205 545 205 563 c 0
 205 584 189 596 172 596 c 1
 137 596 110 559 100 559 c 0
 92 559 87 583 90 586 c 0
 117 618 167 646 214 646 c 1
 239 646 278 628 278 586 c 0xe8
 278 535 228 496 194 478 c 1
 216 478 271 456 271 401 c 0
 271 328 191 246 80 246 c 1
 53 246 13 257 11 273 c 1
 11 293 30 316 50 316 c 1
 76 316 76 282 106 282 c 1xf0
EndSplineSet
Validated: 1
EndChar

StartChar: acute
Encoding: 180 180 114
Width: 239
VWidth: 512
Flags: W
HStem: 524 162
VStem: 41 182
LayerCount: 2
Fore
SplineSet
188 686 m 0
 216 686 223 673 223 664 c 0
 223 628 62 524 52 524 c 0
 46 524 41 536 41 541 c 0
 41 550 123 651 147 674 c 0
 157 683 173 686 188 686 c 0
EndSplineSet
Validated: 1
EndChar

StartChar: paragraph
Encoding: 182 182 116
Width: 389
VWidth: 512
Flags: W
HStem: -1 46<132.957 158.808> 284 46<186.325 214.67> 305 39<279.125 303> 608 40<239.1 275.995>
LayerCount: 2
Fore
SplineSet
175 274 m 2xd0
 133 53 l 1
 132 49 137 45 141 45 c 1
 145 41 155 44 159 47 c 0
 168 64 180 104 191 160 c 0
 196 178 206 231 215 284 c 0
 213 286 206 285 201 284 c 0
 197 284 176 279 175 274 c 2xd0
183 652 m 0
 238 652 230 648 285 648 c 0
 347 648 395 654 395 654 c 1
 397 651 393 636 391 634 c 0
 385 630 366 620 360 614 c 0
 353 610 327 584 319 552 c 0
 309 514 281 358 279 348 c 0
 279 345 279 344 281 344 c 1
 289 346 303 349 303 349 c 1
 303 347 323 346 323 344 c 1
 323 338 320 331 312 325 c 0
 308 315 297 308 287 305 c 1xb0
 286 305 272 301 272 300 c 1
 268 285 249 192 249 178 c 1
 247 158 244 54 250 38 c 0
 251 30 277 23 279 20 c 0
 279 17 277 9 276 7 c 1
 247 5 231 1 199 -1 c 1
 149 0 115 0 67 -1 c 1
 45 2 31 13 15 12 c 1
 19 12 39 18 41 24 c 1
 45 36 53 73 61 103 c 1
 65 103 96 144 98 150 c 1
 106 170 119 272 115 274 c 0
 61 276 37 321 41 376 c 0
 9 448 99 652 183 652 c 0
239 596 m 1
 238 591 196 390 186 334 c 0
 186 332 189 330 193 330 c 0xd0
 205 330 219 333 222 335 c 1
 225 336 228 338 229 342 c 0
 243 414 275 588 276 598 c 0
 276 602 269 608 260 608 c 0
 251 608 241 607 239 596 c 1
EndSplineSet
Validated: 37
EndChar

StartChar: periodcentered
Encoding: 183 183 117
Width: 197
VWidth: 512
Flags: W
HStem: 196 134<56.1099 128.284>
VStem: 31 125<223.79 304.008>
LayerCount: 2
Fore
SplineSet
31 251 m 0
 31 293 69 330 107 330 c 1
 136 330 156 307 156 278 c 0
 156 237 118 196 81 196 c 1
 51 196 31 221 31 251 c 0
EndSplineSet
Validated: 1
EndChar

StartChar: cedilla
Encoding: 184 184 118
Width: 245
VWidth: 512
Flags: W
HStem: -168 31<61.1099 134.127> -70 67<109.723 130.656>
VStem: 145 49<-127.261 -70.3844>
LayerCount: 2
Fore
SplineSet
125 -3 m 5
 152 -3 l 5
 131 -30 l 5
 131 -30 149 -29 153 -29 c 5
 178 -29 194 -49 194 -73 c 4
 194 -105 162 -168 78 -168 c 5
 61 -168 43 -163 37 -159 c 5
 35 -153 35 -148 35 -142 c 5
 35 -127 47 -120 53 -120 c 5
 68 -120 76 -137 95 -137 c 5
 126 -137 145 -117 145 -95 c 4
 145 -79 134 -70 122 -70 c 4
 113 -70 103 -73 92 -77 c 4
 90 -77 81 -66 83 -62 c 4
 89 -51 108 -28 125 -3 c 5
EndSplineSet
Validated: 1
EndChar

StartChar: uni00B9
Encoding: 185 185 119
Width: 252
VWidth: 512
Flags: W
HStem: 252 27<15.0193 71.0543 169.84 211.977>
VStem: 15 218
LayerCount: 2
Fore
SplineSet
56 573 m 0
 132 608 218 650 224 650 c 0
 229 650 233 631 233 628 c 1
 231 622 215 585 207 546 c 2
 167 336 l 2
 165 326 163 318 163 311 c 0
 163 304 165 298 168 294 c 0
 174 286 205 280 211 280 c 0
 212 280 213 277 213 274 c 3
 213 267 210 255 207 252 c 1
 177 253 145 256 115 256 c 0
 85 256 45 253 15 252 c 1
 14 253 14 255 14 257 c 0
 14 265 18 279 21 279 c 0
 30 279 67 286 73 294 c 0
 79 302 86 318 89 335 c 2
 125 521 l 2
 127 535 129 545 129 552 c 0
 129 562 125 564 119 564 c 0
 111 564 80 552 61 545 c 1
 57 546 52 556 52 562 c 1
 52 566 52 571 56 573 c 0
EndSplineSet
Validated: 1
EndChar

StartChar: ordmasculine
Encoding: 186 186 120
Width: 314
VWidth: 512
Flags: W
HStem: 248 35<114.948 172.373> 520 35<155.931 212.783>
VStem: 29 73<291.324 448.324> 225 74<349.482 512.148>
LayerCount: 2
Fore
SplineSet
186 520 m 1
 152 520 102 445 102 367 c 0
 102 325 111 283 142 283 c 1
 176 283 225 363 225 437 c 0
 225 479 217 520 186 520 c 1
200 555 m 3
 256 555 299 500 299 443 c 3
 299 343 226 248 128 248 c 3
 71 248 29 304 29 362 c 3
 29 462 116 555 200 555 c 3
EndSplineSet
Validated: 1
EndChar

StartChar: guillemotright
Encoding: 187 187 121
Width: 470
VWidth: 512
Flags: W
LayerCount: 2
Fore
SplineSet
98 423 m 1
 108 409 180 332 265 268 c 1
 267 264 269 260 269 254 c 0
 269 243 264 231 257 228 c 1
 110 140 31 74 31 73 c 1
 27 74 8 82 8 92 c 0
 8 100 11 103 85 167 c 1
 175 248 l 1
 115 329 l 1
 81 373 67 391 67 399 c 0
 67 414 93 421 98 423 c 1
274 423 m 1
 282 412 354 333 441 268 c 1
 444 264 445 261 445 255 c 0
 445 245 440 231 432 228 c 1
 290 142 207 74 207 73 c 1
 203 74 184 82 184 92 c 0
 184 100 187 103 261 167 c 1
 351 248 l 1
 292 329 l 1
 252 380 243 392 243 399 c 0
 243 414 270 422 274 423 c 1
EndSplineSet
Validated: 1
EndChar

StartChar: onequarter
Encoding: 188 188 122
Width: 603
VWidth: 512
Flags: W
HStem: -4 11G<123.5 142.5 456 477> 108 50<369.001 449.999 537.594 565.597> 252 27<6.78735 62.0543 160.84 203.977>
LayerCount: 2
Fore
SplineSet
48 573 m 0
 124 608 210 650 216 650 c 0
 221 650 225 631 225 628 c 1
 223 622 206 585 198 546 c 2
 158 336 l 2
 156 326 155 318 155 311 c 0
 155 304 156 298 159 294 c 0
 165 286 196 280 202 280 c 0
 203 280 205 277 205 274 c 3
 205 267 202 255 199 252 c 1
 169 253 136 256 106 256 c 0
 76 256 36 253 6 252 c 1
 5 253 6 255 6 257 c 0
 6 265 9 279 12 279 c 0
 21 279 58 286 64 294 c 0
 70 302 77 318 80 335 c 2
 116 521 l 2
 118 535 120 545 120 552 c 0
 120 562 117 564 111 564 c 0
 103 564 72 552 53 545 c 1
 49 546 43 556 43 562 c 1
 43 566 44 571 48 573 c 0
571 617 m 2
 571 617 159 33 126 -14 c 1
 121 -14 91 -6 91 5 c 0
 91 7 91 9 93 11 c 26
 538 643 l 1
 542 644 572 634 572 623 c 0
 572 621 572 618 571 617 c 2
543 389 m 1
 548 394 554 397 560 397 c 0
 566 397 581 397 580 390 c 2
 534 161 l 2
 534 160 l 3
 534 158 536 158 538 158 c 2
 560 158 l 2
 566 158 567 151 567 145 c 0
 567 127 561 112 556 108 c 1
 551 108 528 108 528 108 c 2
 526 108 525 105 524 102 c 2
 503 1 l 1
 501 0 486 -4 468 -4 c 0
 444 -4 429 1 430 4 c 2
 449 104 l 2
 450 105 l 3
 450 107 448 108 446 108 c 2
 304 108 l 1
 300 112 297 120 298 132 c 1
 342 177 506 351 543 389 c 1
372 158 m 2
 454 158 l 2
 456 158 459 158 460 162 c 2
 484 276 l 2
 484 278 483 282 482 282 c 1
 480 281 l 2
 370 165 l 2
 369 164 369 163 369 162 c 1
 369 160 370 158 372 158 c 2
EndSplineSet
Validated: 33
EndChar

StartChar: onehalf
Encoding: 189 189 123
Width: 662
VWidth: 512
Flags: W
HStem: -14 21G<123.5 142.5> 0 59<437.001 595.125> 252 27<6.78735 62.0543 160.84 203.977> 337 56<483.294 581.5>
VStem: 560 79<234.276 331.452>
LayerCount: 2
Fore
SplineSet
556 393 m 1x78
 607 393 639 358 639 309 c 0
 639 192 465 89 439 65 c 0
 438 64 437 62 437 61 c 1
 437 60 438 59 439 59 c 2
 555 59 l 2
 596 59 602 104 613 104 c 0
 617 104 628 103 630 100 c 1
 622 86 593 16 587 0 c 1
 483 1 l 1
 483 1 365 0 363 0 c 1
 360 3 356 12 356 21 c 0
 356 25 358 29 360 34 c 1
 478 143 560 233 560 288 c 0
 560 311 548 337 518 337 c 1
 486 337 442 292 436 292 c 0
 433 292 426 307 426 314 c 0
 426 319 427 323 429 326 c 0
 440 344 498 393 556 393 c 1x78
48 573 m 0
 124 608 210 650 216 650 c 0
 221 650 225 631 225 628 c 1
 223 622 206 585 198 546 c 2
 158 336 l 2
 156 326 155 318 155 311 c 0
 155 304 156 298 159 294 c 0
 165 286 196 280 202 280 c 0
 203 280 205 277 205 274 c 3
 205 267 202 255 199 252 c 1
 169 253 136 256 106 256 c 0
 76 256 36 253 6 252 c 1
 5 253 6 255 6 257 c 0
 6 265 9 279 12 279 c 0
 21 279 58 286 64 294 c 0
 70 302 77 318 80 335 c 2
 116 521 l 2
 118 535 120 545 120 552 c 0
 120 562 117 564 111 564 c 0
 103 564 72 552 53 545 c 1
 49 546 43 556 43 562 c 1
 43 566 44 571 48 573 c 0
571 617 m 2
 571 617 159 33 126 -14 c 1xb8
 121 -14 91 -6 91 5 c 0
 91 7 91 9 93 11 c 26
 538 643 l 1
 542 644 572 634 572 623 c 0
 572 621 572 618 571 617 c 2
EndSplineSet
Validated: 33
EndChar

StartChar: threequarters
Encoding: 190 190 124
Width: 618
VWidth: 512
Flags: W
HStem: -4 11G<138.5 157.5 471 492> 108 50<384.001 464.999 552.594 580.597> 246 36<69.7221 147.173> 439 30<96.0029 134.395> 596 50<130.471 220.5>
VStem: 190 75<332.294 434.576> 199 73<528.45 593.952>
LayerCount: 2
Fore
SplineSet
100 282 m 1xfc
 157 282 190 345 190 391 c 0xfc
 190 427 169 442 135 442 c 1
 122 442 115 441 100 439 c 1
 98 443 96 450 96 454 c 0
 96 458 100 467 104 469 c 1
 188 487 199 545 199 563 c 0
 199 584 183 596 166 596 c 1
 131 596 104 559 94 559 c 0
 86 559 82 583 84 586 c 0
 111 618 161 646 208 646 c 1
 233 646 272 628 272 586 c 0xfa
 272 535 222 496 188 478 c 1
 210 478 265 456 265 401 c 0
 265 328 185 246 74 246 c 1
 47 246 7 257 5 273 c 1
 5 293 23 316 43 316 c 1
 69 316 70 282 100 282 c 1xfc
586 617 m 2
 586 617 174 33 141 -14 c 1
 136 -14 106 -6 106 5 c 0
 106 7 106 9 108 11 c 26
 553 643 l 1
 557 644 587 634 587 623 c 0
 587 621 587 618 586 617 c 2
558 389 m 1
 563 394 569 397 575 397 c 0
 581 397 596 397 595 390 c 2
 549 161 l 2
 549 160 l 3
 549 158 551 158 553 158 c 2
 575 158 l 2
 581 158 582 151 582 145 c 0
 582 127 576 112 571 108 c 1
 566 108 543 108 543 108 c 2
 541 108 540 105 539 102 c 2
 518 1 l 1
 516 0 501 -4 483 -4 c 0
 459 -4 444 1 445 4 c 2
 464 104 l 2
 465 105 l 3
 465 107 463 108 461 108 c 2
 319 108 l 1
 315 112 312 120 313 132 c 1
 357 177 521 351 558 389 c 1
387 158 m 2
 469 158 l 2
 471 158 474 158 475 162 c 2
 499 276 l 2
 499 278 498 282 497 282 c 1
 495 281 l 2
 385 165 l 2
 384 164 384 163 384 162 c 1
 384 160 385 158 387 158 c 2
EndSplineSet
Validated: 33
EndChar

StartChar: questiondown
Encoding: 191 191 125
Width: 334
VWidth: 512
Flags: W
HStem: -209 66<75.5079 179.28> 309 133<218.326 292.059>
VStem: 2 63<-134.113 -39.4544> 192 125<333.738 415.402> 207 75<121.787 191.008>
LayerCount: 2
Fore
SplineSet
317 388 m 0xf0
 317 345 280 309 243 309 c 0
 213 309 192 331 192 361 c 0
 192 403 230 442 267 442 c 0
 295 442 317 419 317 388 c 0xf0
163 224 m 3
 163 230 170 239 175 242 c 1
 199 242 282 196 282 140 c 3xe8
 282 88 250 59 227 46 c 0
 169 12 161 8 117 -18 c 0
 91 -32 65 -53 65 -86 c 3
 65 -118 83 -143 120 -143 c 0
 154 -143 162 -96 192 -96 c 0xf0
 225 -96 239 -131 233 -164 c 1
 225 -179 202 -209 155 -209 c 0
 72 -209 2 -147 2 -72 c 0
 2 -17 26 26 61 48 c 0
 101 75 135 93 171 113 c 0
 193 125 207 140 207 164 c 3xe8
 207 194 163 214 163 224 c 3
EndSplineSet
Validated: 33
EndChar

StartChar: AE
Encoding: 198 198 132
Width: 873
VWidth: 512
Flags: W
HStem: -4 30<-12.3555 44.9694 153.366 201.571 355.172 404.467> 2 47<548.613 742.677> 252 54<330.999 452.043> 300 50<574.5 707.509> 613 44<600.808 795.017> 624 34<457.251 488.831>
VStem: 727 31<224.121 286.686> 827 32<518.218 573.604>
LayerCount: 2
Fore
SplineSet
553 657 m 1x0b
 639 657 764 664 865 664 c 1
 863 617 860 567 859 523 c 1
 856 520 846 518 839 518 c 0
 833 518 827 520 827 525 c 0
 821 593 771 613 730 613 c 2
 675 613 l 2
 637 613 607 612 603 600 c 0
 596 577 592 543 589 512 c 2
 573 358 l 2
 573 357 l 1
 573 350 590 350 609 350 c 2
 650 350 l 2
 720 350 721 348 747 416 c 0
 749 421 757 423 763 423 c 0
 770 423 778 421 780 418 c 1
 772 386 760 260 758 228 c 1
 756 226 746 224 740 224 c 0
 734 224 728 226 727 231 c 0
 721 288 716 286 708 292 c 0
 698 299 657 300 622 300 c 0
 596 300 568 299 567 290 c 2
 553 148 l 2
 552 138 547 80 549 66 c 0
 550 55 564 49 611 49 c 2
 611 49 629 49 631 49 c 2
 673 49 716 58 744 72 c 0
 764 82 792 117 815 166 c 0
 817 170 823 172 830 172 c 0
 839 172 852 169 854 166 c 1
 828 112 795 41 780 -3 c 1
 679 -3 570 2 485 2 c 0x5b
 428 2 357 -4 357 -4 c 1
 356 -2 355 2 355 8 c 0
 355 17 360 32 363 32 c 0
 374 32 419 42 425 52 c 0
 434 71 438 97 442 134 c 0
 446 172 448 201 452 246 c 0
 453 250 449 252 446 252 c 0
 416 254 381 254 369 254 c 0
 350 254 319 253 289 252 c 0
 286 252 283 250 281 248 c 1
 259 217 206 146 193 131 c 1
 165 93 145 69 145 55 c 0
 145 46 150 43 155 40 c 0
 168 33 196 27 203 27 c 0
 204 27 204 26 204 24 c 1
 204 17 199 1 196 -4 c 1xa3
 159 -2 140 2 99 2 c 0x43
 56 2 32 -2 -11 -4 c 1
 -12 -2 -13 2 -13 6 c 0
 -13 13 -8 26 -5 26 c 0
 6 26 47 36 67 56 c 0
 92 81 111 105 135 136 c 1
 449 540 l 2
 474 568 488 592 489 600 c 0
 491 619 475 624 461 624 c 0
 457 624 456 628 456 632 c 0
 456 640 461 656 464 658 c 1x87
 466 658 522 657 553 657 c 1x0b
483 508 m 1
 483 508 357 349 331 312 c 1
 331 311 329 308 331 308 c 0
 349 306 374 306 392 306 c 0x23
 416 306 431 306 456 308 c 1
 457 308 461 311 461 313 c 1
 465 344 483 508 483 508 c 1
EndSplineSet
Validated: 33
EndChar

StartChar: Eth
Encoding: 208 208 142
Width: 690
VWidth: 512
Flags: W
HStem: -3 51<157.258 389.731> 2 30<-2.51055 60.6095> 298 68<55 121 239 352> 608 50<290.392 478.576> 628 34<121.073 167.055>
VStem: 174 498<404 603>
LayerCount: 2
Fore
SplineSet
403 608 m 0xb4
 385 608 308 607 295 592 c 0
 280 573 274 548 270 522 c 2
 239 366 l 1
 354 366 l 2
 360 366 360 357 360 351 c 0
 360 333 346 304 338 298 c 1
 226 298 l 1
 196 138 l 2
 191 114 186 70 192 64 c 0
 204 49 287 48 302 48 c 0
 440 48 532 187 552 377 c 0
 565 501 523 608 403 608 c 0xb4
407 658 m 0
 591 658 672 540 672 404 c 0
 672 228 533 -3 277 -3 c 0xb4
 236 -3 181 2 119 2 c 0
 57 2 -2 -4 -2 -4 c 1
 -3 -3 -4 2 -4 6 c 0
 -4 15 1 32 4 32 c 0
 15 32 60 40 66 52 c 0
 76 74 85 111 90 138 c 2
 121 298 l 1
 53 298 l 2
 47 298 47 306 47 312 c 0
 47 330 61 360 69 366 c 1
 134 366 l 1
 164 518 l 2
 169 543 176 581 174 603 c 0
 172 615 131 628 120 628 c 0
 119 628 119 628 119 632 c 0
 119 641 124 658 128 662 c 1x6c
 128 662 182 658 244 658 c 0
 276 658 387 658 407 658 c 0
EndSplineSet
Validated: 33
EndChar

StartChar: multiply
Encoding: 215 215 149
Width: 410
Flags: W
VStem: 171 87<226.125 267.625>
LayerCount: 2
Fore
SplineSet
38 57 m 0
 30 57 16 92 16 108 c 1
 169 243 l 2
 170 244 171 245 171 246 c 0
 171 248 170 250 169 251 c 2
 71 384 l 1
 71 398 107 436 113 436 c 0
 117 436 118 434 120 432 c 2
 221 296 l 2
 222 295 224 294 225 294 c 0
 225 294 226 294 227 295 c 24
 287 349 381 432 381 432 c 2
 383 434 385 436 387 436 c 0
 394 436 409 401 409 383 c 1
 259 249 l 2
 258 248 258 247 258 246 c 3
 258 245 258 245 259 244 c 2
 356 110 l 1
 356 96 322 58 315 58 c 0
 311 58 310 60 309 62 c 2
 209 198 l 2
 208 199 206 200 205 200 c 0
 204 200 202 199 201 198 c 2
 45 60 l 2
 43 58 41 57 38 57 c 0
EndSplineSet
Validated: 1
EndChar

StartChar: Oslash
Encoding: 216 216 150
Width: 656
VWidth: 512
Flags: W
HStem: -10 50<217.234 363.518> 618 49<301.994 448.921>
VStem: 26 118<139.291 383.921> 520 118<276.931 516.75>
LayerCount: 2
Fore
SplineSet
374 618 m 0
 247 618 144 447 144 252 c 0
 144 207 152 166 167 132 c 1
 475 571 l 1
 452 600 419 618 374 618 c 0
398 667 m 0
 443 667 484 655 519 634 c 1
 543 668 l 1
 547 669 577 658 577 647 c 0
 577 645 577 643 576 641 c 2
 553 608 l 1
 606 560 638 487 638 404 c 0
 638 188 457 -10 264 -10 c 0
 217 -10 176 3 141 25 c 1
 120 -5 l 1
 115 -5 85 2 85 13 c 0
 85 15 86 18 88 20 c 2
 108 50 l 1
 56 98 26 173 26 258 c 0
 26 472 214 667 398 667 c 0
290 40 m 0
 436 40 520 266 520 415 c 0
 520 458 512 498 497 530 c 1
 188 91 l 1
 211 59 244 40 290 40 c 0
EndSplineSet
Validated: 33
EndChar

StartChar: Thorn
Encoding: 222 222 156
Width: 520
VWidth: 512
Flags: W
HStem: -3 30<-6.70337 54.1134 188.25 232.344> 144 46<206.717 337.451> 481 43<266.245 369.391> 632 30<116.838 159.978 301.747 356.59>
LayerCount: 2
Fore
SplineSet
337 524 m 0
 439 524 513 450 503 352 c 0
 493 238 379 144 263 144 c 0
 226 144 209 152 198 152 c 1
 196 152 194 150 193 148 c 0
 192 145 191 139 191 138 c 1
 184 107 181 77 181 52 c 0
 181 37 227 27 231 27 c 1
 233 27 233 21 233 17 c 0
 233 11 229 1 227 -3 c 1
 190 -1 154 3 113 3 c 0
 70 3 37 -1 -6 -3 c 1
 -7 -1 -7 4 -7 8 c 0
 -7 15 -4 27 -1 27 c 0
 10 27 53 32 61 50 c 0
 71 74 80 110 85 138 c 2
 160 520 l 2
 165 546 171 582 169 606 c 1
 167 620 128 632 117 632 c 0
 115 632 116 637 116 641 c 0
 116 647 120 659 123 662 c 1
 165 660 198 657 241 657 c 0
 282 657 319 660 357 662 c 1
 357 660 357 655 357 652 c 0
 357 645 354 632 350 632 c 0
 343 632 294 619 289 608 c 0
 277 581 270 543 266 525 c 0
 266 522 267 520 269 520 c 0
 275 520 304 524 337 524 c 0
319 481 m 0
 275 481 257 479 252 454 c 2
 206 218 l 2
 205 215 207 213 207 209 c 1
 207 193 254 190 282 190 c 0
 338 190 392 259 397 335 c 0
 405 407 387 481 319 481 c 0
EndSplineSet
Validated: 33
EndChar

StartChar: germandbls
Encoding: 223 223 157
Width: 565
VWidth: 512
Flags: W
HStem: -226 47<-32.082 54.3772> -4 46<347.689 420.196> 366 52<115.026 170.999> 649 46<343.477 449.264>
VStem: 306 77<308.453 382.178> 437 88<73.173 173.861>
LayerCount: 2
Fore
SplineSet
411 695 m 1
 485 695 564 655 556 573 c 0
 548 490 483 452 447 430 c 0
 416 411 383 397 383 356 c 1
 383 323 413 298 442 276 c 0
 485 242 525 206 525 148 c 1
 525 75 461 -4 378 -4 c 1
 310 -4 258 22 252 39 c 1
 254 61 262 115 300 115 c 1
 344 115 335 42 382 42 c 1
 430 42 437 105 437 122 c 0
 437 166 396 192 365 220 c 0
 336 247 306 269 306 315 c 0
 306 376 339 396 393 440 c 0
 439 477 458 524 463 569 c 0
 469 623 440 649 386 649 c 1
 320 649 292 515 284 474 c 2
 199 34 l 2
 166 -139 100 -226 -6 -226 c 0
 -58 -226 -86 -202 -92 -185 c 1
 -90 -151 -79 -108 -43 -108 c 0
 -7 -108 -18 -179 24 -179 c 0
 67 -179 86 -75 102 5 c 2
 170 358 l 2
 170 359 171 361 171 362 c 3
 171 364 169 366 167 366 c 2
 105 366 l 2
 102 366 101 371 101 373 c 0
 101 383 128 418 154 418 c 2
 177 418 l 2
 181 418 183 426 184 431 c 0
 210 567 293 695 411 695 c 1
EndSplineSet
Validated: 33
EndChar

StartChar: ae
Encoding: 230 230 164
Width: 577
VWidth: 512
Flags: W
HStem: -6 62<120.519 200.213 368.905 442.184> 202 50<344.182 420.965> 394 49<185.271 284 403.163 509>
VStem: 17 99<62.6446 147.293> 67 87<286.59 354.163> 238 99<149.25 188.757> 266 78<252.045 329.592> 477 92<300.924 393.198>
LayerCount: 2
Fore
SplineSet
453 394 m 1xe3
 419 394 375 354 358 315 c 0
 347 289 344 268 344 256 c 1
 344 254 345 252 349 252 c 0
 403 252 477 296 477 354 c 1
 477 372 473 394 453 394 c 1xe3
477 442 m 0
 541 442 569 394 569 355 c 1
 569 259 403 202 345 202 c 0
 339 202 337 193 337 187 c 0
 337 89 379 56 415 56 c 1
 458 56 501 126 507 126 c 1
 510 125 521 106 521 100 c 1
 515 82 450 -6 377 -6 c 1
 323 -6 281 28 261 68 c 1
 241 32 203 -8 129 -8 c 1
 69 -8 17 27 17 83 c 0xf5
 17 200 170 224 240 243 c 0
 246 245 249 248 251 258 c 2
 263 324 l 2
 265 331 266 341 266 349 c 3
 266 374 251 394 229 394 c 1
 199 394 163 361 154 311 c 0
 150 291 125 280 101 280 c 3
 84 280 67 285 67 306 c 0xeb
 67 359 173 443 262 443 c 3
 306 443 335 426 347 393 c 1
 386 425 433 442 477 442 c 0
227 128 m 2
 238 189 l 1
 150 171 116 141 116 99 c 0
 116 71 134 59 157 59 c 3
 194 59 221 97 227 128 c 2
EndSplineSet
Validated: 1
EndChar

StartChar: eth
Encoding: 240 240 174
Width: 420
VWidth: 512
Flags: W
HStem: -6 50<127.974 222.473> 350 48<188.598 288.289>
VStem: 18 96<65.4318 245.748> 300 106<188.564 462.665>
LayerCount: 2
Fore
SplineSet
249 350 m 0
 157 350 114 221 114 123 c 1
 114 67 139 44 169 44 c 0
 227 44 270 109 289 207 c 1
 297 250 300 274 300 292 c 0
 300 324 275 350 249 350 c 0
233 398 m 1
 259 398 287 387 301 373 c 0
 302 372 303 372 303 372 c 3
 305 372 307 378 307 389 c 1
 307 455 283 522 241 576 c 1
 137 476 l 1
 126 480 110 495 110 506 c 0
 110 510 112 513 113 514 c 1
 211 609 l 1
 186 633 161 648 143 658 c 1
 143 670 155 689 170 692 c 1
 188 682 217 669 248 645 c 1
 355 749 l 1
 360 747 381 731 381 721 c 1
 381 717 380 713 378 710 c 1
 358 693 282 616 282 616 c 1
 348 554 406 462 406 331 c 0
 406 98 261 -6 163 -6 c 0
 77 -6 18 62 18 153 c 0
 18 279 126 398 233 398 c 1
EndSplineSet
Validated: 1
EndChar

StartChar: divide
Encoding: 247 247 181
Width: 459
VWidth: 0
Flags: W
HStem: 2 113<156.307 226.745> 214 68<12.7135 449.326> 381 113<229.307 299.745>
VStem: 141 102<18.2695 100.165> 214 102<397.27 479.165>
CounterMasks: 1 e0
LayerCount: 2
Fore
SplineSet
273 494 m 1xe8
 298 494 316 474 316 448 c 1
 316 414 290 381 256 381 c 1
 231 381 214 404 214 430 c 1
 214 463 240 494 273 494 c 1xe8
200 115 m 1
 225 115 243 95 243 69 c 1
 243 35 217 2 183 2 c 1
 158 2 141 25 141 51 c 1xf0
 141 84 167 115 200 115 c 1
27 282 m 1
 54 282 454 282 454 282 c 2
 457 282 458 274 458 268 c 3
 458 254 448 228 435 214 c 1
 7 214 l 2
 4 214 3 222 3 228 c 3
 3 242 15 268 27 282 c 1
EndSplineSet
Validated: 1
EndChar

StartChar: oslash
Encoding: 248 248 182
Width: 406
VWidth: 512
Flags: W
HStem: -6 50<140.696 222.631> 392 50<195.381 276.74>
VStem: 24 97<137.2 271.862> 294 97<164.131 305.489>
LayerCount: 2
Fore
SplineSet
178 44 m 0
 239 44 294 167 294 276 c 0
 294 285 294 296 293 306 c 1
 133 80 l 1
 142 58 158 44 178 44 c 0
240 392 m 0
 178 392 121 268 121 162 c 0
 121 154 121 145 122 136 c 1
 281 362 l 1
 272 381 259 392 240 392 c 0
260 442 m 0
 284 442 306 435 324 423 c 1
 338 442 l 5
 342 443 372 432 372 421 c 4
 372 419 372 416 371 415 c 6
 355 393 l 1
 378 362 391 320 391 278 c 0
 391 128 282 -6 154 -6 c 0
 128 -6 106 2 88 15 c 1
 72 -6 l 5
 67 -6 37 1 37 12 c 4
 37 14 38 16 40 18 c 6
 59 45 l 1
 36 77 24 119 24 162 c 0
 24 304 130 442 260 442 c 0
EndSplineSet
Validated: 33
EndChar

StartChar: thorn
Encoding: 254 254 188
Width: 498
Flags: W
HStem: -228 21G<-11 23> -218 30<165.422 202.825> -6 44<193.292 280.646> 371 64<284.04 416> 628 28<136.416 184.35> 674 20G<285 301.5>
VStem: 376 110<208.996 363.165>
LayerCount: 2
Fore
SplineSet
331 371 m 3x3e
 279 371 229 333 227 324 c 2
 189 130 l 2
 184 106 184 106 184 94 c 0
 184 63 203 38 230 38 c 3
 296 38 376 155 376 312 c 3
 376 350 353 371 331 371 c 3x3e
383 435 m 0
 449 435 486 378 486 322 c 3
 486 158 344 -6 223 -6 c 3
 209 -6 182 1 177 4 c 0
 174 6 172 8 169 8 c 3
 166 8 165 3 163 -4 c 10
 140 -125 l 18
 139 -132 138 -147 138 -154 c 0
 138 -170 146 -182 165 -186 c 0
 174 -188 183 -188 197 -188 c 3
 202 -188 203 -194 203 -199 c 27
 203 -207 201 -215 199 -218 c 1
 185 -218 169 -218 155 -218 c 0x7e
 90 -218 56 -221 -10 -228 c 1xbe
 -12 -227 -14 -219 -14 -214 c 3
 -14 -207 -13 -198 -9 -198 c 1
 8 -198 20 -197 29 -186 c 0
 34 -179 43 -145 48 -125 c 2
 127 280 l 17
 123 278 76 250 76 250 c 17
 72 256 67 268 67 278 c 3
 67 282 69 285 72 287 c 2
 72 287 119 322 138 334 c 9
 179 550 l 18
 185 576 188 601 188 606 c 0
 188 627 159 628 139 628 c 0
 137 628 135 630 135 634 c 8
 135 643 142 656 145 656 c 3
 183 656 275 683 295 694 c 0
 296 694 297 694 299 694 c 3
 304 694 307 682 307 678 c 9
 307 678 289 643 278 587 c 8
 238 382 l 17
 252 397 304 435 383 435 c 0
EndSplineSet
Validated: 1
EndChar

StartChar: uni2010
Encoding: 8208 8208 190
Width: 357
VWidth: 512
Flags: W
HStem: 196 80
VStem: 47 256<208.329 263.924>
LayerCount: 2
Fore
SplineSet
70 264 m 2
 296 276 l 2
 301 276 303 269 303 264 c 0
 303 251 288 208 278 207 c 10
 52 196 l 2
 49 196 47 203 47 211 c 0
 47 222 59 263 70 264 c 2
EndSplineSet
Validated: 1
EndChar

StartChar: uni2011
Encoding: 8209 8209 191
Width: 357
VWidth: 512
Flags: W
HStem: 196 80
VStem: 47 256<208.329 263.924>
LayerCount: 2
Fore
SplineSet
70 264 m 2
 296 276 l 2
 301 276 303 269 303 264 c 0
 303 251 288 208 278 207 c 10
 52 196 l 2
 49 196 47 203 47 211 c 0
 47 222 59 263 70 264 c 2
EndSplineSet
Validated: 1
EndChar

StartChar: figuredash
Encoding: 8210 8210 192
Width: 509
Flags: W
HStem: 197 68<55 446>
LayerCount: 2
Fore
SplineSet
447 265 m 2
 453 265 454 256 454 250 c 0
 454 232 440 203 432 197 c 1
 54 197 l 2
 48 197 47 206 47 212 c 0
 47 230 61 259 69 265 c 1
 447 265 l 2
EndSplineSet
Validated: 1
EndChar

StartChar: endash
Encoding: 8211 8211 193
Width: 531
Flags: W
HStem: 197 68<55 468>
LayerCount: 2
Fore
SplineSet
470 265 m 2
 476 265 476 256 476 250 c 0
 476 232 462 203 454 197 c 1
 54 197 l 2
 48 197 47 206 47 212 c 0
 47 230 61 259 69 265 c 1
 470 265 l 2
EndSplineSet
Validated: 1
EndChar

StartChar: emdash
Encoding: 8212 8212 194
Width: 826
Flags: W
HStem: 197 68<55 763>
LayerCount: 2
Fore
SplineSet
764 265 m 6
 770 265 771 256 771 250 c 4
 771 232 757 203 749 197 c 5
 54 197 l 6
 48 197 47 206 47 212 c 4
 47 230 61 259 69 265 c 5
 764 265 l 6
EndSplineSet
Validated: 1
EndChar

StartChar: afii00208
Encoding: 8213 8213 195
Width: 1053
Flags: W
HStem: 197 68<55 990>
LayerCount: 2
Fore
SplineSet
992 265 m 2
 998 265 998 256 998 250 c 0
 998 232 984 203 976 197 c 1
 54 197 l 2
 48 197 47 206 47 212 c 0
 47 230 61 259 69 265 c 1
 992 265 l 2
EndSplineSet
Validated: 1
EndChar

StartChar: quoteleft
Encoding: 8216 8216 196
Width: 241
Flags: W
HStem: 478 228
VStem: 58 94<493.327 572.187>
LayerCount: 2
Fore
SplineSet
57 555 m 0
 75 649 181 706 189 706 c 0
 196 706 209 695 211 684 c 1
 148 648 129 603 127 594 c 0
 122 568 157 550 152 522 c 0
 147 498 113 478 83 478 c 0
 76 478 64 481 58 485 c 1
 52 498 51 527 57 555 c 0
EndSplineSet
Validated: 33
EndChar

StartChar: quoteright
Encoding: 8217 8217 197
Width: 238
Flags: W
HStem: 479 228
VStem: 103 94<612.813 692.243>
LayerCount: 2
Fore
SplineSet
197 630 m 0
 179 536 75 479 67 479 c 0
 60 479 47 490 45 501 c 1
 108 537 126 583 128 592 c 0
 133 618 98 636 103 664 c 0
 108 688 143 707 173 707 c 0
 180 707 191 704 197 700 c 1
 203 687 203 658 197 630 c 0
EndSplineSet
Validated: 33
EndChar

StartChar: quotesinglbase
Encoding: 8218 8218 198
Width: 245
Flags: W
HStem: -102 228
VStem: 90 94<30.8247 110.673>
LayerCount: 2
Fore
SplineSet
186 48 m 0
 168 -46 62 -102 54 -102 c 0
 47 -102 34 -92 32 -81 c 1
 95 -45 114 1 116 10 c 0
 121 36 85 54 90 82 c 0
 95 106 130 126 160 126 c 0
 167 126 178 122 184 118 c 1
 190 105 192 76 186 48 c 0
EndSplineSet
Validated: 33
EndChar

StartChar: quotedblleft
Encoding: 8220 8220 199
Width: 376
Flags: W
HStem: 478 228
VStem: 58 94<493.327 572.187> 193 95<493.327 572.187>
LayerCount: 2
Fore
SplineSet
193 555 m 0
 211 649 317 706 325 706 c 0
 332 706 344 695 346 684 c 1
 283 648 265 603 263 594 c 0
 258 568 293 550 288 522 c 0
 283 498 249 478 219 478 c 0
 212 478 199 481 193 485 c 1
 187 498 187 527 193 555 c 0
57 555 m 0
 75 649 181 706 189 706 c 0
 196 706 209 695 211 684 c 1
 148 648 129 603 127 594 c 0
 122 568 157 550 152 522 c 0
 147 498 113 478 83 478 c 0
 76 478 64 481 58 485 c 1
 52 498 51 527 57 555 c 0
EndSplineSet
Validated: 33
EndChar

StartChar: quotedblright
Encoding: 8221 8221 200
Width: 380
Flags: W
HStem: 479 228
VStem: 103 94<612.813 692.243> 244 94<612.813 692.243>
LayerCount: 2
Fore
SplineSet
338 630 m 0
 320 536 215 479 207 479 c 0
 200 479 187 490 185 501 c 1
 248 537 267 583 269 592 c 0
 274 618 239 636 244 664 c 0
 249 688 283 707 313 707 c 0
 320 707 332 704 338 700 c 1
 344 687 344 658 338 630 c 0
197 630 m 0
 179 536 75 479 67 479 c 0
 60 479 47 490 45 501 c 1
 108 537 126 583 128 592 c 0
 133 618 98 636 103 664 c 0
 108 688 143 707 173 707 c 0
 180 707 191 704 197 700 c 1
 203 687 203 658 197 630 c 0
EndSplineSet
Validated: 33
EndChar

StartChar: quotedblbase
Encoding: 8222 8222 201
Width: 385
Flags: W
HStem: -102 227
VStem: 90 95<30.8247 110.243> 231 95<30.8247 110.243>
LayerCount: 2
Fore
SplineSet
326 48 m 0
 308 -46 202 -102 194 -102 c 0
 187 -102 175 -92 173 -81 c 1
 236 -45 254 1 256 10 c 0
 261 36 226 54 231 82 c 0
 236 106 270 125 300 125 c 0
 307 125 320 122 326 118 c 1
 332 105 332 76 326 48 c 0
186 48 m 0
 168 -46 62 -102 54 -102 c 0
 47 -102 34 -92 32 -81 c 1
 95 -45 114 1 116 10 c 0
 121 36 85 54 90 82 c 0
 95 106 130 125 160 125 c 0
 167 125 179 122 185 118 c 1
 191 105 192 76 186 48 c 0
EndSplineSet
Validated: 33
EndChar

StartChar: dagger
Encoding: 8224 8224 202
Width: 307
Flags: W
HStem: -10 21G<51 61 114.5 131> 366 62<21.2951 123.693 199.78 300.132>
VStem: 11 300
LayerCount: 2
Fore
SplineSet
205 625 m 4
 215 625 231 627 243 629 c 5
 224 551 212 513 197 435 c 4
 197 434 197 434 197 433 c 7
 197 428 200 428 206 428 c 4
 233 428 272 430 311 432 c 5
 308 421 303 404 301 393 c 4
 299 384 298 369 297 360 c 5
 259 362 207 366 195 366 c 4
 186 366 182 362 181 356 c 4
 153 211 143 135 119 -10 c 5
 110 -6 93 -5 83 -5 c 4
 73 -5 57 -6 45 -10 c 5
 77 135 97 211 125 356 c 4
 125 357 125 358 125 358 c 4
 125 364 122 366 114 366 c 4
 114 366 50 362 11 360 c 5
 14 369 17 384 19 393 c 4
 21 404 24 421 25 432 c 5
 63 430 95 428 126 428 c 5
 136 428 139 431 140 435 c 4
 155 513 158 551 169 629 c 5
 180 627 195 625 205 625 c 4
EndSplineSet
Validated: 1
EndChar

StartChar: daggerdbl
Encoding: 8225 8225 203
Width: 339
Flags: W
HStem: -10 21G<78 81.5 140.5 151.5> 192 62<15.0261 115.22 191.001 293.924> 366 62<48.2951 149.547 226.78 327.132>
VStem: 152 39<264.572 361.781>
LayerCount: 2
Fore
SplineSet
232 625 m 0
 242 625 258 627 270 629 c 1
 251 551 239 513 224 435 c 0
 224 434 224 434 224 433 c 3
 224 428 227 428 233 428 c 0
 260 428 299 430 338 432 c 1
 335 421 330 404 328 393 c 0
 326 384 325 369 324 360 c 1
 286 362 234 366 222 366 c 0
 213 366 209 362 208 356 c 0
 200 314 191 266 191 262 c 0
 191 258 193 254 201 254 c 0
 201 254 265 256 304 258 c 1
 301 249 298 235 296 226 c 0
 294 215 291 198 290 187 c 1
 252 189 220 192 189 192 c 1
 179 192 176 188 175 184 c 0
 160 106 157 68 146 -10 c 1
 135 -8 120 -6 110 -6 c 0
 100 -6 84 -8 72 -10 c 1
 91 68 103 106 118 184 c 0
 118 185 118 185 118 186 c 3
 118 191 115 192 109 192 c 0
 82 192 43 189 4 187 c 1
 7 198 12 215 14 226 c 0
 16 235 17 249 18 258 c 1
 56 256 108 254 120 254 c 0
 124 254 130 256 133 264 c 0
 137 276 141 301 152 356 c 0
 152 357 152 358 152 358 c 0
 152 364 149 366 141 366 c 0
 141 366 77 362 38 360 c 1
 41 369 44 384 46 393 c 0
 48 404 51 421 52 432 c 1
 90 430 122 428 153 428 c 1
 163 428 166 431 167 435 c 0
 182 513 185 551 196 629 c 1
 207 627 222 625 232 625 c 0
EndSplineSet
Validated: 1
EndChar

StartChar: bullet
Encoding: 8226 8226 204
Width: 335
Flags: W
HStem: 139 248<120.899 209.101>
VStem: 50 230
LayerCount: 2
Fore
SplineSet
50 263 m 0
 63 331 125 387 189 387 c 0
 253 387 293 331 280 263 c 0
 267 195 205 139 141 139 c 0
 77 139 37 195 50 263 c 0
EndSplineSet
Validated: 33
EndChar

StartChar: onedotenleader
Encoding: 8228 8228 205
Width: 219
VWidth: 512
Flags: W
HStem: -12 132<63.6993 136.723>
VStem: 39 124<14.2141 94.8535>
LayerCount: 2
Fore
SplineSet
163 62 m 0
 159 24 125 -12 89 -12 c 1
 57 -12 35 16 39 50 c 0
 43 88 79 120 115 120 c 1
 147 120 167 95 163 62 c 0
EndSplineSet
Validated: 33
EndChar

StartChar: ellipsis
Encoding: 8230 8230 206
Width: 747
VWidth: 512
Flags: W
HStem: -12 133<63.5627 136.723 330.729 402.723 591.563 664.723>
VStem: 39 124<14.2141 96.335> 305 124<14.2141 95.9714> 567 124<14.2141 96.335>
LayerCount: 2
Fore
SplineSet
691 62 m 0
 687 24 653 -12 617 -12 c 1
 585 -12 563 16 567 50 c 0
 571 88 605 121 641 121 c 1
 673 121 695 95 691 62 c 0
429 62 m 0
 425 24 391 -12 355 -12 c 1
 323 -12 301 16 305 50 c 0
 309 88 345 121 381 121 c 1
 413 121 433 95 429 62 c 0
163 62 m 0
 159 24 125 -12 89 -12 c 1
 57 -12 35 16 39 50 c 0
 43 88 77 121 113 121 c 1
 145 121 167 95 163 62 c 0
EndSplineSet
Validated: 33
Ligature2: "'liga' Standard Ligatures in Latin lookup 0-1" period period period
EndChar

StartChar: perthousand
Encoding: 8240 8240 207
Width: 940
VWidth: 512
Flags: W
HStem: -2 33<398.129 469.359 719.641 790.808> 286 32<432.039 501.46 753.585 822.872> 338 33<157.445 226.894> 626 32<189.671 258.958> 640 14<595 632>
LayerCount: 2
Fore
SplineSet
791 286 m 0xe0
 740 286 711 216 703 154 c 24
 695 102 703 31 755 31 c 0
 805 31 830 103 839 164 c 24
 846 215 842 286 791 286 c 0xe0
804 318 m 0
 884 318 927 252 919 176 c 0
 911 86 831 -2 741 -2 c 0
 662 -2 617 64 625 140 c 0
 633 231 712 318 804 318 c 0
469 286 m 0
 418 286 389 216 381 154 c 24
 373 102 381 31 433 31 c 0
 483 31 509 103 518 164 c 24
 525 215 520 286 469 286 c 0
483 318 m 0
 563 318 605 252 597 176 c 0
 589 86 510 -2 420 -2 c 0
 341 -2 295 64 303 140 c 0
 311 231 391 318 483 318 c 0
632 640 m 1xe8
 632 640 56 10 50 4 c 1
 45 -1 29 -8 17 -8 c 1
 1 -8 -7 -2 -8 4 c 1
 575 642 l 2
 580 647 587 654 595 654 c 1
 611 654 626 649 632 640 c 1xe8
227 626 m 0xf0
 176 626 148 555 139 494 c 24
 132 442 139 371 191 371 c 0
 241 371 267 444 275 504 c 24
 283 554 278 626 227 626 c 0xf0
240 658 m 0
 320 658 363 591 355 515 c 0
 347 425 267 338 177 338 c 0
 98 338 53 403 61 479 c 0
 69 570 148 658 240 658 c 0
EndSplineSet
Validated: 33
EndChar

StartChar: minute
Encoding: 8242 8242 208
Width: 181
Flags: W
HStem: 489 210
VStem: 88 78<617.859 688.247>
LayerCount: 2
Fore
SplineSet
138 699 m 0
 152 699 168 691 166 674 c 0
 162 630 94 534 66 498 c 0
 62 492 56 489 52 489 c 0
 46 489 43 494 44 501 c 0
 45 504 70 612 88 666 c 0
 92 678 120 699 138 699 c 0
EndSplineSet
Validated: 33
EndChar

StartChar: second
Encoding: 8243 8243 209
Width: 303
Flags: W
HStem: 489 210
VStem: 88 78<617.859 688.247> 212 76<615.206 688.247>
LayerCount: 2
Fore
SplineSet
262 699 m 0
 276 699 290 691 288 674 c 0
 284 630 220 536 190 498 c 0
 186 492 180 489 176 489 c 0
 170 489 165 494 166 501 c 0
 167 504 194 612 212 666 c 0
 216 678 244 699 262 699 c 0
138 699 m 0
 152 699 168 691 166 674 c 0
 162 630 94 534 66 498 c 0
 62 492 56 489 52 489 c 0
 46 489 43 494 44 501 c 0
 45 504 70 612 88 666 c 0
 92 678 120 699 138 699 c 0
EndSplineSet
Validated: 33
EndChar

StartChar: uni2038
Encoding: 8248 8248 210
Width: 304
Flags: W
HStem: -48 160
VStem: 31 226
LayerCount: 2
Fore
SplineSet
241 -48 m 0
 229 -48 182 -2 155 38 c 1
 115 -3 48 -48 36 -48 c 0
 30 -48 31 -32 31 -30 c 1
 35 -17 101 17 157 102 c 1
 161 110 161 112 167 112 c 0
 186 112 174 95 208 37 c 0
 220 15 256 -23 257 -27 c 1
 256 -31 247 -48 241 -48 c 0
EndSplineSet
Validated: 1
EndChar

StartChar: guilsinglleft
Encoding: 8249 8249 211
Width: 325
VWidth: 512
Flags: W
VStem: 36 263
LayerCount: 2
Fore
SplineSet
277 423 m 1
 287 420 299 410 299 403 c 0
 299 397 301 395 222 328 c 1
 209 317 142 258 131 248 c 1
 189 167 l 1
 221 125 239 106 239 96 c 0
 239 83 210 74 207 73 c 1
 201 81 141 149 41 227 c 0
 38 229 36 232 36 237 c 0
 36 244 40 259 49 268 c 1
 179 342 273 419 277 423 c 1
EndSplineSet
Validated: 33
EndChar

StartChar: guilsinglright
Encoding: 8250 8250 212
Width: 330
VWidth: 512
Flags: W
VStem: 27 261
LayerCount: 2
Fore
SplineSet
117 423 m 1
 127 409 199 332 284 268 c 1
 286 264 288 260 288 254 c 0
 288 243 283 231 276 228 c 1
 129 140 50 74 50 73 c 1
 46 74 27 82 27 92 c 0
 27 100 30 103 104 167 c 1
 194 248 l 1
 134 329 l 1
 100 373 86 391 86 399 c 0
 86 414 112 421 117 423 c 1
EndSplineSet
Validated: 1
EndChar

StartChar: uni203E
Encoding: 8254 8254 213
Width: 690
Flags: W
HStem: 736 68<82 611>
LayerCount: 2
Fore
SplineSet
612 804 m 2
 618 804 619 796 619 790 c 0
 619 772 605 742 597 736 c 1
 81 736 l 2
 75 736 74 744 74 750 c 0
 74 768 88 798 96 804 c 1
 612 804 l 2
EndSplineSet
Validated: 1
EndChar

StartChar: Euro
Encoding: 8364 8364 214
Width: 628
VWidth: 0
Flags: W
HStem: -2 46<258.069 445.584> 239 50<14.4916 68 185 368.508> 338 50<31.4916 83 206 385.508> 590 47<341.106 515.129>
VStem: 575 37<458.95 526.946>
LayerCount: 2
Fore
SplineSet
368 289 m 2
 371 289 372 284 372 279 c 0
 372 268 364 244 355 239 c 1
 182 239 l 1
 181 127 228 44 340 44 c 0
 438 44 480 78 521 114 c 0
 535 126 550 145 554 145 c 0
 557 145 572 132 572 128 c 0
 572 122 549 81 488 41 c 0
 442 11 375 -2 305 -2 c 0
 159 -2 69 105 68 239 c 1
 16 239 l 2
 13 239 11 244 11 249 c 0
 11 260 19 284 28 289 c 1
 72 289 l 1
 74 305 78 322 83 338 c 1
 33 338 l 2
 30 338 28 343 28 348 c 0
 28 359 36 383 45 388 c 1
 101 388 l 1
 158 521 283 637 427 637 c 0
 485 637 565 620 626 602 c 1
 626 595 614 482 612 473 c 0
 610 464 596 458 587 458 c 0
 582 458 578 460 575 461 c 1
 574 494 560 590 421 590 c 0
 325 590 244 502 206 388 c 1
 385 388 l 2
 388 388 389 383 389 378 c 0
 389 367 381 343 372 338 c 1
 193 338 l 1
 190 322 187 306 185 289 c 1
 368 289 l 2
EndSplineSet
Validated: 33
EndChar

StartChar: arrowleft
Encoding: 8592 8592 215
Width: 717
Flags: W
HStem: 213 68<154 674.745>
LayerCount: 2
Fore
SplineSet
204 327 m 1
 192 316 166 292 154 281 c 1
 678 281 l 2
 683 281 684 276 684 268 c 0
 684 256 672 221 660 213 c 1
 557 213 141 213 141 213 c 1
 141 213 165 178 173 167 c 1
 210 116 222 106 222 96 c 0
 222 84 196 75 190 73 c 1
 189 75 142 132 24 227 c 0
 21 229 20 234 20 238 c 0
 20 246 24 259 33 268 c 1
 170 347 257 421 260 423 c 1
 268 421 283 412 282 402 c 1
 282 395 278 395 204 327 c 1
EndSplineSet
Validated: 1
EndChar

StartChar: arrowup
Encoding: 8593 8593 216
Width: 331
Flags: W
HStem: 674 20G<202 209.5>
VStem: 8 326
LayerCount: 2
Fore
SplineSet
154 566 m 1
 102 520 l 1
 39 463 29 452 22 452 c 0
 10 452 9 476 8 482 c 1
 10 483 74 541 191 688 c 0
 194 693 199 694 205 694 c 0
 214 694 222 693 228 686 c 1
 276 555 332 483 334 480 c 1
 330 470 316 452 306 452 c 0
 296 452 293 462 250 522 c 1
 218 566 l 1
 102 -26 l 2
 101 -29 98 -32 89 -32 c 0
 73 -32 42 -22 39 -18 c 1
 154 566 l 1
EndSplineSet
Validated: 1
EndChar

StartChar: arrowright
Encoding: 8594 8594 217
Width: 712
Flags: W
HStem: 213 69<31.2549 553>
LayerCount: 2
Fore
SplineSet
553 213 m 1
 29 213 l 2
 24 213 22 217 22 226 c 0
 22 238 34 274 46 282 c 1
 568 282 l 1
 534 329 l 1
 490 386 484 389 485 401 c 1
 487 413 511 421 517 423 c 1
 519 420 565 355 677 268 c 1
 681 263 682 257 681 250 c 0
 681 244 677 233 670 227 c 1
 524 140 450 75 449 73 c 1
 441 75 424 84 426 94 c 1
 427 103 440 112 506 170 c 0
 553 213 l 1
EndSplineSet
Validated: 33
EndChar

StartChar: arrowdown
Encoding: 8595 8595 218
Width: 329
Flags: W
VStem: -4 325
LayerCount: 2
Fore
SplineSet
111 110 m 1
 227 701 l 2
 228 704 231 707 240 707 c 0
 256 707 285 696 289 692 c 1
 174 108 l 1
 226 156 l 1
 288 213 297 223 307 223 c 0
 319 223 320 200 321 194 c 1
 319 193 254 135 137 -12 c 0
 134 -17 129 -19 123 -19 c 0
 114 -19 106 -17 100 -10 c 1
 52 121 -2 192 -4 195 c 1
 0 205 12 224 22 224 c 0
 31 224 34 213 79 152 c 1
 111 110 l 1
EndSplineSet
Validated: 1
EndChar

StartChar: partialdiff
Encoding: 8706 8706 219
Width: 433
Flags: W
HStem: 0 46<117.265 212.232> 324 45<155.448 261.795> 586 52<164.64 281.281>
VStem: 322 84<353.494 543.071>
LayerCount: 2
Fore
SplineSet
203 324 m 0
 157 324 109 263 103 179 c 0
 91 100 109 46 163 46 c 0
 233 46 274 168 281 228 c 1
 289 296 249 324 203 324 c 0
265 638 m 1
 356 638 406 534 406 418 c 1
 406 237 323 0 129 0 c 0
 45 0 -6 59 7 163 c 0
 17 261 105 369 225 369 c 0
 268 369 299 350 303 350 c 0
 307 350 311 356 313 362 c 0
 318 380 322 414 322 448 c 1
 322 490 315 535 290 556 c 0
 267 580 235 586 209 586 c 1
 173 586 139 565 107 543 c 1
 105 547 99 562 107 572 c 0
 125 594 177 638 265 638 c 1
EndSplineSet
Validated: 33
EndChar

StartChar: summation
Encoding: 8721 8721 220
Width: 570
VWidth: 512
Flags: W
HStem: 2 52<136.034 430.314> 2 30<-7.51055 30.2848> 611 45<277.25 498.694> 627 29<113.434 141.814>
VStem: 281 107<314.459 368.766> 533 32<515.218 567.928>
LayerCount: 2
Fore
SplineSet
43 58 m 0x4c
 64 80 207 235 279 314 c 0
 281 316 281 318 281 321 c 27
 281 324 279 326 278 329 c 24
 232 429 160 585 160 585 c 2
 150 606 134 627 117 627 c 3
 114 627 113 632 113 636 c 27
 113 645 116 652 121 658 c 9
 164 657 188 656 231 656 c 27x5c
 361 656 462 662 563 662 c 1
 563 641 562 619 562 597 c 0
 562 571 565 546 565 520 c 1
 562 517 552 515 545 515 c 0
 539 515 533 517 533 522 c 0
 524 588 477 611 425 611 c 8
 399 611 385 611 358 611 c 0
 325 611 271 610 272 602 c 1
 315 509 341 455 384 361 c 24
 386 356 388 353 388 348 c 27
 388 341 388 335 383 330 c 24
 289 224 136 89 136 64 c 0
 136 58 183 54 243 54 c 2
 278 54 l 2xac
 313 54 391 55 421 70 c 0
 441 80 477 117 503 166 c 0
 505 170 510 172 517 172 c 0
 526 172 539 169 541 166 c 1
 513 112 473 41 458 -3 c 1
 357 -3 198 2 113 2 c 0
 56 2 -7 -4 -7 -4 c 1
 -8 -3 -9 2 -9 6 c 0
 -9 15 -4 32 -1 32 c 0
 10 32 34 48 43 58 c 0x4c
EndSplineSet
Validated: 33
EndChar

StartChar: minus
Encoding: 8722 8722 221
Width: 497
Flags: W
HStem: 197 68<35 448>
LayerCount: 2
Fore
SplineSet
450 265 m 2
 456 265 456 256 456 250 c 0
 456 232 442 203 434 197 c 1
 34 197 l 2
 28 197 27 206 27 212 c 0
 27 230 41 259 49 265 c 1
 450 265 l 2
EndSplineSet
Validated: 1
EndChar

StartChar: uni2213
Encoding: 8723 8723 222
Width: 528
VWidth: 512
Flags: W
HStem: 245 64<19.2549 193.001 283.998 456.754> 552 64<79.2549 517.173>
LayerCount: 2
Fore
SplineSet
94 616 m 5
 147 616 521 616 521 616 c 6
 524 616 525 608 525 602 c 7
 525 588 515 566 502 552 c 5
 74 552 l 6
 71 552 70 559 70 565 c 7
 70 579 82 602 94 616 c 5
34 309 m 5
 87 309 138 309 205 309 c 20
 208 309 209 311 209 313 c 4
 221 373 228 427 242 497 c 4
 245 511 302 515 306 515 c 4
 315 515 317 510 316 506 c 6
 316 506 293 376 281 314 c 4
 280 311 281 309 284 309 c 12
 353 309 461 309 461 309 c 6
 464 309 465 302 465 296 c 7
 465 282 455 259 442 245 c 5
 442 245 336 245 269 245 c 20
 266 245 265 243 265 241 c 4
 252 169 230 57 230 57 c 6
 228 46 190 39 172 39 c 4
 161 39 156 44 157 48 c 6
 157 48 182 184 193 240 c 4
 193 242 194 245 189 245 c 12
 121 245 14 245 14 245 c 6
 11 245 10 252 10 258 c 7
 10 272 22 295 34 309 c 5
EndSplineSet
Validated: 1
EndChar

StartChar: radical
Encoding: 8730 8730 223
Width: 573
Flags: W
LayerCount: 2
Fore
SplineSet
10 159 m 1
 -1 165 -7 177 -6 185 c 0
 -4 195 12 204 20 209 c 0
 56 231 153 296 168 308 c 0
 177 315 191 315 192 307 c 1
 194 275 199 254 202 238 c 2
 252 8 l 1
 260 30 540 791 540 791 c 1
 583 788 l 1
 583 788 261 -89 237 -153 c 1
 220 -171 200 -176 194 -176 c 0
 190 -176 186 -176 186 -172 c 2
 100 208 l 1
 10 159 l 1
EndSplineSet
Validated: 1
EndChar

StartChar: proportional
Encoding: 8733 8733 224
Width: 660
Flags: W
HStem: 39 64<131.21 233.314 523.903 546.765> 357 67<168.709 276.591 559.63 645.164>
LayerCount: 2
Fore
SplineSet
228 357 m 0
 168 357 110 288 104 214 c 0
 97 150 133 103 185 103 c 0
 246 103 310 180 348 218 c 0
 349 219 350 219 349 220 c 0
 333 252 293 357 228 357 c 0
540 41 m 1
 418 41 380 171 370 171 c 2
 369 171 l 1
 307 108 237 39 146 39 c 0
 64 39 19 116 28 202 c 0
 38 320 145 424 252 424 c 0
 342 424 391 342 420 294 c 0
 421 292 425 290 426 292 c 0
 475 345 554 424 644 424 c 1
 646 418 648 413 648 404 c 0
 648 385 644 364 632 364 c 0
 558 364 476 277 446 246 c 0
 445 245 445 245 446 244 c 0
 470 200 508 106 572 106 c 0
 590 106 564 54 540 41 c 1
EndSplineSet
Validated: 33
EndChar

StartChar: infinity
Encoding: 8734 8734 225
Width: 809
Flags: W
HStem: 41 66<127.833 236.556 522.476 628.678> 357 67<168.709 276.591 559.377 666.607>
LayerCount: 2
Fore
SplineSet
607 362 m 0
 550 362 476 277 446 246 c 0
 445 245 445 245 446 244 c 0
 470 200 508 107 572 107 c 0
 634 107 684 181 690 248 c 0
 697 312 661 362 607 362 c 0
228 357 m 0
 168 357 110 288 104 214 c 0
 97 150 133 104 185 104 c 0
 246 104 310 180 348 218 c 0
 349 219 350 219 349 220 c 0
 333 252 293 357 228 357 c 0
252 424 m 0
 342 424 391 342 420 294 c 0
 421 292 425 290 426 292 c 0
 475 345 554 424 644 424 c 0
 726 424 777 348 768 262 c 0
 758 144 648 41 540 41 c 0
 418 41 380 171 370 171 c 2
 369 171 l 1
 307 108 237 39 146 39 c 0
 64 39 19 116 28 202 c 0
 38 320 145 424 252 424 c 0
EndSplineSet
Validated: 33
EndChar

StartChar: notequal
Encoding: 8800 8800 226
Width: 509
VWidth: 512
Flags: W
HStem: 114 64<26.8084 143 239 445.192> 255 64<53.8084 242 339 472.192>
LayerCount: 2
Fore
SplineSet
242 255 m 1
 53 255 l 2
 48 255 46 260 46 268 c 0
 46 285 60 315 70 319 c 1
 287 319 l 1
 345 401 l 1
 349 402 379 391 379 380 c 0
 379 378 378 374 378 374 c 1
 339 319 l 1
 473 319 l 2
 478 319 480 314 480 306 c 0
 480 289 466 259 456 255 c 1
 293 255 l 1
 239 178 l 1
 446 178 l 2
 451 178 453 173 453 165 c 0
 453 148 439 118 429 114 c 1
 194 114 l 1
 137 34 l 1
 132 34 102 41 102 52 c 0
 102 54 103 57 105 59 c 2
 143 114 l 1
 26 114 l 2
 21 114 19 119 19 127 c 0
 19 144 33 174 43 178 c 1
 188 178 l 1
 242 255 l 1
EndSplineSet
Validated: 33
EndChar

StartChar: lessequal
Encoding: 8804 8804 227
Width: 470
Flags: W
HStem: 5 59<4.92622 373.875>
LayerCount: 2
Fore
SplineSet
21 64 m 1
 74 64 375 64 375 64 c 2
 379 64 381 56 381 50 c 3
 381 36 370 19 357 5 c 1
 3 5 l 2
 -2 5 -3 12 -3 18 c 3
 -3 32 9 50 21 64 c 1
455 529 m 17
 459 524 467 501 467 482 c 27
 467 477 467 472 463 470 c 2
 129 309 l 1
 405 146 l 1
 405 128 387 86 381 86 c 0
 379 86 377 87 375 88 c 2
 59 274 l 2
 51 279 45 292 45 302 c 0
 45 328 65 342 77 348 c 1
 147 381 381 495 455 529 c 17
EndSplineSet
Validated: 1
EndChar

StartChar: greaterequal
Encoding: 8805 8805 228
Width: 454
Flags: W
HStem: 5 59<4.92622 373.875>
LayerCount: 2
Fore
SplineSet
21 64 m 5
 74 64 375 64 375 64 c 6
 379 64 381 56 381 50 c 7
 381 36 370 19 357 5 c 1
 3 5 l 2
 -2 5 -3 12 -3 18 c 3
 -3 32 9 50 21 64 c 5
31 86 m 17
 27 91 19 114 19 133 c 27
 19 138 19 144 23 146 c 2
 357 306 l 1
 81 470 l 1
 81 488 99 529 105 529 c 0
 107 529 109 529 111 528 c 2
 427 342 l 2
 435 337 441 324 441 314 c 0
 441 288 421 274 409 268 c 1
 339 235 105 120 31 86 c 17
EndSplineSet
Validated: 1
EndChar

StartChar: dotlessi
Encoding: 305 305 229
Width: 279
VWidth: 0
Flags: W
HStem: -8 74<117 194.377> 368 74<86.4605 162>
VStem: 72 94<66.4121 212.818> 116 94<220.797 367.116>
LayerCount: 2
Fore
SplineSet
144 442 m 3xd0
 180 442 210 419 210 358 c 0xd0
 210 322 168 122 167 117 c 2
 166 113 166 105 166 100 c 0
 166 76 175 66 186 66 c 0
 205 66 240 132 244 132 c 0
 248 132 262 118 265 106 c 1
 255 81 203 -8 137 -8 c 3
 97 -8 72 21 72 77 c 1xe0
 72 89 73 106 77 126 c 2
 113 310 l 2
 114 315 116 327 116 332 c 0
 116 353 107 368 92 368 c 1
 75 368 40 302 36 302 c 0
 32 302 19 316 16 328 c 1
 26 353 78 442 144 442 c 3xd0
EndSplineSet
Validated: 1
EndChar

StartChar: gravecomb
Encoding: 768 768 230
Width: 270
Flags: W
HStem: 518 147
VStem: 53 175
LayerCount: 2
Fore
SplineSet
215 518 m 0
 201 518 53 592 53 628 c 0
 53 648 83 665 106 665 c 0
 114 665 120 662 123 660 c 0
 142 642 228 546 228 538 c 0
 228 531 221 518 215 518 c 0
EndSplineSet
Validated: 1
EndChar

StartChar: acutecomb
Encoding: 769 769 231
Width: 270
Flags: W
HStem: 518 146
VStem: 57 176
LayerCount: 2
Fore
SplineSet
68 518 m 0
 64 518 57 528 57 534 c 0
 57 542 132 631 167 660 c 0
 171 662 179 664 187 664 c 0
 211 664 233 648 233 630 c 0
 233 593 78 518 68 518 c 0
EndSplineSet
Validated: 1
EndChar

StartChar: uni0302
Encoding: 770 770 232
Width: 312
Flags: W
HStem: 600 150
VStem: 55 216
LayerCount: 2
Fore
SplineSet
258 600 m 0
 248 600 194 644 171 666 c 1
 139 642 70 600 60 600 c 0
 54 600 53 614 55 621 c 1
 62 628 85 646 124 685 c 0
 147 708 163 726 174 740 c 0
 180 746 183 750 188 750 c 1
 193 750 193 746 196 740 c 0
 202 728 208 714 222 692 c 0
 247 650 269 626 271 621 c 1
 269 612 264 600 258 600 c 0
EndSplineSet
Validated: 1
EndChar

StartChar: tildecomb
Encoding: 771 771 233
Width: 392
Flags: W
HStem: 616 54<228.193 309.56> 672 55<99.8805 182.909>
VStem: 56 298<637 704>
LayerCount: 2
Fore
SplineSet
153 727 m 0
 209 727 230 670 286 670 c 0
 310 670 343 716 348 716 c 1
 351 716 354 709 354 704 c 1
 354 684 309 616 259 616 c 0
 201 616 182 672 124 672 c 0
 101 672 69 624 61 624 c 0
 57 624 56 631 56 637 c 0
 56 668 107 727 153 727 c 0
EndSplineSet
Validated: 1
EndChar

StartChar: f_i
Encoding: 61697 61697 234
Width: 711
VWidth: 512
Flags: W
HStem: -224 46<45 147.849> -8 75<549 626.377> 363 52<219.026 272.938 381.734 541.379> 650 47<464.457 555.043>
VStem: 503 94<68.1549 213.562> 545 101<258.611 402>
LayerCount: 2
Fore
SplineSet
540 697 m 0xf4
 587 697 612 687 631 675 c 0
 655 661 668 645 676 629 c 1
 676 585 655 553 619 553 c 1
 594 553 590 584 571 608 c 0
 557 628 539 650 503 650 c 0xf8
 464 650 408 576 386 462 c 1
 385 456 380 427 379 421 c 1
 379 419 l 1
 379 417 381 415 383 415 c 1
 395 415 498 419 507 420 c 0
 523 421 624 428 629 428 c 3
 635 428 646 406 646 398 c 3xf4
 646 390 642 359 637 331 c 0
 628 280 601 140 598 114 c 0
 597 110 597 104 597 100 c 0
 597 76 607 67 618 67 c 0
 637 67 672 132 676 132 c 0
 680 132 694 118 697 106 c 1
 687 81 635 -8 569 -8 c 3
 529 -8 503 21 503 77 c 1xf8
 503 89 505 106 509 126 c 2
 542 302 l 2
 543 307 545 319 545 324 c 0
 545 345 537 368 504 368 c 0
 476 368 374 363 374 363 c 6
 371 363 368 361 367 355 c 2
 311 57 l 2
 271 -151 157 -224 71 -224 c 0
 19 -224 -8 -201 -14 -184 c 1
 -14 -144 1 -112 35 -112 c 0
 69 -112 69 -178 109 -178 c 0
 163 -178 197 -60 209 8 c 2
 275 355 l 1
 275 357 l 1
 275 360 273 363 271 363 c 2
 209 363 l 2
 206 363 205 367 205 369 c 0
 205 379 232 415 258 415 c 2
 281 415 l 2
 285 415 288 420 289 428 c 0
 317 588 424 697 540 697 c 0xf4
EndSplineSet
Validated: 1
Ligature2: "'liga' Standard Ligatures in Latin lookup 0-1" f i
EndChar

StartChar: f_f
Encoding: 61696 61696 235
Width: 893
VWidth: 512
Flags: W
HStem: -224 46<45 146.27> -210 58<288.91 394.451> 363 52<218.026 270.969 379.568 541.094 650.53 777.432> 638 47<469.114 582.235> 650 47<733.603 838.5>
LayerCount: 2
Fore
SplineSet
526 638 m 0x30
 464 638 393 557 378 421 c 0
 378 419 l 1
 378 417 379 415 381 415 c 2
 550 415 l 2
 554 415 556 420 557 428 c 0
 566 481 582 516 597 554 c 0
 599 559 601 565 601 568 c 3
 601 573 601 575 600 580 c 0
 592 619 564 638 526 638 c 0x30
555 685 m 0
 596 685 652 660 668 645 c 1
 708 678 762 697 812 697 c 0
 865 697 889 679 899 664 c 1
 899 630 892 581 852 581 c 0
 814 581 811 650 773 650 c 0
 732 650 674 565 648 421 c 0
 648 419 l 1
 648 417 649 415 651 415 c 2
 773 415 l 2
 779 415 780 407 780 401 c 1
 780 389 774 373 768 363 c 1
 643 363 l 2
 640 363 637 361 636 355 c 2
 585 81 l 2
 557 -70 428 -210 312 -210 c 0x68
 260 -210 220 -178 209 -166 c 1
 165 -209 113 -224 71 -224 c 0
 19 -224 -8 -201 -14 -184 c 1
 -14 -144 0 -112 34 -112 c 0
 68 -112 68 -178 108 -178 c 0xa0
 162 -178 195 -59 208 8 c 2
 273 355 l 1
 273 357 l 1
 273 360 271 363 269 363 c 2
 207 363 l 2
 204 363 204 367 204 369 c 0
 204 379 231 415 257 415 c 2
 279 415 l 2
 283 415 286 420 287 428 c 0
 315 588 439 685 555 685 c 0
356 -152 m 0
 419 -152 464 -70 482 26 c 2
 543 355 l 1
 543 357 l 1
 543 360 542 363 540 363 c 1
 373 363 l 2
 369 363 367 361 366 355 c 2
 310 57 l 2
 298 -4 281 -64 259 -93 c 1
 274 -138 336 -152 356 -152 c 0
EndSplineSet
Validated: 1
Ligature2: "'liga' Standard Ligatures in Latin lookup 0-1" f f
EndChar

StartChar: f_f_i
Encoding: 61698 61698 236
Width: 972
VWidth: 512
Flags: W
HStem: -224 46<45 146.27> -210 58<288.91 394.451> -8 75<809 886.351> 363 52<218.026 270.969 379.568 541.094 650.538 800.517> 638 47<469.114 582.235> 650 47<735.943 827.152>
VStem: 764 94<68.1549 213.562> 805 102<255.176 402>
LayerCount: 2
Fore
SplineSet
759 368 m 0x35
 643 363 l 2
 640 363 637 361 636 355 c 2
 585 81 l 2
 557 -70 428 -210 312 -210 c 0x75
 260 -210 220 -178 209 -166 c 1
 165 -209 113 -224 71 -224 c 0
 19 -224 -8 -201 -14 -184 c 1
 -14 -144 0 -112 34 -112 c 0
 68 -112 68 -178 108 -178 c 0
 162 -178 195 -59 208 8 c 2
 273 355 l 1
 273 357 l 1
 273 360 271 363 269 363 c 2
 207 363 l 2
 204 363 204 367 204 369 c 0
 204 379 231 415 257 415 c 2
 279 415 l 2
 283 415 286 420 287 428 c 0
 315 588 439 685 555 685 c 0xb9
 596 685 652 660 668 645 c 1
 708 678 762 697 812 697 c 0
 859 697 883 687 902 675 c 0
 926 661 940 645 948 629 c 1
 948 585 927 553 891 553 c 1
 866 553 862 584 843 608 c 0
 829 628 812 650 776 650 c 0
 735 650 674 565 648 421 c 0
 648 419 l 1
 648 417 649 415 651 415 c 2
 762 420 l 0
 779 420 884 428 889 428 c 3
 895 428 907 406 907 398 c 3x35
 907 390 904 359 899 331 c 0
 890 280 862 140 859 114 c 0
 858 110 858 104 858 100 c 0
 858 76 868 67 879 67 c 0
 898 67 933 132 937 132 c 0
 941 132 954 118 957 106 c 1
 947 81 895 -8 829 -8 c 3
 789 -8 764 21 764 77 c 1x36
 764 89 766 106 770 126 c 2
 803 302 l 2
 804 307 805 317 805 322 c 0
 805 343 792 368 759 368 c 0x35
526 638 m 0x38
 464 638 393 557 378 421 c 0
 378 419 l 1
 378 417 379 415 381 415 c 2
 550 415 l 2
 554 415 556 420 557 428 c 0
 566 481 582 516 597 554 c 0
 599 559 601 565 601 568 c 3
 601 573 601 575 600 580 c 0
 592 619 564 638 526 638 c 0x38
356 -152 m 0x70
 419 -152 464 -70 482 26 c 2
 543 355 l 1
 543 357 l 1
 543 360 542 363 540 363 c 1
 373 363 l 6
 369 363 367 361 366 355 c 2
 310 57 l 2
 299 -4 281 -64 259 -93 c 1
 274 -138 336 -152 356 -152 c 0x70
EndSplineSet
Validated: 1
Ligature2: "'liga' Standard Ligatures in Latin lookup 0-1" f f i
EndChar

StartChar: f_l
Encoding: 61699 61699 237
Width: 722
VWidth: 512
Flags: W
HStem: -224 46<45 147.849> -8 74<549 626.377> 363 52<219.026 272.938 381.734 508.432> 650 46<464.035 560.867>
VStem: 503 94<66.4121 207.379>
LayerCount: 2
Fore
SplineSet
374 363 m 6
 371 363 368 361 367 355 c 2
 311 57 l 2
 271 -151 157 -224 71 -224 c 0
 19 -224 -8 -201 -14 -184 c 1
 -14 -144 1 -112 35 -112 c 0
 69 -112 69 -178 109 -178 c 0
 163 -178 197 -60 209 8 c 2
 275 355 l 1
 275 357 l 1
 275 360 273 363 271 363 c 2
 209 363 l 2
 206 363 205 367 205 369 c 0
 205 379 232 415 258 415 c 2
 281 415 l 2
 285 415 288 420 289 428 c 0
 317 588 423 696 540 696 c 4
 587 696 608 678 631 678 c 4
 661 678 704 694 708 694 c 5
 709 694 710 694 712 694 c 7
 717 694 719 682 719 678 c 13
 719 678 701 643 690 588 c 6
 599 117 l 6
 598 113 597 105 597 100 c 4
 597 76 607 66 618 66 c 4
 637 66 672 132 676 132 c 4
 680 132 694 118 697 106 c 5
 687 81 635 -8 569 -8 c 7
 529 -8 503 21 503 77 c 5
 503 93 506 111 509 126 c 5
 510 129 592 552 592 552 c 6
 592 554 593 559 593 563 c 4
 593 620 539 650 503 650 c 4
 463 650 408 576 386 462 c 1
 385 456 380 427 379 421 c 1
 379 419 l 1
 379 417 381 415 383 415 c 6
 504 415 l 6
 510 415 511 407 511 401 c 5
 511 389 505 373 499 363 c 5
 374 363 l 6
EndSplineSet
Validated: 1
Ligature2: "'liga' Standard Ligatures in Latin lookup 0-1" f l
EndChar

StartChar: f_f_l
Encoding: 61700 61700 238
Width: 993
VWidth: 512
Flags: W
HStem: -224 46<45 146.27> -210 58<288.91 394.451> -8 74<820 897.377> 363 52<218.026 270.969 379.568 541.094 650.535 779.432> 638 47<469.114 582.235> 650 46<734.16 831.867>
VStem: 774 94<66.4121 207.379>
LayerCount: 2
Fore
SplineSet
774 650 m 0x36
 734 650 674 565 648 421 c 0
 648 419 l 1
 648 417 653 415 654 415 c 2
 775 415 l 2
 781 415 782 407 782 401 c 1
 782 389 776 373 770 363 c 1
 645 363 l 2
 643 363 637 361 636 355 c 2
 585 81 l 2
 557 -70 428 -210 312 -210 c 0x76
 260 -210 220 -178 209 -166 c 1
 165 -209 113 -224 71 -224 c 0
 19 -224 -8 -201 -14 -184 c 1
 -14 -144 0 -112 34 -112 c 0
 68 -112 68 -178 108 -178 c 0
 162 -178 195 -59 208 8 c 2
 273 355 l 1
 273 357 l 1
 273 360 271 363 269 363 c 2
 207 363 l 2
 204 363 204 367 204 369 c 0
 204 379 231 415 257 415 c 2
 279 415 l 2
 283 415 286 420 287 428 c 0
 315 588 439 685 555 685 c 0xba
 596 685 652 660 668 645 c 1
 708 678 762 696 811 696 c 0
 858 696 879 678 902 678 c 0
 932 678 975 694 979 694 c 1
 980 694 981 694 983 694 c 3
 988 694 990 682 990 678 c 9
 990 678 972 643 961 588 c 2
 870 117 l 2
 869 113 868 105 868 100 c 0
 868 76 878 66 889 66 c 0
 908 66 943 132 947 132 c 0
 951 132 965 118 968 106 c 1
 958 81 906 -8 840 -8 c 3
 800 -8 774 21 774 77 c 1
 774 93 777 111 780 126 c 1
 781 129 863 552 863 552 c 2
 863 554 864 559 864 563 c 0
 864 620 810 650 774 650 c 0x36
526 638 m 0x3a
 464 638 393 557 378 421 c 0
 378 419 l 1
 378 417 379 415 381 415 c 2
 550 415 l 2
 554 415 556 420 557 428 c 0
 566 481 582 516 597 554 c 0
 599 559 601 565 601 568 c 3
 601 573 601 575 600 580 c 0
 592 619 564 638 526 638 c 0x3a
356 -152 m 0x72
 419 -152 464 -70 482 26 c 2
 543 355 l 1
 543 357 l 1
 543 360 542 363 540 363 c 1
 373 363 l 2
 369 363 367 361 366 355 c 2
 310 57 l 2
 299 -4 281 -64 259 -93 c 1
 274 -138 336 -152 356 -152 c 0x72
EndSplineSet
Validated: 1
Ligature2: "'liga' Standard Ligatures in Latin lookup 0-1" f f l
EndChar

StartChar: f_b
Encoding: 61701 61701 239
Width: 909
VWidth: 512
Flags: W
HStem: -224 46<45 147.849> -8 52<601.876 684.094> 363 52<219.026 272.938 381.734 508.432> 368 74<746.383 823.932> 650 47<464.035 560.867>
VStem: 509 89<45.6312 210.344> 794 104<224.92 365.083>
LayerCount: 2
Fore
SplineSet
763 368 m 3xde
 704 368 626 256 613 188 c 2
 605 148 l 2
 601 126 598 91 598 86 c 3
 598 64 607 44 631 44 c 3
 713 44 794 200 794 320 c 3
 794 339 787 368 763 368 c 3xde
592 552 m 2
 593 558 593 559 593 563 c 0
 593 620 539 650 503 650 c 0
 463 650 408 576 386 462 c 1
 385 456 380 427 379 421 c 1
 379 419 l 1
 379 417 381 415 383 415 c 2
 504 415 l 2
 510 415 511 407 511 401 c 1
 511 389 505 373 499 363 c 1
 374 363 l 2
 371 363 368 361 367 355 c 2
 311 57 l 2
 271 -151 157 -224 71 -224 c 0
 19 -224 -8 -201 -14 -184 c 1
 -14 -144 1 -112 35 -112 c 0
 69 -112 69 -178 109 -178 c 0
 163 -178 197 -60 209 8 c 2
 275 355 l 1
 275 357 l 1
 275 360 273 363 271 363 c 2
 209 363 l 2
 206 363 205 367 205 369 c 0
 205 379 232 415 258 415 c 2
 281 415 l 2xee
 285 415 288 420 289 428 c 0
 317 588 423 697 540 697 c 0
 587 697 608 678 631 678 c 0
 661 678 704 694 708 694 c 1
 709 694 710 694 712 694 c 3
 717 694 719 682 719 678 c 9
 719 678 701 644 690 588 c 10
 641 330 l 2
 641 326 641 324 643 324 c 3
 645 324 646 324 649 328 c 0
 692 388 764 442 807 442 c 0
 858 442 898 411 898 329 c 3
 898 169 730 -8 616 -8 c 3
 544 -8 509 34 509 87 c 3
 509 99 511 132 517 160 c 2
 592 552 l 2
EndSplineSet
Validated: 1
Ligature2: "'liga' Standard Ligatures in Latin lookup 0-1" f b
EndChar

StartChar: f_f_b
Encoding: 61702 61702 240
Width: 1180
VWidth: 512
Flags: W
HStem: -224 46<45 146.27> -210 58<288.91 394.451> -8 52<872.876 955.094> 363 52<218.026 270.969 379.568 541.094 650.535 779.432> 368 74<1017.38 1094.93> 638 47<469.114 582.235> 650 47<734.16 831.867>
VStem: 780 89<45.6312 210.344> 1065 104<224.92 365.083>
LayerCount: 2
Fore
SplineSet
1034 368 m 3x2980
 975 368 897 256 884 188 c 2
 876 148 l 2
 872 126 869 91 869 86 c 3
 869 64 878 44 902 44 c 3
 984 44 1065 200 1065 320 c 3
 1065 339 1058 368 1034 368 c 3x2980
863 552 m 2
 864 554 864 559 864 563 c 0
 864 620 810 650 774 650 c 0
 734 650 674 565 648 421 c 0
 648 419 l 1
 648 417 653 415 654 415 c 2
 775 415 l 2
 781 415 782 407 782 401 c 1
 782 389 776 373 770 363 c 1
 645 363 l 2
 643 363 637 361 636 355 c 2
 585 81 l 2
 557 -70 428 -210 312 -210 c 0x7380
 260 -210 220 -178 209 -166 c 1
 165 -209 113 -224 71 -224 c 0
 19 -224 -8 -201 -14 -184 c 1
 -14 -144 0 -112 34 -112 c 0
 68 -112 68 -178 108 -178 c 0
 162 -178 195 -59 208 8 c 2
 273 355 l 1
 273 357 l 1
 273 360 271 363 269 363 c 2
 207 363 l 2
 204 363 204 367 204 369 c 0
 204 379 231 415 257 415 c 2
 279 415 l 2
 283 415 286 420 287 428 c 0
 315 588 439 685 555 685 c 0xb580
 596 685 652 660 668 645 c 1
 708 678 762 697 811 697 c 0x2380
 858 697 879 678 902 678 c 0
 932 678 975 694 979 694 c 1
 980 694 981 694 983 694 c 3
 988 694 990 682 990 678 c 9
 990 678 972 644 961 588 c 10
 912 330 l 2
 912 326 912 324 914 324 c 3
 916 324 917 324 920 328 c 0
 963 388 1035 442 1078 442 c 0
 1129 442 1169 411 1169 329 c 3
 1169 169 1001 -8 887 -8 c 3
 815 -8 780 34 780 87 c 3
 780 99 782 132 788 160 c 2
 863 552 l 2
526 638 m 0x3580
 464 638 393 557 378 421 c 0
 378 419 l 1
 378 417 379 415 381 415 c 2
 550 415 l 2
 554 415 556 420 557 428 c 0
 566 481 582 516 597 554 c 0
 599 559 601 565 601 568 c 3
 601 573 601 575 600 580 c 0
 592 619 564 638 526 638 c 0x3580
356 -152 m 0x7180
 419 -152 464 -70 482 26 c 2
 543 355 l 1
 543 357 l 1
 543 360 542 363 540 363 c 1
 373 363 l 2
 369 363 367 361 366 355 c 2
 310 57 l 2
 299 -4 281 -64 259 -93 c 1
 274 -138 336 -152 356 -152 c 0x7180
EndSplineSet
Validated: 1
Ligature2: "'liga' Standard Ligatures in Latin lookup 0-1" f f b
EndChar

StartChar: f_k
Encoding: 61703 61703 241
Width: 932
VWidth: 0
Flags: W
HStem: -224 46<45 147.849> -2 63<799.723 862.103> 363 52<219.026 272.938 381.734 508.432> 382 60<725.023 817> 650 46<464.035 560.867>
VStem: 794 98<285.397 377.457>
LayerCount: 2
Fore
SplineSet
540 696 m 0xec
 587 696 608 678 631 678 c 0
 661 678 704 694 708 694 c 1
 709 694 710 694 712 694 c 3
 717 694 719 682 719 678 c 9
 719 678 701 644 690 588 c 2
 641 336 l 2
 641 333 641 331 643 331 c 3
 645 331 646 334 649 339 c 0
 664 363 717 442 791 442 c 3xdc
 843 442 892 408 892 356 c 27
 892 264 799 217 713 204 c 1
 769 112 807 61 838 61 c 0
 864 61 881 98 889 109 c 0
 890 110 893 110 895 110 c 3
 903 110 913 103 915 97 c 1
 907 73 871 -2 802 -2 c 0
 756 -2 724 26 691 65 c 0
 655 108 616 194 616 194 c 2
 616 195 615 195 615 195 c 3
 614 195 613 194 613 193 c 0
 598 118 591 75 576 0 c 17
 564 -4 543 -6 532 -6 c 0
 521 -6 497 -3 485 0 c 1
 485 0 550 336 592 552 c 16
 592 554 593 559 593 563 c 0
 593 620 539 650 503 650 c 0
 463 650 408 576 386 462 c 1
 385 456 380 427 379 421 c 1
 379 419 l 1
 379 417 381 415 383 415 c 2
 504 415 l 2
 510 415 511 407 511 401 c 1
 511 389 505 373 499 363 c 1
 374 363 l 2
 371 363 368 361 367 355 c 2
 311 57 l 2
 271 -151 157 -224 71 -224 c 0
 19 -224 -8 -201 -14 -184 c 1
 -14 -144 1 -112 35 -112 c 0
 69 -112 69 -178 109 -178 c 0
 163 -178 197 -60 209 8 c 2
 275 355 l 1
 275 357 l 1
 275 360 273 363 271 363 c 2
 209 363 l 2
 206 363 205 367 205 369 c 0
 205 379 232 415 258 415 c 2
 281 415 l 2
 285 415 288 420 289 428 c 0
 317 588 423 696 540 696 c 0xec
756 382 m 3
 703 382 628 266 628 242 c 3
 628 238 635 235 646 235 c 0
 654 235 718 243 755 267 c 0
 779 283 794 307 794 333 c 3
 794 356 781 382 756 382 c 3
EndSplineSet
Validated: 1
Ligature2: "'liga' Standard Ligatures in Latin lookup 0-1" f k
EndChar

StartChar: f_f_k
Encoding: 61704 61704 242
Width: 1203
VWidth: 512
Flags: W
HStem: -224 46<45 146.27> -210 58<288.91 394.451> -2 63<1070.72 1133.1> 363 52<218.026 270.969 379.568 541.094 650.535 779.432> 382 60<996.023 1088> 638 47<469.114 582.235> 650 46<734.16 831.867>
VStem: 1065 98<285.397 377.457>
LayerCount: 2
Fore
SplineSet
863 552 m 16x2b
 863 554 864 559 864 563 c 0
 864 620 810 650 774 650 c 0
 734 650 674 565 648 421 c 0
 648 419 l 1
 648 417 653 415 654 415 c 2
 775 415 l 2
 781 415 782 407 782 401 c 1
 782 389 776 373 770 363 c 1
 645 363 l 2
 643 363 637 361 636 355 c 2
 585 81 l 2
 557 -70 428 -210 312 -210 c 0x73
 260 -210 220 -178 209 -166 c 1
 165 -209 113 -224 71 -224 c 0
 19 -224 -8 -201 -14 -184 c 1
 -14 -144 0 -112 34 -112 c 0
 68 -112 68 -178 108 -178 c 0
 162 -178 195 -59 208 8 c 2
 273 355 l 1
 273 357 l 1
 273 360 271 363 269 363 c 2
 207 363 l 2
 204 363 204 367 204 369 c 0
 204 379 231 415 257 415 c 2
 279 415 l 2
 283 415 286 420 287 428 c 0
 315 588 439 685 555 685 c 0xb5
 596 685 652 660 668 645 c 1
 708 678 762 696 811 696 c 0
 858 696 879 678 902 678 c 0
 932 678 975 694 979 694 c 1
 980 694 981 694 983 694 c 3
 988 694 990 682 990 678 c 9
 990 678 972 644 961 588 c 2
 912 336 l 2
 912 333 912 331 914 331 c 3
 916 331 917 334 920 339 c 0
 935 363 988 442 1062 442 c 3
 1114 442 1163 408 1163 356 c 27
 1163 264 1070 217 984 204 c 1
 1040 112 1078 61 1109 61 c 0
 1135 61 1152 98 1160 109 c 0
 1161 110 1164 110 1166 110 c 3
 1174 110 1184 103 1186 97 c 1
 1178 73 1142 -2 1073 -2 c 0
 1027 -2 995 26 962 65 c 0
 926 108 887 194 887 194 c 2
 887 195 886 195 886 195 c 3
 885 195 884 194 884 193 c 0
 869 118 862 75 847 0 c 17
 835 -4 814 -6 803 -6 c 0
 792 -6 768 -3 756 0 c 1
 756 0 821 336 863 552 c 16x2b
1027 382 m 3x29
 974 382 899 266 899 242 c 3
 899 238 906 235 917 235 c 0
 925 235 989 243 1026 267 c 0
 1050 283 1065 307 1065 333 c 3
 1065 356 1052 382 1027 382 c 3x29
526 638 m 0x35
 464 638 393 557 378 421 c 0
 378 419 l 1
 378 417 379 415 381 415 c 2
 550 415 l 2
 554 415 556 420 557 428 c 0
 566 481 582 516 597 554 c 0
 599 559 601 565 601 568 c 3
 601 573 601 575 600 580 c 0
 592 619 564 638 526 638 c 0x35
356 -152 m 0x71
 419 -152 464 -70 482 26 c 2
 543 355 l 1
 543 357 l 1
 543 360 542 363 540 363 c 1
 373 363 l 2
 369 363 367 361 366 355 c 2
 310 57 l 2
 299 -4 281 -64 259 -93 c 1
 274 -138 336 -152 356 -152 c 0x71
EndSplineSet
Validated: 1
Ligature2: "'liga' Standard Ligatures in Latin lookup 0-1" f f k
EndChar

StartChar: f_h
Encoding: 61705 61705 243
Width: 936
VWidth: 512
Flags: W
HStem: -224 46<45 147.849> -8 74<778 853.377> 351 91<735.637 823> 363 52<219.026 272.938 381.734 508.432> 650 46<464.035 560.867>
VStem: 730 94<67.3359 205.388> 769 96<208.567 378>
LayerCount: 2
Fore
SplineSet
690 588 m 0xda
 680 537 629 279 629 276 c 0
 629 275 630 275 630 275 c 3
 631 275 631 275 631 275 c 16
 644 300 727 442 799 442 c 0
 847 442 865 401 865 355 c 0xea
 865 322 857 285 852 258 c 2
 826 117 l 2
 825 114 824 105 824 100 c 0
 824 76 834 66 845 66 c 0
 864 66 899 132 903 132 c 0
 907 132 921 118 924 106 c 1
 914 81 862 -8 796 -8 c 3
 760 -8 730 16 730 77 c 0xec
 730 130 769 257 769 307 c 0
 769 333 766 351 746 351 c 0xea
 710 351 620 214 591 76 c 9
 575 0 l 17
 565 -3 543 -5 533 -5 c 0
 523 -5 497 -4 485 0 c 1
 592 552 l 2
 592 554 593 559 593 563 c 0
 593 620 539 650 503 650 c 0
 463 650 408 576 386 462 c 1
 385 456 380 427 379 421 c 1
 379 419 l 1
 379 417 381 415 383 415 c 2
 504 415 l 2
 510 415 511 407 511 401 c 1
 511 389 505 373 499 363 c 1
 374 363 l 2
 371 363 368 361 367 355 c 2
 311 57 l 2
 271 -151 157 -224 71 -224 c 0
 19 -224 -8 -201 -14 -184 c 1
 -14 -144 1 -112 35 -112 c 0
 69 -112 69 -178 109 -178 c 0
 163 -178 197 -60 209 8 c 2
 275 355 l 1
 275 357 l 1
 275 360 273 363 271 363 c 2
 209 363 l 2
 206 363 205 367 205 369 c 0
 205 379 232 415 258 415 c 2
 281 415 l 2
 285 415 288 420 289 428 c 0
 317 588 423 696 540 696 c 0
 587 696 608 678 631 678 c 0
 661 678 704 694 708 694 c 1
 709 694 710 694 712 694 c 3
 717 694 719 682 719 678 c 9
 719 678 701 643 690 588 c 0xda
EndSplineSet
Validated: 1
Ligature2: "'liga' Standard Ligatures in Latin lookup 0-1" f h
EndChar

StartChar: f_f_h
Encoding: 61706 61706 244
Width: 1207
VWidth: 512
Flags: W
HStem: -224 46<45 146.27> -210 58<288.91 394.451> -8 74<1049 1124.38> 351 91<1006.64 1094> 363 52<218.026 270.969 379.568 541.094 650.535 779.432> 638 47<469.114 582.235> 650 46<734.16 831.867>
VStem: 1001 94<67.3359 205.388> 1040 96<208.567 378>
LayerCount: 2
Fore
SplineSet
961 588 m 0x2280
 951 537 900 279 900 276 c 0
 900 275 901 275 901 275 c 3
 902 275 902 275 902 275 c 16
 915 300 998 442 1070 442 c 0
 1118 442 1136 401 1136 355 c 0x3280
 1136 322 1128 285 1123 258 c 2
 1097 117 l 2
 1096 114 1095 105 1095 100 c 0
 1095 76 1105 66 1116 66 c 0
 1135 66 1170 132 1174 132 c 0
 1178 132 1192 118 1195 106 c 1
 1185 81 1133 -8 1067 -8 c 3
 1031 -8 1001 16 1001 77 c 0x33
 1001 130 1040 257 1040 307 c 0
 1040 333 1037 351 1017 351 c 0x3280
 981 351 891 214 862 76 c 9
 846 0 l 17
 836 -3 814 -5 804 -5 c 0
 794 -5 768 -4 756 0 c 1
 863 552 l 2
 863 554 864 559 864 563 c 0
 864 620 810 650 774 650 c 0
 734 650 674 565 648 421 c 0
 648 419 l 1
 648 417 653 415 654 415 c 2
 775 415 l 2
 781 415 782 407 782 401 c 1
 782 389 776 373 770 363 c 1
 645 363 l 2
 643 363 637 361 636 355 c 2
 585 81 l 2
 557 -70 428 -210 312 -210 c 0x6a80
 260 -210 220 -178 209 -166 c 1
 165 -209 113 -224 71 -224 c 0
 19 -224 -8 -201 -14 -184 c 1
 -14 -144 0 -112 34 -112 c 0
 68 -112 68 -178 108 -178 c 0
 162 -178 195 -59 208 8 c 2
 273 355 l 1
 273 357 l 1
 273 360 271 363 269 363 c 2
 207 363 l 2
 204 363 204 367 204 369 c 0
 204 379 231 415 257 415 c 2
 279 415 l 2
 283 415 286 420 287 428 c 0
 315 588 439 685 555 685 c 0xac80
 596 685 652 660 668 645 c 1
 708 678 762 696 811 696 c 0
 858 696 879 678 902 678 c 0
 932 678 975 694 979 694 c 1
 980 694 981 694 983 694 c 3
 988 694 990 682 990 678 c 9
 990 678 972 643 961 588 c 0x2280
526 638 m 0x2c
 464 638 393 557 378 421 c 0
 378 419 l 1
 378 417 379 415 381 415 c 2
 550 415 l 2
 554 415 556 420 557 428 c 0
 566 481 582 516 597 554 c 0
 599 559 601 565 601 568 c 3
 601 573 601 575 600 580 c 0
 592 619 564 638 526 638 c 0x2c
356 -152 m 0x68
 419 -152 464 -70 482 26 c 2
 543 355 l 1
 543 357 l 1
 543 360 542 363 540 363 c 1
 373 363 l 2
 369 363 367 361 366 355 c 2
 310 57 l 2
 299 -4 281 -64 259 -93 c 1
 274 -138 336 -152 356 -152 c 0x68
EndSplineSet
Validated: 1
Ligature2: "'liga' Standard Ligatures in Latin lookup 0-1" f f h
EndChar

StartChar: f_j
Encoding: 61707 61707 245
Width: 678
VWidth: 0
Flags: W
HStem: -226 21G<362 380> -224 46<45 147.849> 363 52<219.026 272.938 381.734 541.379> 650 47<464.457 555.043>
VStem: 545 101<257.759 402>
LayerCount: 2
Fore
SplineSet
637 331 m 0x78
 628 280 599 122 591 82 c 0
 579 22 556 -57 515 -113 c 0
 473 -169 396 -215 364 -226 c 1xb8
 360 -223 352 -214 352 -204 c 1
 352 -199 355 -197 358 -194 c 0
 441 -126 469 -69 495 61 c 1
 542 302 l 2
 543 307 545 319 545 324 c 0
 545 345 537 368 504 368 c 0
 476 368 374 363 374 363 c 2
 371 363 368 361 367 355 c 2
 311 57 l 2
 271 -151 157 -224 71 -224 c 0
 19 -224 -8 -201 -14 -184 c 1
 -14 -144 1 -112 35 -112 c 0
 69 -112 69 -178 109 -178 c 0
 163 -178 197 -60 209 8 c 2
 275 355 l 1
 275 357 l 1
 275 360 273 363 271 363 c 2
 209 363 l 2
 206 363 205 367 205 369 c 0
 205 379 232 415 258 415 c 2
 281 415 l 2
 285 415 288 420 289 428 c 0
 317 588 424 697 540 697 c 0
 587 697 612 687 631 675 c 0
 655 661 668 645 676 629 c 1
 676 585 655 553 619 553 c 1
 594 553 590 584 571 608 c 0
 557 628 539 650 503 650 c 0
 464 650 408 576 386 462 c 1
 385 456 380 427 379 421 c 1
 379 419 l 1
 379 417 381 415 383 415 c 1
 395 415 498 419 507 420 c 0
 523 421 624 428 629 428 c 3
 635 428 646 406 646 398 c 3
 646 390 642 359 637 331 c 0x78
EndSplineSet
Validated: 1
Ligature2: "'liga' Standard Ligatures in Latin lookup 0-1" f j
EndChar

StartChar: f_f_j
Encoding: 61708 61708 246
Width: 944
VWidth: 512
Flags: W
HStem: -226 21G<617 635> -224 46<45 146.27> -210 58<288.91 394.451> 363 52<218.026 270.969 379.568 541.094 650.538 796.379> 638 47<469.114 582.235> 650 47<735.943 827.152>
VStem: 800 101<257.759 402>
LayerCount: 2
Fore
SplineSet
762 420 m 0x16
 778 421 879 428 884 428 c 3
 890 428 901 406 901 398 c 3
 901 390 897 359 892 331 c 0
 883 280 854 122 846 82 c 0
 834 22 811 -57 770 -113 c 0
 728 -169 651 -215 619 -226 c 1x96
 615 -223 607 -214 607 -204 c 1
 607 -199 610 -197 613 -194 c 0
 696 -126 724 -69 750 61 c 8
 768 155 797 302 797 302 c 2
 798 307 800 319 800 324 c 0
 800 345 792 368 759 368 c 0
 643 363 l 2
 640 363 637 361 636 355 c 2
 585 81 l 2
 557 -70 428 -210 312 -210 c 0x32
 260 -210 220 -178 209 -166 c 1
 165 -209 113 -224 71 -224 c 0
 19 -224 -8 -201 -14 -184 c 1
 -14 -144 0 -112 34 -112 c 0
 68 -112 68 -178 108 -178 c 0
 162 -178 195 -59 208 8 c 2
 273 355 l 1
 273 357 l 1
 273 360 271 363 269 363 c 2
 207 363 l 2
 204 363 204 367 204 369 c 0
 204 379 231 415 257 415 c 2
 279 415 l 2
 283 415 286 420 287 428 c 0
 315 588 439 685 555 685 c 0x5a
 596 685 652 660 668 645 c 1
 708 678 762 697 812 697 c 0
 859 697 883 687 902 675 c 0
 926 661 940 645 948 629 c 1
 948 585 927 553 891 553 c 1
 866 553 862 584 843 608 c 0
 829 628 812 650 776 650 c 0
 735 650 674 565 648 421 c 0
 648 419 l 1
 648 417 649 415 651 415 c 2
 762 420 l 0x16
526 638 m 0x1a
 464 638 393 557 378 421 c 0
 378 419 l 1
 378 417 379 415 381 415 c 2
 550 415 l 2
 554 415 556 420 557 428 c 0
 566 481 582 516 597 554 c 0
 599 559 601 565 601 568 c 3
 601 573 601 575 600 580 c 0
 592 619 564 638 526 638 c 0x1a
356 -152 m 0x32
 419 -152 464 -70 482 26 c 2
 543 355 l 1
 543 357 l 1
 543 360 542 363 540 363 c 1
 373 363 l 2
 369 363 367 361 366 355 c 2
 310 57 l 2
 299 -4 281 -64 259 -93 c 1
 274 -138 336 -152 356 -152 c 0x32
EndSplineSet
Validated: 1
Ligature2: "'liga' Standard Ligatures in Latin lookup 0-1" f f j
EndChar

StartChar: T_h
Encoding: 61709 61709 247
Width: 925
VWidth: 512
Flags: W
HStem: -8 74<781.544 842.351> -4 30<62.6719 120.95 259.958 301.623> 351 91<707.5 812> 611 50<76.5244 237.891 354.654 566.573> 674 20G<689 703.5>
VStem: -2 32<512.927 543.182> 719 94<67.3359 205.388> 758 96<208.567 378>
LayerCount: 2
Fore
SplineSet
580 544 m 2xbd
 580 546 582 552 582 554 c 0
 582 602 530 611 456 611 c 0
 390 611 361 603 357 594 c 0
 344 566 339 539 331 500 c 2
 261 139 l 2
 255 106 251 85 251 54 c 1
 251 36 297 26 301 26 c 1
 302 26 303 24 303 22 c 0
 303 15 300 1 297 -4 c 1
 260 -2 222 3 181 3 c 0
 138 3 106 -2 63 -4 c 1
 62 -3 62 1 62 4 c 0
 62 13 66 26 69 26 c 0
 80 26 123 36 130 49 c 0
 141 71 150 110 155 138 c 2
 225 497 l 2
 232 531 238 560 238 585 c 0
 238 603 234 611 151 611 c 0
 91 611 62 592 30 518 c 0
 28 514 26 512 21 512 c 0
 13 512 0 517 -2 520 c 1
 45 672 l 1
 59 668 94 661 107 661 c 0
 190 660 235 656 309 656 c 0
 383 656 459 657 535 661 c 0
 611 665 681 690 697 694 c 1
 698 694 699 694 701 694 c 3
 706 694 709 682 709 678 c 1
 709 678 687 631 678 583 c 0
 668 532 619 279 619 276 c 0
 619 275 619 275 619 275 c 3
 620 275 620 275 621 275 c 16
 634 300 716 442 788 442 c 0
 836 442 854 401 854 355 c 0x7d
 854 322 846 285 841 258 c 2
 815 117 l 2
 814 114 813 105 813 100 c 0
 813 76 824 66 835 66 c 0
 854 66 889 132 893 132 c 0
 897 132 910 118 913 106 c 1
 903 81 851 -8 785 -8 c 3
 749 -8 719 16 719 77 c 0xbe
 719 130 758 257 758 307 c 0
 758 333 755 351 735 351 c 0
 699 351 609 214 580 76 c 9
 564 0 l 17
 554 -3 532 -5 522 -5 c 0
 512 -5 486 -4 474 0 c 1
 580 544 l 2xbd
EndSplineSet
Validated: 1
Ligature2: "'liga' Standard Ligatures in Latin lookup 0-1" T h
EndChar

StartChar: uni0304
Encoding: 772 772 248
Width: 344
Flags: W
HStem: 540 58<67.0156 288.328>
VStem: 59 238
LayerCount: 2
Fore
SplineSet
59 550 m 0
 65 575 75 598 81 598 c 2
 293 598 l 2
 295 598 299 596 297 589 c 0
 293 573 288 561 282 548 c 0
 278 542 274 540 274 540 c 1
 62 540 l 1
 62 540 57 539 59 550 c 0
EndSplineSet
Validated: 1
EndChar

StartChar: uni0305
Encoding: 773 773 249
Width: 714
Flags: W
HStem: 736 68<84.5595 625.857>
LayerCount: 2
Fore
SplineSet
74 746 m 0
 74 748 88 804 98 804 c 2
 639 804 l 2
 641 804 644 803 642 795 c 0
 639 777 628 748 626 744 c 0
 623 738 616 736 616 736 c 1
 78 736 l 1
 78 736 72 736 74 746 c 0
EndSplineSet
Validated: 1
EndChar

StartChar: uni0306
Encoding: 774 774 250
Width: 307
Flags: W
HStem: 520 53<105.755 206.254>
VStem: 59 30<597.347 637.58> 243 23<618.755 638.76>
LayerCount: 2
Fore
SplineSet
155 573 m 0
 189 573 225 598 243 638 c 0
 243 640 245 642 247 642 c 0
 253 642 267 630 266 624 c 0
 266 622 263 618 263 616 c 0
 241 563 194 520 144 520 c 0
 94 520 59 562 59 617 c 0
 59 619 59 622 59 624 c 0
 60 630 79 642 85 642 c 0
 87 642 89 640 89 638 c 0
 91 598 121 573 155 573 c 0
EndSplineSet
Validated: 1
EndChar

StartChar: uni0307
Encoding: 775 775 251
Width: 218
Flags: W
HStem: 518 125<79.3225 152.173>
VStem: 58 116<539.524 622.045>
LayerCount: 2
Fore
SplineSet
58 580 m 0
 64 614 95 643 127 643 c 0
 159 643 180 614 174 580 c 0
 168 546 136 518 104 518 c 0
 72 518 52 546 58 580 c 0
EndSplineSet
Validated: 33
EndChar

StartChar: uni0308
Encoding: 776 776 252
Width: 381
Flags: W
HStem: 468 116<73.293 144.161 246.556 316.778>
VStem: 54 108<485.996 564.985> 227 108<485.996 564.985>
LayerCount: 2
Fore
SplineSet
294 584 m 1
 324 584 341 558 335 526 c 0
 329 494 300 468 270 468 c 1
 240 468 221 494 227 526 c 0
 233 558 264 584 294 584 c 1
120 584 m 1
 150 584 168 558 162 526 c 0
 156 494 128 468 98 468 c 1
 68 468 48 494 54 526 c 0
 60 558 90 584 120 584 c 1
EndSplineSet
Validated: 33
EndChar

StartChar: hookabovecomb
Encoding: 777 777 253
Width: 249
Flags: W
HStem: 631 34<115.16 180.126>
VStem: 56 52<576.216 626.907>
LayerCount: 2
Fore
SplineSet
162 665 m 0
 198 665 214 642 208 610 c 0
 202 575 173 550 148 540 c 0
 128 532 117 526 115 514 c 0
 114 509 115 503 116 500 c 1
 115 496 97 489 88 489 c 1
 84 491 71 502 73 514 c 0
 78 540 108 552 124 560 c 0
 146 570 158 582 162 600 c 0
 164 614 162 631 144 631 c 0
 124 631 112 618 108 595 c 0
 105 579 82 574 70 574 c 0
 62 574 54 579 56 587 c 0
 64 629 119 665 162 665 c 0
EndSplineSet
Validated: 33
EndChar

StartChar: uni030A
Encoding: 778 778 254
Width: 278
Flags: W
HStem: 506 40<101.948 179.364> 655 39<116.837 192.531>
VStem: 61 174
LayerCount: 2
Fore
SplineSet
97 600 m 0
 91 570 109 546 137 546 c 0
 165 546 192 570 198 600 c 0
 204 630 187 655 159 655 c 0
 131 655 103 630 97 600 c 0
61 600 m 0
 71 652 119 694 167 694 c 0
 215 694 245 652 235 600 c 0
 225 548 177 506 129 506 c 0
 81 506 51 548 61 600 c 0
EndSplineSet
Validated: 33
EndChar

StartChar: uni030B
Encoding: 779 779 255
Width: 406
Flags: W
HStem: 518 146<200 211>
VStem: 57 312
LayerCount: 2
Fore
SplineSet
204 518 m 0
 200 518 193 528 193 534 c 0
 193 542 268 631 303 660 c 0
 307 662 315 664 323 664 c 0
 347 664 369 648 369 630 c 0
 369 593 214 518 204 518 c 0
68 518 m 0
 64 518 57 528 57 534 c 0
 57 542 132 631 167 660 c 0
 171 662 179 664 187 664 c 0
 211 664 234 648 234 630 c 0
 234 593 78 518 68 518 c 0
EndSplineSet
Validated: 1
EndChar

StartChar: uni030C
Encoding: 780 780 256
Width: 294
Flags: W
HStem: 493 158
VStem: 54 203
LayerCount: 2
Fore
SplineSet
146 581 m 1
 176 605 244 651 254 651 c 0
 260 651 259 638 257 628 c 1
 252 623 225 600 185 556 c 0
 167 536 155 518 141 502 c 0
 136 496 135 493 130 493 c 1
 126 493 123 495 121 502 c 0
 115 518 108 535 96 557 c 0
 74 599 59 620 54 628 c 1
 56 636 61 651 67 651 c 0
 77 651 126 606 146 581 c 1
EndSplineSet
Validated: 1
EndChar

StartChar: uni0312
Encoding: 786 786 257
Width: 248
Flags: W
HStem: 469 174
VStem: 155 76<494.376 574.069>
LayerCount: 2
Fore
SplineSet
259 518 m 0
 259 484 206 469 167 469 c 1
 160 477 155 498 155 514 c 0
 155 568 215 625 258 643 c 1
 259 643 262 644 264 644 c 0
 273 644 283 637 283 633 c 0
 283 629 231 601 231 570 c 0
 231 538 259 546 259 518 c 0
EndSplineSet
Validated: 1
EndChar

StartChar: uni0315
Encoding: 789 789 258
Width: 139
Flags: W
HStem: 460 207
VStem: 154 87<555.745 632.095> 168 73<553.997 649.635>
LayerCount: 2
Fore
SplineSet
154 603 m 0xc0
 154 652 198 667 237 667 c 1
 240 661 241 652 241 641 c 0
 241 629 240 615 237 600 c 0
 227 546 167 479 134 460 c 1
 130 460 l 2
 124 460 117 471 117 477 c 0
 117 483 168 512 168 555 c 0xa0
 168 571 154 580 154 603 c 0xc0
EndSplineSet
Validated: 1
EndChar

StartChar: dotbelowcomb
Encoding: 803 803 259
Width: 254
Flags: W
HStem: -162 124<85.7524 157.818>
VStem: 64 116<-140.476 -59.5239>
LayerCount: 2
Fore
SplineSet
64 -100 m 0
 70 -66 102 -38 134 -38 c 0
 166 -38 186 -66 180 -100 c 0
 174 -134 141 -162 109 -162 c 0
 77 -162 58 -134 64 -100 c 0
EndSplineSet
Validated: 33
EndChar

StartChar: uni0326
Encoding: 806 806 260
Width: 248
Flags: W
HStem: -170 174
VStem: 105 76<-101.069 -21.3762>
LayerCount: 2
Fore
SplineSet
77 -45 m 4
 77 -11 130 4 169 4 c 5
 176 -4 181 -25 181 -41 c 4
 181 -95 121 -152 78 -170 c 5
 77 -170 74 -171 72 -171 c 4
 63 -171 53 -164 53 -160 c 4
 53 -156 105 -128 105 -97 c 4
 105 -65 77 -73 77 -45 c 4
EndSplineSet
Validated: 1
EndChar

StartChar: uni0327
Encoding: 807 807 261
Width: 241
Flags: W
HStem: -154 28<47.8094 126.566> -23 20G<114 143>
VStem: 41 140
LayerCount: 2
Fore
SplineSet
124 -28 m 1
 124 -28 141 -27 145 -27 c 1
 171 -27 186 -51 181 -77 c 0
 172 -124 129 -154 77 -154 c 0
 61 -154 46 -148 41 -142 c 1
 41 -138 40 -131 41 -126 c 0
 42 -119 50 -112 54 -112 c 0
 62 -112 73 -126 91 -126 c 0
 117 -126 133 -111 136 -95 c 0
 140 -76 131 -64 117 -64 c 0
 109 -64 99 -66 89 -70 c 0
 87 -70 78 -60 81 -56 c 0
 92 -41 109 -17 119 -3 c 1
 143 -3 l 1
 124 -28 l 1
EndSplineSet
Validated: 33
EndChar

StartChar: gravecomb.cap
Encoding: 63632 63632 262
Width: 327
Flags: W
HStem: 700 108
VStem: 67 193
LayerCount: 2
Fore
SplineSet
247 700 m 4
 230 700 67 750 67 777 c 4
 67 798 100 808 131 808 c 4
 142 808 150 806 156 803 c 4
 193 781 260 721 260 714 c 4
 260 707 252 700 247 700 c 4
EndSplineSet
Validated: 1
EndChar

StartChar: acutecomb.cap
Encoding: 63633 63633 263
Width: 330
Flags: W
HStem: 700 108
VStem: 71 194
LayerCount: 2
Fore
SplineSet
84 700 m 4
 79 700 71 708 71 715 c 4
 71 722 139 781 176 803 c 4
 182 806 189 808 200 808 c 4
 231 808 265 798 265 777 c 4
 265 750 101 700 84 700 c 4
EndSplineSet
Validated: 1
EndChar

StartChar: uni0302.cap
Encoding: 63634 63634 264
Width: 400
Flags: W
HStem: 715 136
VStem: 72 258
LayerCount: 2
Fore
SplineSet
315 715 m 0
 302 715 238 755 209 775 c 1
 171 753 91 715 78 715 c 0
 70 715 70 728 72 734 c 1
 82 742 110 759 156 795 c 0
 181 814 197 828 211 842 c 0
 218 848 220 851 225 851 c 0
 230 851 235 847 238 842 c 0
 248 828 256 814 270 796 c 0
 302 758 327 738 330 734 c 1
 328 726 322 715 315 715 c 0
EndSplineSet
Validated: 1
EndChar

StartChar: uni030A.cap
Encoding: 63635 63635 265
Width: 273
Flags: W
HStem: 581 40<103.136 179.298> 730 39<117.637 192.972>
VStem: 60 174
LayerCount: 2
Fore
SplineSet
98 676 m 0
 92 646 110 621 138 621 c 0
 166 621 192 646 198 676 c 0
 204 706 187 730 159 730 c 0
 131 730 104 706 98 676 c 0
60 676 m 0
 70 728 118 769 166 769 c 0
 214 769 244 728 234 676 c 0
 224 624 178 581 130 581 c 0
 82 581 50 624 60 676 c 0
EndSplineSet
Validated: 33
EndChar

StartChar: tildecomb.cap
Encoding: 63636 63636 266
Width: 487
Flags: W
HStem: 721 58<274.931 369.629> 782 58<123.06 216.994>
LayerCount: 2
Fore
SplineSet
76 731 m 0
 69 731 71 743 73 750 c 0
 77 767 87 782 97 794 c 0
 125 824 151 840 183 840 c 0
 250 840 274 779 341 779 c 0
 370 779 406 830 415 830 c 0
 419 830 420 819 418 810 c 0
 416 796 403 778 393 766 c 0
 365 734 341 721 309 721 c 0
 241 721 219 782 151 782 c 0
 123 782 86 731 76 731 c 0
EndSplineSet
Validated: 1
EndChar

StartChar: uni0304.cap
Encoding: 63637 63637 267
Width: 401
Flags: W
HStem: 645 55<75.6218 336.734>
VStem: 68 277
LayerCount: 2
Fore
SplineSet
68 652 m 0
 68 663 83 700 91 700 c 2
 341 700 l 2
 343 700 347 699 345 692 c 0
 339 665 329 654 325 645 c 1
 319 645 75 645 75 645 c 1
 75 645 68 645 68 652 c 0
EndSplineSet
Validated: 1
EndChar

StartChar: uni0306.cap
Encoding: 63638 63638 268
Width: 294
Flags: W
HStem: 615 54<96.4806 202.062>
VStem: 237 18<696 721>
LayerCount: 2
Fore
SplineSet
149 669 m 0
 183 669 220 692 237 721 c 0
 237 723 241 723 243 723 c 0
 249 722 259 709 257 703 c 0
 257 701 255 698 255 696 c 0
 229 650 183 615 139 615 c 0
 95 615 62 648 54 696 c 0
 54 698 53 701 53 703 c 0
 53 709 71 722 77 723 c 0
 79 723 80 723 80 721 c 0
 86 692 115 669 149 669 c 0
EndSplineSet
Validated: 1
EndChar

StartChar: uni0327.cap
Encoding: 63639 63639 269
Width: 265
Flags: W
HStem: -179 33<49.3805 141.808> -73 43<139 153.374> -21 20G<127 162>
VStem: 41 164
LayerCount: 2
Fore
SplineSet
139 -30 m 1
 139 -30 159 -30 163 -30 c 1
 193 -30 211 -57 205 -88 c 0
 194 -143 145 -179 83 -179 c 0
 65 -179 47 -170 41 -164 c 1
 41 -159 42 -152 43 -146 c 0
 45 -138 51 -130 57 -130 c 0
 67 -130 80 -146 101 -146 c 0
 132 -146 149 -128 153 -110 c 0
 157 -88 147 -73 131 -73 c 0
 121 -73 110 -75 98 -80 c 0
 96 -80 86 -69 89 -64 c 0
 103 -46 121 -18 133 -1 c 1
 162 -1 l 1
 139 -30 l 1
EndSplineSet
Validated: 33
EndChar

StartChar: uni0307.cap
Encoding: 63640 63640 270
Width: 260
Flags: W
HStem: 718 124<95.7524 168.248>
VStem: 74 116<739.524 820.476>
LayerCount: 2
Fore
SplineSet
74 780 m 0
 80 814 112 842 144 842 c 0
 176 842 196 814 190 780 c 0
 184 746 152 718 120 718 c 0
 88 718 68 746 74 780 c 0
EndSplineSet
Validated: 33
EndChar

StartChar: uni0323.cap
Encoding: 63641 63641 271
Width: 253
Flags: W
HStem: -158 124<85.7524 157.648>
VStem: 64 115<-137.591 -55.5239>
LayerCount: 2
Fore
SplineSet
64 -96 m 0
 70 -62 102 -34 134 -34 c 0
 166 -34 185 -62 179 -96 c 0
 173 -130 142 -158 110 -158 c 0
 78 -158 58 -130 64 -96 c 0
EndSplineSet
Validated: 33
EndChar

StartChar: uni0305.cap
Encoding: 63642 63642 272
Width: 714
Flags: W
HStem: 736 68<84.5595 625.857>
LayerCount: 2
Fore
SplineSet
74 746 m 0
 74 748 88 804 98 804 c 2
 639 804 l 2
 641 804 644 803 642 795 c 0
 639 777 628 748 626 744 c 0
 623 738 616 736 616 736 c 1
 78 736 l 1
 78 736 72 736 74 746 c 0
EndSplineSet
Validated: 1
EndChar

StartChar: hookabovecomb.cap
Encoding: 63643 63643 273
Width: 251
Flags: W
HStem: 631 34<116.16 181.126>
VStem: 57 52<576.216 626.907> 74 42<499.74 534.579>
LayerCount: 2
Fore
SplineSet
163 665 m 0xc0
 199 665 215 642 209 610 c 0
 203 575 174 550 149 540 c 0
 129 532 118 526 116 514 c 0
 116 512 116 509 116 506 c 1
 115 503 91 498 79 498 c 1
 75 501 73 511 74 514 c 0xa0
 79 540 109 552 125 560 c 0
 147 570 159 582 163 600 c 0
 165 614 163 631 145 631 c 0
 125 631 113 618 109 595 c 0
 106 579 83 574 71 574 c 0
 63 574 55 579 57 587 c 0
 65 629 120 665 163 665 c 0xc0
EndSplineSet
Validated: 33
EndChar

StartChar: uni030B.cap
Encoding: 63644 63644 274
Width: 494
Flags: W
HStem: 700 108
LayerCount: 2
Fore
SplineSet
249 700 m 0
 244 700 235 708 235 715 c 0
 235 722 303 781 340 803 c 0
 346 806 354 808 365 808 c 0
 396 808 429 798 429 777 c 0
 429 750 266 700 249 700 c 0
84 700 m 0
 79 700 71 708 71 715 c 0
 71 722 139 781 176 803 c 0
 182 806 189 808 200 808 c 0
 231 808 264 798 264 777 c 0
 264 750 101 700 84 700 c 0
EndSplineSet
Validated: 1
EndChar

StartChar: uni0308.cap
Encoding: 63645 63645 275
Width: 451
Flags: W
HStem: 714 124<95.3519 167.818 285.752 358.248>
VStem: 74 116<735.524 817.591> 264 116<735.524 816.476>
LayerCount: 2
Fore
SplineSet
264 776 m 0
 270 810 302 838 334 838 c 0
 366 838 386 810 380 776 c 0
 374 742 342 714 310 714 c 0
 278 714 258 742 264 776 c 0
74 776 m 0
 80 810 111 838 143 838 c 0
 175 838 196 810 190 776 c 0
 184 742 151 714 119 714 c 0
 87 714 68 742 74 776 c 0
EndSplineSet
Validated: 33
EndChar

StartChar: uni0308.narrow
Encoding: 63646 63646 276
Width: 376
VWidth: 0
Flags: W
HStem: 460 125<72.5 147.375 238.115 311.375>
VStem: 53 114<479.993 565.778> 218 113<479.229 565.372>
LayerCount: 2
Fore
SplineSet
283 584 m 5
 311 584 331 561 331 533 c 5
 331 495 301 459 264 459 c 5
 236 459 218 484 218 513 c 5
 218 550 247 584 283 584 c 5
119 585 m 5
 147 585 167 561 167 533 c 5
 167 495 137 460 100 460 c 5
 72 460 53 485 53 514 c 5
 53 551 83 585 119 585 c 5
EndSplineSet
Validated: 1
EndChar

StartChar: uni030C.cap
Encoding: 63647 63647 277
Width: 360
Flags: W
HStem: 715 136
VStem: 68 226
LayerCount: 2
Fore
SplineSet
173 790 m 1
 206 810 278 851 289 851 c 0
 295 851 296 839 294 831 c 1
 288 827 261 807 219 769 c 0
 199 751 185 738 171 724 c 0
 166 719 162 715 158 715 c 0
 154 715 152 718 149 724 c 0
 142 738 133 751 119 770 c 0
 92 806 74 823 68 831 c 1
 70 837 74 851 81 851 c 0
 92 851 149 812 173 790 c 1
EndSplineSet
Validated: 1
EndChar

StartChar: Lslash
Encoding: 321 321 278
Width: 531
Flags: W
HStem: 2 47<187.523 399.924> 2 25<-6.55711 46.4247> 630 30<116.448 162.964 307.325 364.187>
LayerCount: 2
Fore
SplineSet
245 654 m 0x60
 286 654 328 658 366 660 c 1
 366 657 365 649 364 644 c 0
 363 638 361 630 358 630 c 0
 351 630 299 617 294 606 c 0
 282 579 274 553 268 519 c 2
 236 346 l 1
 406 458 l 1
 408 458 412 456 416 448 c 0
 422 434 424 423 424 419 c 0
 424 414 421 410 418 408 c 1
 223 283 l 1
 196 142 l 2
 190 113 186 86 188 62 c 0
 189 52 210 49 249 49 c 2
 283 49 l 2xa0
 318 49 368 55 398 70 c 0
 418 80 455 117 480 166 c 0
 482 170 487 172 494 172 c 0
 503 172 516 169 518 166 c 1
 490 112 450 41 435 -3 c 1
 334 -3 220 2 118 2 c 0
 69 2 -6 -4 -6 -4 c 1
 -7 -3 -8 4 -7 10 c 0
 -7 16 -4 27 -2 27 c 0
 9 27 58 39 66 52 c 1
 76 70 83 106 90 143 c 2
 102 206 l 1
 49 171 l 1
 46 171 36 184 35 194 c 0
 35 197 29 212 36 216 c 2
 115 267 l 1
 164 522 l 2
 167 540 175 587 173 605 c 1
 170 617 129 630 118 630 c 0
 116 630 115 637 116 643 c 0
 117 649 121 658 123 660 c 1
 165 658 202 654 245 654 c 0x60
EndSplineSet
Validated: 33
EndChar

StartChar: uni0237
Encoding: 567 567 279
Width: 302
VWidth: 0
Flags: W
HStem: -226 21G<-1 17> 368 74<154.461 230>
VStem: 184 94<220.445 367.116>
LayerCount: 2
Fore
SplineSet
212 442 m 3
 248 442 278 419 278 358 c 0
 278 319 236 122 228 82 c 0
 216 22 193 -57 152 -113 c 0
 110 -169 33 -215 1 -226 c 1
 -3 -223 -11 -214 -11 -204 c 1
 -11 -199 -8 -197 -5 -194 c 0
 78 -126 106 -69 132 61 c 1
 181 310 l 2
 182 315 184 327 184 332 c 0
 184 353 175 368 160 368 c 1
 143 368 108 302 104 302 c 0
 100 302 87 316 84 328 c 1
 94 353 146 442 212 442 c 3
EndSplineSet
Validated: 1
EndChar

StartChar: aogonek
Encoding: 261 261 382
Width: 465
VWidth: 0
Flags: W
HStem: -223 66<238 315.978> -8 68<74 168.319> 392 50<239.923 332>
VStem: 17 100<63.1236 192.732> 199 65<-183.5 -100.095> 253 90<67.0052 104.864>
LayerCount: 2
Fore
SplineSet
288 392 m 0xf0
 220 392 117 220 117 124 c 0
 117 99 119 60 151 60 c 0
 194 60 266 179 282 266 c 2
 299 360 l 2
 299 364 301 374 301 378 c 0
 301 384 299 392 288 392 c 0xf0
311 442 m 0
 353 442 394 432 403 424 c 1
 345 118 l 2
 344 113 343 103 343 98 c 0xf4
 343 74 353 67 364 67 c 0
 383 67 418 132 422 132 c 0
 426 132 440 118 443 106 c 1
 436 89 404 46 371 12 c 0
 332 -27 264 -78 264 -128 c 0xf8
 264 -142 270 -157 293 -157 c 0
 340 -157 367 -125 373 -125 c 0
 381 -125 371 -154 368 -157 c 0
 342 -186 295 -223 253 -223 c 0xf4
 223 -223 199 -199 199 -168 c 0xf8
 199 -117 250 -50 295 -3 c 1
 270 2 256 25 251 58 c 0
 250 74 253 97 253 103 c 0xf4
 253 104 251 105 251 105 c 1
 250 105 250 104 249 103 c 0
 225 68 169 -8 109 -8 c 0
 39 -8 17 33 17 98 c 0
 17 241 193 442 311 442 c 0
EndSplineSet
Validated: 33
EndChar

StartChar: Eogonek
Encoding: 280 280 383
Width: 542
VWidth: 512
Flags: W
HStem: -223 66<246 323.728> -2 51<183.006 324 352.056 394.918> 2 24<-8.28528 38.6934> 306 50<234.421 374.512> 613 44<281.051 468.718> 630 30<114.16 156.872>
VStem: 207 65<-184 -103.12> 388 31<230.113 271.831> 503 32<517.218 569.928>
LayerCount: 2
Fore
SplineSet
429 -3 m 1xdb80
 345 -3 272 -79 272 -130 c 0
 272 -142 278 -157 301 -157 c 0
 348 -157 375 -125 381 -125 c 0
 389 -125 378 -154 375 -157 c 0
 349 -186 303 -223 261 -223 c 0
 231 -223 207 -200 207 -168 c 0
 207 -114 277 -26 324 -2 c 1xdb80
 246 -1 164 2 107 2 c 0
 47 2 15 -3 -8 -4 c 1
 -9 -3 -9 1 -9 5 c 0
 -9 16 -6 26 -3 26 c 0
 8 26 53 39 60 52 c 0
 72 76 78 105 85 142 c 2
 158 518 l 2
 162 544 170 580 169 603 c 1
 167 615 126 630 115 630 c 0
 114 630 113 631 113 635 c 0
 113 643 116 656 120 660 c 1xb780
 120 660 183 657 239 657 c 0
 341 657 435 664 536 664 c 1
 534 642 535 621 535 599 c 0
 535 573 535 548 535 522 c 1
 532 519 522 517 515 517 c 0
 509 517 503 519 503 524 c 0
 494 590 451 613 398 613 c 2
 353 613 l 2
 316 613 288 612 284 600 c 0
 276 577 269 553 265 528 c 2
 234 363 l 2
 233 357 252 356 272 356 c 2
 334 356 l 2
 394 356 395 358 423 422 c 0
 425 427 433 430 439 430 c 0
 445 430 453 427 455 424 c 1
 419 234 l 1
 417 232 407 230 401 230 c 0
 394 230 389 232 388 238 c 0
 386 281 383 288 375 296 c 0
 365 304 329 306 289 306 c 0
 263 306 223 307 221 298 c 2
 191 146 l 2
 186 121 183 99 183 74 c 0
 183 53 183 49 243 49 c 2
 277 49 l 2
 312 49 363 55 393 70 c 0
 413 80 448 117 474 166 c 0
 476 170 482 172 489 172 c 0
 498 172 511 169 513 166 c 1
 485 112 444 41 429 -3 c 1xdb80
EndSplineSet
Validated: 33
EndChar

StartChar: Uogonek
Encoding: 370 370 384
Width: 671
VWidth: 512
Flags: W
HStem: -223 66<217 294.978> -2 64<191.982 325.166> 630 30<51.5926 94.6453 236.99 290.745 451.023 516.812 599.728 674.884>
VStem: 40 106<108.017 356.469> 178 65<-181.5 -102.872>
LayerCount: 2
Fore
SplineSet
243 -128 m 0
 243 -142 249 -157 272 -157 c 0
 319 -157 346 -125 352 -125 c 0
 360 -125 350 -154 347 -157 c 0
 321 -186 274 -223 232 -223 c 0
 202 -223 178 -197 178 -166 c 0
 178 -118 240 -39 289 1 c 1
 272 -1 252 -2 234 -2 c 0
 118 -2 40 63 40 204 c 0
 40 228 44 262 52 304 c 2
 94 518 l 2
 99 544 104 574 104 600 c 0
 104 620 61 630 52 630 c 0
 51 630 50 631 50 634 c 0
 50 642 54 656 58 660 c 1
 100 658 129 654 172 654 c 0
 213 654 254 658 292 660 c 1
 292 659 292 658 292 656 c 0
 292 647 288 630 284 630 c 0
 277 630 230 617 224 606 c 0
 214 584 202 535 198 517 c 2
 156 297 l 2
 150 266 146 230 146 202 c 0
 146 114 182 62 268 62 c 0
 358 62 435 100 468 272 c 2
 514 512 l 2
 520 548 528 580 526 604 c 0
 525 622 464 630 452 630 c 0
 450 630 450 632 450 636 c 0
 450 644 453 656 458 660 c 1
 500 658 528 654 570 654 c 0
 612 654 640 658 678 660 c 1
 678 648 675 630 670 630 c 0
 663 630 598 620 592 610 c 0
 586 598 577 556 568 512 c 2
 522 276 l 2
 498 154 456 82 400 41 c 0
 336 -6 243 -78 243 -128 c 0
EndSplineSet
Validated: 33
EndChar

StartChar: Tbar
Encoding: 358 358 385
Width: 588
VWidth: 512
Flags: W
HStem: -4 30<70.2234 127.249 273.487 316.099> 292 56<109.141 196 313 404.858> 611 46<88.0712 248.049 366.631 527.753>
VStem: 9 33<512.646 543.686> 70 192<6 68> 546 34<513.115 585.964>
LayerCount: 2
Fore
SplineSet
320 657 m 0
 394 657 443 661 526 662 c 0
 539 662 577 668 593 672 c 1
 580 519 l 1
 577 516 562 512 554 512 c 0
 549 512 546 513 546 517 c 0
 543 591 522 611 462 611 c 0
 389 611 372 602 369 594 c 0
 356 566 349 538 342 500 c 2
 313 348 l 1
 415 348 l 1
 417 348 422 351 420 341 c 0
 417 331 415 318 405 298 c 0
 402 292 397 292 397 292 c 1
 301 292 l 1
 271 139 l 2
 264 103 262 82 262 54 c 0
 262 39 311 26 315 26 c 1
 317 26 317 21 317 17 c 0
 317 11 313 0 311 -4 c 1
 274 -2 236 2 195 2 c 0
 152 2 114 -2 71 -4 c 1
 70 -2 70 4 70 8 c 0
 70 15 74 26 77 26 c 0
 88 26 137 40 143 52 c 1
 154 78 161 110 166 138 c 2
 196 292 l 1
 98 292 l 1
 98 292 93 292 95 301 c 0
 96 305 99 324 109 344 c 0
 112 350 116 348 116 348 c 1
 207 348 l 1
 235 497 l 2
 243 537 252 580 247 594 c 0
 245 602 235 611 162 611 c 0
 102 611 74 592 42 518 c 0
 40 514 36 512 31 512 c 0
 23 512 11 517 9 520 c 1
 55 672 l 1
 69 668 104 662 117 662 c 0
 200 661 246 657 320 657 c 0
EndSplineSet
Validated: 33
EndChar

StartChar: tbar
Encoding: 359 359 386
Width: 312
VWidth: 512
Flags: W
HStem: -8 74<98.5 177.43> 262 52<34.1421 85 188 273.859> 366 52<41.375 105 209 300.375>
VStem: 54 94<66.0833 216.875>
LayerCount: 2
Fore
SplineSet
139 522 m 2
 141 530 185 534 208 534 c 0
 220 534 227 534 233 532 c 1
 209 418 l 1
 225 418 295 418 295 418 c 2
 300 418 302 409 302 403 c 0
 302 391 298 375 292 366 c 1
 198 366 l 1
 188 314 l 1
 280 314 l 1
 282 314 287 312 286 306 c 0
 284 296 280 283 274 268 c 0
 271 262 267 262 267 262 c 1
 178 262 l 1
 149 116 l 2
 148 112 148 104 148 100 c 0
 148 78 157 66 169 66 c 0
 189 66 223 132 226 132 c 0
 230 132 245 116 247 106 c 1
 225 63 183 -8 117 -8 c 0
 80 -8 54 22 54 76 c 0
 54 91 55 108 59 126 c 2
 85 262 l 1
 26 262 l 1
 26 262 21 262 22 270 c 0
 22 276 25 288 34 308 c 0
 37 314 42 314 42 314 c 1
 95 314 l 1
 105 366 l 1
 42 366 l 2
 40 366 38 373 38 377 c 0
 38 393 48 414 52 418 c 1
 118 418 l 1
 139 522 l 2
EndSplineSet
Validated: 1
EndChar

StartChar: oe
Encoding: 339 339 387
Width: 629
VWidth: 512
Flags: W
HStem: -6 62<407.015 483.763> -6 48<140.29 218.561> 181 46<389 434.189> 394 48<194.381 273.313 455.041 550>
VStem: 23 97<65.3584 272.135> 291 98<229.459 308.427> 519 92<301.358 394.634>
LayerCount: 2
Fore
SplineSet
239 394 m 0x7e
 177 394 120 268 120 162 c 0
 120 102 133 42 175 42 c 0
 236 42 291 167 291 276 c 0
 291 334 281 394 239 394 c 0x7e
497 395 m 0
 454 395 408 313 397 273 c 0
 391 261 386 233 389 227 c 0
 409 226 462 258 463 292 c 0
 497 298 519 296 519 354 c 0
 519 372 517 395 497 395 c 0
518 442 m 0
 582 442 611 394 611 355 c 0
 611 259 441 181 383 181 c 0
 379 181 379 176 379 172 c 0
 379 82 421 56 457 56 c 0
 500 56 541 124 547 124 c 0
 551 124 562 110 562 100 c 1
 558 83 491 -6 418 -6 c 0xbe
 369 -6 328 22 305 66 c 1
 264 22 211 -6 153 -6 c 0
 69 -6 23 77 23 162 c 0
 23 304 129 442 259 442 c 0
 309 442 346 410 366 367 c 1
 409 413 464 442 518 442 c 0
EndSplineSet
Validated: 33
EndChar

StartChar: OE
Encoding: 338 338 388
Width: 943
VWidth: 512
Flags: W
HStem: -10 50<217.996 423.917> 2 46<583.037 795.948> 306 50<635.694 776.512> 613 44<426.56 526.241 682.094 870.242> 618 50<301.64 516.17>
VStem: 26 118<139.586 383.974> 789 31<230.054 270.809> 905 32<517.218 569.928>
LayerCount: 2
Fore
SplineSet
290 40 m 0xaf
 325 40 392 40 430 66 c 0
 467 91 481 117 489 156 c 2
 554 488 l 2
 559 514 564 568 539 584 c 0
 485 618 425 618 374 618 c 0
 247 618 144 447 144 252 c 1
 144 138 188 40 290 40 c 0xaf
508 2 m 0x77
 466 2 446 2 403 0 c 0
 349 -3 306 -10 264 -10 c 1
 120 -10 26 106 26 258 c 1
 26 472 212 668 398 668 c 1xaf
 486 668 565 657 641 657 c 0
 743 657 836 664 937 664 c 1
 935 642 936 621 936 599 c 0
 936 573 937 548 937 522 c 1
 934 519 924 517 917 517 c 0
 911 517 905 519 905 524 c 0
 896 590 852 613 799 613 c 2
 755 613 l 2
 718 613 689 612 685 600 c 0
 677 577 671 553 667 528 c 2
 635 363 l 2
 634 357 653 356 673 356 c 2
 735 356 l 2
 795 356 797 358 825 422 c 0
 827 427 834 430 840 430 c 0
 846 430 855 427 857 424 c 1
 820 234 l 1
 818 232 809 230 803 230 c 0
 796 230 790 232 789 238 c 0
 787 281 785 288 777 296 c 0
 767 304 731 306 691 306 c 0
 665 306 624 307 622 298 c 2
 593 146 l 2
 588 122 583 99 583 74 c 0
 583 53 585 48 645 48 c 2
 679 48 l 2
 714 48 765 55 795 70 c 0
 815 80 849 117 875 166 c 0
 877 170 883 172 890 172 c 0
 899 172 912 169 914 166 c 1
 886 112 846 41 831 -3 c 1
 730 -3 592 2 508 2 c 0x77
EndSplineSet
Validated: 33
EndChar

StartChar: Iogonek
Encoding: 302 302 389
Width: 356
VWidth: 512
Flags: W
HStem: -223 66<30 107.978> -4 30<-0.484375 57.8275 196.151 238.24> 630 30<122.593 165.645 307.99 361.745>
VStem: -9 65<-184 -100.498>
LayerCount: 2
Fore
SplineSet
269 517 m 2
 197 139 l 2
 191 106 187 85 187 54 c 0
 187 36 234 26 238 26 c 1
 239 26 240 24 240 22 c 0
 240 15 236 1 233 -4 c 1
 219 -4 203 -4 187 -6 c 0
 126 -17 56 -86 56 -130 c 0
 56 -142 62 -157 85 -157 c 0
 132 -157 159 -125 165 -125 c 0
 173 -125 163 -154 160 -157 c 0
 134 -186 87 -223 45 -223 c 0
 15 -223 -9 -200 -9 -168 c 0
 -9 -110 66 -17 114 2 c 1
 70 2 40 -2 0 -4 c 1
 -1 -3 -1 1 -1 4 c 0
 -1 13 2 26 5 26 c 0
 16 26 60 36 67 49 c 0
 78 71 87 110 92 138 c 2
 165 518 l 2
 170 544 175 574 175 600 c 0
 175 620 132 630 123 630 c 0
 122 630 121 631 121 634 c 0
 121 642 125 656 129 660 c 1
 171 658 200 654 243 654 c 0
 284 654 325 658 363 660 c 1
 363 659 363 658 363 656 c 0
 363 647 359 630 355 630 c 0
 348 630 301 617 295 606 c 0
 285 584 273 535 269 517 c 2
EndSplineSet
Validated: 33
EndChar

StartChar: iogonek
Encoding: 303 303 390
Width: 286
VWidth: 0
Flags: W
HStem: -223 66<74 152.478> 368 74<85.4772 161> 531 124<158.5 230.942>
VStem: 35 65<-183.5 -96.0905> 71 94<68.3997 158.169> 115 94<221.129 367.116> 139 112<550.815 635.781>
LayerCount: 2
Fore
SplineSet
100 -128 m 0xf0
 100 -142 107 -157 130 -157 c 0
 177 -157 204 -125 210 -125 c 0
 218 -125 207 -154 204 -157 c 0
 178 -186 131 -223 89 -223 c 0
 59 -223 35 -199 35 -168 c 0xf0
 35 -118 84 -46 121 -5 c 1
 90 1 71 30 71 77 c 0xe8
 71 89 73 106 77 126 c 2
 112 310 l 2
 113 315 115 327 115 332 c 0
 115 353 106 368 91 368 c 0
 74 368 40 302 36 302 c 0
 32 302 18 316 15 328 c 1
 25 353 77 442 143 442 c 0
 179 442 209 419 209 358 c 0xe4
 209 320 172 150 167 118 c 0
 166 112 165 104 165 100 c 0xe8
 165 76 175 67 186 67 c 0
 205 67 240 132 244 132 c 0
 248 132 261 118 264 106 c 1
 258 90 232 48 199 18 c 0
 149 -28 100 -78 100 -128 c 0xf0
205 655 m 0
 233 655 251 632 251 604 c 0
 251 566 221 531 185 531 c 0
 157 531 139 556 139 584 c 0xe2
 139 621 169 655 205 655 c 0
EndSplineSet
Validated: 33
EndChar

StartChar: uogonek
Encoding: 371 371 391
Width: 512
VWidth: 0
Flags: W
HStem: -223 66<285 363.728> -8 91<128 210.618> 368 74<85.7072 166>
VStem: 79 94<85.1486 248.783> 116 94<233.241 367.424> 246 65<-183.5 -100.826> 294 96<67.9269 188.656>
LayerCount: 2
Fore
SplineSet
173 128 m 0xf0
 173 96 184 83 205 83 c 0
 243 83 322 241 340 330 c 2
 362 436 l 1
 372 439 395 442 406 442 c 0
 417 442 440 439 452 436 c 1
 391 118 l 2
 390 114 390 106 390 102 c 0xf2
 390 81 400 67 414 67 c 0
 431 67 464 132 468 132 c 0
 472 132 487 118 490 106 c 1
 484 89 456 47 422 17 c 0
 369 -31 311 -78 311 -128 c 0
 311 -142 318 -157 341 -157 c 0
 388 -157 415 -125 421 -125 c 0
 429 -125 419 -154 416 -157 c 0
 390 -186 342 -223 300 -223 c 0
 270 -223 246 -199 246 -168 c 0xe4
 246 -118 297 -52 342 -5 c 1
 311 4 294 37 294 76 c 0
 294 96 297 120 304 148 c 1
 304 148 305 150 303 150 c 0
 303 150 302 149 302 148 c 0
 275 88 218 -8 160 -8 c 0
 96 -8 79 45 79 102 c 0xf2
 79 134 87 176 92 202 c 2
 114 316 l 2
 115 321 116 329 116 334 c 0
 116 361 102 368 94 368 c 0
 75 368 41 302 37 302 c 0
 33 302 19 316 16 328 c 1
 26 353 76 442 144 442 c 0
 188 442 210 411 210 357 c 0xe8
 210 328 173 182 173 128 c 0xf0
EndSplineSet
Validated: 33
EndChar

StartChar: dcroat
Encoding: 273 273 392
Width: 508
VWidth: 512
Flags: W
HStem: -8 68<87.5 182.287 316 393.272> 395 45<232.087 316.408> 510 56<254.186 349 453.001 501.859> 628 28<315.276 364.795> 674 20G<477.5 480.5>
VStem: 18 106<65.9023 206.888> 275 88<67.0102 102.96> 367 86<566.003 625.266>
LayerCount: 2
Fore
SplineSet
18 102 m 3
 18 247 168 439 286 440 c 0
 311 440 322 433 328 430 c 0
 329 430 331 428 332 428 c 0
 333 428 334 431 334 432 c 2
 334 432 349 503 349 504 c 0
 349 507 349 510 346 510 c 1
 322 510 244 510 244 510 c 1
 244 510 239 508 241 518 c 0
 242 522 245 544 254 562 c 0
 258 568 260 566 260 566 c 1
 260 566 336 566 358 566 c 1
 360 566 361 570 362 572 c 0
 365 585 367 603 367 606 c 0
 367 627 338 628 318 628 c 0
 316 628 314 630 314 634 c 8
 314 644 321 656 324 656 c 3
 365 656 455 684 474 693 c 0
 476 694 477 694 478 694 c 3
 483 694 486 682 486 678 c 9
 486 678 466 643 456 588 c 2
 456 588 453 574 453 572 c 0
 453 568 454 566 457 566 c 1
 465 566 508 566 508 566 c 1
 510 566 513 565 512 558 c 0
 510 548 508 532 502 516 c 0
 499 510 495 510 495 510 c 1
 495 510 462 510 446 510 c 0
 443 510 441 508 440 504 c 0
 427 436 367 126 367 126 c 2
 366 122 363 109 363 101 c 1
 363 81 371 67 386 67 c 1
 404 67 438 132 442 132 c 1
 446 132 460 118 463 107 c 1
 451 75 399 -8 335 -8 c 3
 297 -8 273 22 273 57 c 0
 273 76 275 95 275 99 c 3
 275 101 274 103 273 103 c 3
 272 103 271 101 270 99 c 0
 256 77 184 -8 120 -8 c 3
 55 -8 18 35 18 102 c 3
277 395 m 0
 213 395 124 246 124 122 c 3
 124 92 134 60 164 60 c 3
 215 60 285 182 302 262 c 2
 318 334 l 1
 320 341 321 348 321 354 c 1
 321 378 302 395 277 395 c 0
EndSplineSet
Validated: 1
EndChar

